<?xml version="1.0" encoding="utf-8"?>
<!-- Generator: Adobe Illustrator 21.0.2, SVG Export Plug-In . SVG Version: 6.00 Build 0)  -->
<svg version="1.1" id="Layer_1" xmlns="http://www.w3.org/2000/svg" xmlns:xlink="http://www.w3.org/1999/xlink" x="0px" y="0px"
	 viewBox="0 0 24 24" style="enable-background:new 0 0 24 24;" xml:space="preserve">
<title>control-center</title>
<path d="M21.7,11.2l-1.1,1.1L12,21l-6.7-6.7l2.5-2.5c-0.1,2.3,1.6,4.3,4,4.5c1.2,0.1,2.3-0.4,3.2-1.2l0,0l4.8-4.8l0,0l0.5-0.5
	L12,1.5L1.5,12l0.8,0.8l1.1-1.1L12,3l6.8,6.8l-2.5,2.5c0.2-2.3-1.6-4.4-4-4.5C11.1,7.7,9.9,8.1,9,9L8.8,9.2l-4.3,4.3l0,0l-0.8,0.8
	l8.3,8.2L22.5,12L21.7,11.2z M9.8,9.8c1.2-1.2,3.3-1.2,4.5,0s1.2,3.3,0,4.5s-3.3,1.2-4.5,0c0,0,0,0,0,0C8.5,13,8.5,11,9.8,9.8z"/>
</svg>
