<?xml version="1.0" encoding="utf-8"?>
<!-- Generator: Adobe Illustrator 21.0.2, SVG Export Plug-In . SVG Version: 6.00 Build 0)  -->
<svg version="1.1" id="Layer_1" xmlns="http://www.w3.org/2000/svg" xmlns:xlink="http://www.w3.org/1999/xlink" x="0px" y="0px"
	 viewBox="0 0 24 24" style="enable-background:new 0 0 24 24;" xml:space="preserve">
<title>user-profile</title>
<path id="user-profile" d="M9.1,14.1l-3.8,1.8c-1,0.4-1.6,1.3-1.7,2.3v3.2h16.8v-3.2c-0.1-1-0.7-1.9-1.7-2.3l-2.3-1l0.7-0.8l2,0.9
	c1.4,0.5,2.3,1.8,2.3,3.3v4.3H2.6v-4.3c0-1.5,1-2.7,2.3-3.3l4-1.9H12l0,0l0,0c2.9,0,5.3-2.3,5.3-5.2S14.9,2.6,12,2.6
	c-2.9,0-5.3,2.3-5.3,5.2c0,1.3,0.5,2.5,1.3,3.5l-0.7,0.8C5,9.5,5.2,5.5,7.7,3.2s6.5-2.2,8.9,0.4s2.2,6.5-0.4,8.9
	c-1.2,1.1-2.7,1.7-4.3,1.7H9.1z"/>
</svg>
