<?xml version="1.0" encoding="utf-8"?>
<!-- Generator: Adobe Illustrator 21.0.2, SVG Export Plug-In . SVG Version: 6.00 Build 0)  -->
<svg version="1.1" id="Layer_1" xmlns="http://www.w3.org/2000/svg" xmlns:xlink="http://www.w3.org/1999/xlink" x="0px" y="0px"
	 viewBox="0 0 24 24" style="enable-background:new 0 0 24 24;" xml:space="preserve">
<title>scheduler</title>
<path id="scheduler" d="M4.5,13.5l9.7-9.7l8.3,8.3L12,22.5L1.5,12l2.2-2.2L3,9l0.8-0.8L4.5,9L9,4.5L8.2,3.7L9,3l0.8,0.8L12,1.5
	l0.8,0.8l-2.2,2.2l0.8,0.8L10.5,6L9.8,5.3L5.3,9.8L6,10.5l-0.8,0.8l-0.8-0.8L3,12L4.5,13.5z M14.2,5.3l-9,9L12,21l9-9L14.2,5.3z
	 M7.5,15l2.8-2.8l0.8,0.8l-2.8,2.8L7.5,15z M11.3,14.2l2.8-2.8l0.8,0.8l-2.8,2.8L11.3,14.2z M15.2,13.3l2.8-2.8l0.8,0.8l-2.8,2.8
	L15.2,13.3z"/>
</svg>
