<?xml version="1.0" encoding="utf-8"?>
<!-- Generator: Adobe Illustrator 21.0.2, SVG Export Plug-In . SVG Version: 6.00 Build 0)  -->
<svg version="1.1" id="Layer_1" xmlns="http://www.w3.org/2000/svg" xmlns:xlink="http://www.w3.org/1999/xlink" x="0px" y="0px"
	 viewBox="0 0 24 24" style="enable-background:new 0 0 24 24;" xml:space="preserve">
<title>icon-track</title>
<path id="Track" d="M11.3,13.5C9,13.2,7.4,11,7.8,8.7c0.4-2.3,2.5-3.9,4.9-3.6s3.9,2.5,3.6,4.9c-0.2,1.3-1,2.4-2.1,3.1v-1.3
	c1.3-1.2,1.4-3.2,0.3-4.5s-3.2-1.4-4.5-0.3s-1.4,3.2-0.3,4.5c0.5,0.6,1.3,1,2.1,1.1h0.5h0.2v1.1l0,0v6.9l0,0v1.6L12,22.5l-0.8-0.8
	c-4.3-4.4-6.7-8.2-7-11.4c-0.5-4.4,2.6-8.3,7-8.8c0.3,0,0.6-0.1,0.9-0.1c4.3,0,7.9,3.4,7.9,7.8c0,0.4,0,0.8-0.1,1.1
	c-0.1,0.5-0.2,0.9-0.3,1.4h-1.1c0.2-0.5,0.3-1,0.4-1.5c0.5-3.7-2.1-7.1-5.8-7.6c-0.3,0-0.6-0.1-0.9-0.1c-3.8,0-6.8,3.1-6.8,6.9
	c0,0.3,0,0.5,0,0.8c0.3,2.7,2.4,6.1,6.1,10L11.3,13.5z"/>
</svg>
