<?xml version="1.0" encoding="utf-8"?>
<!-- Generator: Adobe Illustrator 21.0.2, SVG Export Plug-In . SVG Version: 6.00 Build 0)  -->
<svg version="1.1" id="Layer_1" xmlns="http://www.w3.org/2000/svg" xmlns:xlink="http://www.w3.org/1999/xlink" x="0px" y="0px"
	 viewBox="0 0 24 24" style="enable-background:new 0 0 24 24;" xml:space="preserve">
<title>icon-driver</title>
<path id="Combined-Shape" d="M17.3,13.5l-5.9-5.9l-2,4l3.9,3.9L17.3,13.5z M12.4,7.1l5.5,5.5l2.8-4.6L17,4.3L12.4,7.1z M12.2,15.9
	l-4-4l2.5-5l6.4-4l4.9,4.9l-4,6.4l-3.1,1.5h7.4v1H7.8v-1L12.2,15.9z M2.5,17.9h20v1h-21v-4.2h1V17.9z M1.5,12.6L4,7.4h3.8v7.3H1.5
	V12.6z M4.7,8.5l-2.1,4.4v0.9h4.2V8.5H4.7z M2.5,19h4.2c0,1.2-0.9,2.1-2.1,2.1S2.5,20.1,2.5,19z M5.7,19H3.6c0,0.6,0.5,1,1.1,1
	S5.7,19.6,5.7,19z M9.9,19h4.2c0,1.2-0.9,2.1-2.1,2.1S9.9,20.1,9.9,19z M13.1,19h-2.1c0,0.6,0.5,1,1.1,1S13.1,19.6,13.1,19z
	 M17.2,19h4.2c0,1.2-0.9,2.1-2.1,2.1S17.2,20.1,17.2,19z M20.4,19h-2.1c0,0.6,0.5,1,1.1,1S20.4,19.6,20.4,19z"/>
</svg>
