<?xml version="1.0" encoding="utf-8"?>
<!-- Generator: Adobe Illustrator 21.0.2, SVG Export Plug-In . SVG Version: 6.00 Build 0)  -->
<svg version="1.1" id="Layer_1" xmlns="http://www.w3.org/2000/svg" xmlns:xlink="http://www.w3.org/1999/xlink" x="0px" y="0px"
	 viewBox="0 0 24 24" style="enable-background:new 0 0 24 24;" xml:space="preserve">
<title>icon-pricing</title>
<path id="icon-pricing" d="M18.6,15.6l1.6,1.6l-0.7,0.7l-2.3-2.3l3.9-3.9l-4.9-4.9l-8.3,8.3l-2.8-2.8L13.4,4l-1.1-1L8.4,6.9L6.1,4.6
	l0.7-0.7l1.6,1.6l3.9-3.9L14.9,4l-8.3,8.3l1.3,1.3l8.3-8.3l6.4,6.4L18.6,15.6L18.6,15.6z M15.6,18.6l-3.9,3.9L9.1,20l8.3-8.3
	l-1.3-1.3l-8.3,8.3l-6.4-6.4l3.9-3.9L3.8,6.8l0.7-0.7l2.3,2.3L3,12.3l4.9,4.9l8.3-8.3l2.8,2.8L10.6,20l1.1,1.1l3.9-3.9l2.3,2.3
	l-0.7,0.7L15.6,18.6z"/>
</svg>
