<?xml version="1.0" encoding="utf-8"?>
<!-- Generator: Adobe Illustrator 21.0.2, SVG Export Plug-In . SVG Version: 6.00 Build 0)  -->
<svg version="1.1" id="Layer_1" xmlns="http://www.w3.org/2000/svg" xmlns:xlink="http://www.w3.org/1999/xlink" x="0px" y="0px"
	 viewBox="0 0 24 24" style="enable-background:new 0 0 24 24;" xml:space="preserve">
<title>icon-payment</title>
<path id="icon-payment" d="M1.5,19.1L5,17.5l6.9,3.8l9-5l-0.6-0.8l-5.1,2.7h-4.7v-1.1h3.9v-1h-4.2l-3.8-2L1.5,17v-1.2L6.4,13
	l4.1,2.2h5v1.7l5.1-2.8l1.8,2.5l-10.6,5.9l-7-3.8l-3.5,1.6V19.1z M9.7,6L7.5,8.2l5.2,5.2l2.2-2.2l-0.7-0.7L12.7,12L12,11.2l3-3
	l-0.8-0.8l-3,3L9,8.2l1.5-1.5L9.7,6z M10.5,5.2l0.7,0.7l1.5-1.5l0.8,0.8l-3,3L11.2,9l3-3l2.1,2.1l0,0l0.1,0.1L15,9.7l0.7,0.7
	l2.2-2.2L12.7,3L10.5,5.2z M6,8.2l6.7-6.7l6.7,6.7l-6.7,6.7L6,8.2z"/>
</svg>
