<?xml version="1.0" encoding="utf-8"?>
<!-- Generator: Adobe Illustrator 21.0.2, SVG Export Plug-In . SVG Version: 6.00 Build 0)  -->
<svg version="1.1" id="Layer_1" xmlns="http://www.w3.org/2000/svg" xmlns:xlink="http://www.w3.org/1999/xlink" x="0px" y="0px"
	 viewBox="0 0 24 24" style="enable-background:new 0 0 24 24;" xml:space="preserve">
<title>icon-ordering</title>
<path id="ordering" d="M14.6,4.9L15,4.5l7.5,7.5L12,22.5L1.5,12L12,1.5l0.8,0.8l-1.1,1.1L3,12l9,9l9-9l-6-6l-6,6l-0.8-0.8L14.6,4.9z
	 M6,13.5L7.5,12l0.8,0.8l-1.5,1.5L6,13.5z M10.5,13.5l5.2-5.2L16.5,9l-5.2,5.2L10.5,13.5z M8.2,15.8l1.5-1.5l0.8,0.8L9,16.5
	L8.2,15.8z M12.7,15.8l5.3-5.2l0.8,0.8l-5.2,5.2L12.7,15.8z M10.5,18l1.5-1.5l0.8,0.8l-1.5,1.5L10.5,18z"/>
</svg>
