<svg xmlns="http://www.w3.org/2000/svg" width="24" height="24" viewBox="0 0 24 24"><g class="nc-icon-wrapper" fill="#444444"><title>0041_settings-24</title><g data-name="Layer 46"><path d="M19.6 7.884l-.34-.606-.103-3.51L15.343 1.5 12.34 3.163h-.68L8.657 1.5 4.843 3.768l-.103 3.51-.34.606-2.9 1.848v4.536l2.9 1.848.34.606.103 3.51L8.657 22.5l3.003-1.663h.68l3.003 1.663 3.814-2.268.103-3.51.34-.606 2.9-1.848V9.732zM21 13.22l-2.542 1.535-.913 1.628-.019 3.035-2.052 1.22-2.562-1.5h-1.824l-2.562 1.5-2.052-1.22-.02-3.035-.912-1.628L3 13.22v-2.44l2.542-1.535.913-1.628.019-3.035 2.052-1.22 2.562 1.5h1.824l2.562-1.5 2.052 1.22.02 3.035.912 1.628L21 10.78z"></path><path d="M12 7.5a4.5 4.5 0 1 0 4.5 4.5A4.5 4.5 0 0 0 12 7.5zm0 7.5a3 3 0 1 1 3-3 3.003 3.003 0 0 1-3 3z"></path></g></g></svg>