<svg xmlns="http://www.w3.org/2000/svg" width="24" height="24" viewBox="0 0 24 24"><g class="nc-icon-wrapper" fill="#444444"><title>0064_language-24</title><path d="M12 1.5h-.007a10.5 10.5 0 0 0 0 21h.017a10.5 10.5 0 0 0 0-21H12zm-3.865 6c.847-2.777 2.411-4.498 3.863-4.5h.008c1.45.005 3.012 1.726 3.86 4.5zm-3.931 0a9.057 9.057 0 0 1 4.033-3.676A11.68 11.68 0 0 0 6.578 7.5zm13.218 0a11.692 11.692 0 0 0-1.652-3.666A9.057 9.057 0 0 1 19.782 7.5zm.328 7.5a18.132 18.132 0 0 0 0-6h2.727a8.979 8.979 0 0 1 0 6zm-9.98 0a16.78 16.78 0 0 1 0-6h8.46a16.78 16.78 0 0 1 0 6zM3.51 15a8.978 8.978 0 0 1 0-6h2.74a18.131 18.131 0 0 0 0 6zm12.261 5.166a11.692 11.692 0 0 0 1.652-3.666h2.36a9.057 9.057 0 0 1-4.012 3.666zM11.998 21c-1.452-.002-3.016-1.723-3.863-4.5h7.73c-.847 2.774-2.408 4.495-3.859 4.5h-.008zm-3.761-.824A9.057 9.057 0 0 1 4.204 16.5h2.374a11.68 11.68 0 0 0 1.659 3.676z" data-name="Layer 53"></path></g></svg>