<?xml version="1.0" encoding="utf-8"?>
<!-- Generator: Adobe Illustrator 21.0.2, SVG Export Plug-In . SVG Version: 6.00 Build 0)  -->
<svg version="1.1" id="bulk-cement" xmlns="http://www.w3.org/2000/svg" xmlns:xlink="http://www.w3.org/1999/xlink" x="0px"
	 y="0px" viewBox="0 0 24 24" style="enable-background:new 0 0 24 24;" xml:space="preserve">
<title>bulk-cement</title>
<g>
	<path d="M22.4,20L15.9,9.8c-0.5-0.8-1.3-1.2-2.2-1.2l-1.7-3.9c-0.6-1.3-2.1-1.9-3.4-1.3C7.9,3.7,7.4,4.2,7.1,4.9L1.5,19
		c-0.1,0.3,0,0.6,0.3,0.7c0.1,0,0.1,0,0.2,0h3.9L5.7,20c-0.1,0.2-0.1,0.6,0.2,0.7c0.1,0,0.2,0.1,0.2,0.1H22c0.3,0,0.5-0.2,0.5-0.5
		C22.5,20.2,22.5,20.1,22.4,20L22.4,20z M4.3,18.7c0.3,0,0.5-0.3,0.5-0.5c0-0.3-0.2-0.5-0.5-0.5c-0.3,0-0.5,0.2-0.5,0.5
		c0,0.3,0.2,0.5,0.5,0.5H2.8L8.1,5.2c0.3-0.8,1.2-1.2,2-0.9c0.4,0.1,0.7,0.4,0.9,0.8l1.6,3.7c-0.5,0.2-0.9,0.6-1.2,1.1l-1.6,2.7
		c-0.1-0.2-0.3-0.3-0.4-0.3c-0.3,0-0.5,0.2-0.5,0.5s0.2,0.5,0.5,0.5l-1.2,2.1c-0.2,0.1-0.4,0.3-0.4,0.5c0,0,0,0.1,0,0.1l-0.3,0.5
		c-0.1,0-0.2-0.1-0.3-0.1c-0.3,0-0.5,0.2-0.5,0.5c0,0.2,0.1,0.3,0.3,0.4L6.8,18c-0.1-0.2-0.3-0.4-0.5-0.4c-0.3,0-0.5,0.2-0.5,0.5
		c0,0.3,0.2,0.5,0.5,0.5L4.3,18.7z M6.4,18.7L6.4,18.7L6.4,18.7L6.4,18.7z M20,19.7c0.3,0,0.5-0.3,0.5-0.5c0-0.3-0.2-0.5-0.5-0.5
		c-0.3,0-0.5,0.2-0.5,0.5l0,0c0,0.3,0.2,0.5,0.5,0.5h-1.9c0.3,0,0.5-0.3,0.5-0.5c0-0.3-0.2-0.5-0.5-0.5c-0.3,0-0.5,0.2-0.5,0.5l0,0
		c0,0.3,0.2,0.5,0.5,0.5h-1.9c0.3,0,0.5-0.3,0.5-0.5c0-0.3-0.2-0.5-0.5-0.5c-0.3,0-0.5,0.2-0.5,0.5l0,0c0,0.3,0.2,0.5,0.5,0.5H7.1
		l0.6-1l4.7-8.2c0.3-0.5,0.8-0.8,1.3-0.8c0.2,0,0.3,0,0.5,0.1c0.4,0.1,0.7,0.3,0.9,0.7l3.4,5.3c-0.1,0.1-0.1,0.2-0.1,0.3
		c0,0.3,0.2,0.5,0.5,0.5c0.1,0,0.1,0,0.1,0l2,3.1H20z"/>
	<circle cx="6.3" cy="16.1" r="0.5"/>
	<circle cx="7.4" cy="15" r="0.5"/>
	<circle cx="8.4" cy="14" r="0.5"/>
	<circle cx="17.8" cy="17.1" r="0.5"/>
	<circle cx="5.3" cy="17.1" r="0.5"/>
	<circle cx="18.9" cy="18.2" r="0.5"/>
	<circle cx="16.8" cy="18.2" r="0.5"/>
</g>
</svg>
