<?xml version="1.0" encoding="utf-8"?>
<!-- Generator: Adobe Illustrator 21.0.2, SVG Export Plug-In . SVG Version: 6.00 Build 0)  -->
<svg version="1.1" id="Layer_1" xmlns="http://www.w3.org/2000/svg" xmlns:xlink="http://www.w3.org/1999/xlink" x="0px" y="0px"
	 viewBox="0 0 24 24" style="enable-background:new 0 0 24 24;" xml:space="preserve">
<title>multi-products</title>
<g>
	<circle cx="11.7" cy="11.8" r="0.5"/>
	<circle cx="13.7" cy="9.8" r="0.5"/>
	<circle cx="9.8" cy="13.7" r="0.5"/>
	<circle cx="5.8" cy="17.7" r="0.5"/>
	<circle cx="7.8" cy="15.7" r="0.5"/>
	<circle cx="15.7" cy="7.8" r="0.5"/>
	<circle cx="17.7" cy="5.9" r="0.5"/>
	<circle cx="18.8" cy="19.8" r="0.5"/>
	<path d="M21.9,5.1c-0.1-0.2-0.3-0.3-0.5-0.3h-0.9l-1.8-1.8V2.1c0-0.3-0.2-0.5-0.5-0.5c-0.1,0-0.3,0.1-0.4,0.2L1.7,17.8
		c-0.2,0.2-0.2,0.6,0,0.8c0.1,0.1,0.2,0.2,0.4,0.2h0.9l1.8,1.8v0.9c0,0.2,0.1,0.4,0.3,0.5c0.2,0.1,0.4,0,0.6-0.1L21.8,5.7
		C22,5.5,22,5.3,21.9,5.1z M5.8,20.2c0-0.1-0.1-0.1-0.1-0.2l-2.1-2.1c-0.1-0.1-0.1-0.1-0.2-0.1L17.7,3.4c0,0.1,0.1,0.1,0.1,0.2
		L20,5.7c0.1,0.1,0.1,0.1,0.2,0.1L5.8,20.2z"/>
	<path d="M22,18.2c0.3,0,0.5-0.2,0.5-0.5v-0.5H15v0.5c0,0.3,0.2,0.5,0.5,0.5c0.3,0,0.5,0.2,0.5,0.5v2.1c0,0.3-0.2,0.5-0.5,0.5
		c-0.3,0-0.5,0.2-0.5,0.5v0.5h7.5V22c0-0.3-0.2-0.5-0.5-0.5c-0.3,0-0.5-0.2-0.5-0.5v-2.1C21.4,18.5,21.7,18.2,22,18.2
		C22,18.2,22,18.2,22,18.2z M20.4,21.5h-3.2c0,0,0-3.2,0-3.2h3.2C20.4,18.2,20.4,21.4,20.4,21.5z"/>
	<path d="M2,11.2c0.1,0,0.3-0.1,0.4-0.2l8.7-8.7c0.2-0.2,0.2-0.6,0-0.8c-0.2-0.2-0.6-0.2-0.8,0l0,0l-8.7,8.7c-0.2,0.2-0.2,0.6,0,0.8
		C1.8,11.1,1.9,11.2,2,11.2L2,11.2z"/>
	<path d="M2.1,14.4c0.1,0,0.3,0,0.4-0.1L14.3,2.5c0.2-0.2,0.2-0.6,0-0.8c-0.2-0.2-0.6-0.2-0.8,0L1.7,13.5c-0.2,0.2-0.2,0.5,0,0.8
		C1.8,14.3,1.9,14.4,2.1,14.4z"/>
</g>
</svg>
