<?xml version="1.0" encoding="utf-8"?>
<!-- Generator: Adobe Illustrator 21.0.2, SVG Export Plug-In . SVG Version: 6.00 Build 0)  -->
<svg version="1.1" id="aggregates" xmlns="http://www.w3.org/2000/svg" xmlns:xlink="http://www.w3.org/1999/xlink" x="0px" y="0px"
	 viewBox="0 0 24 24" style="enable-background:new 0 0 24 24;" xml:space="preserve">
<title>aggregates</title>
<path d="M20.1,15.2c0.2-0.3,0.3-0.6,0.3-1c0-1-1-2-2.4-2.4c0.2-0.3,0.3-0.6,0.3-0.9c0-0.7-0.5-1.3-1.1-1.6c-0.6-0.3-1.3-0.5-2-0.5v0
	c0.6-0.3,0.9-0.8,1-1.5c0-0.7-0.5-1.3-1.1-1.6c-0.3-0.2-0.7-0.3-1-0.4l0,0c-0.2-1-1.5-1.8-3.1-1.8c-1.8,0-3.1,0.9-3.1,2.1
	c0,0.6,0.4,1.2,0.9,1.5C7.6,7.6,6.9,8.4,6.9,9.3c0,0.1,0,0.1,0,0.2C6.5,9.6,6.1,9.8,5.8,10c-0.6,0.3-1.1,0.9-1.1,1.6
	c0,0.4,0.2,0.8,0.5,1.1c-0.9,0.5-1.5,1.2-1.5,2c0,0.3,0.1,0.6,0.2,0.8c-1.4,0.4-2.3,1.3-2.3,2.3c0,1.5,1.8,2.6,4.2,2.6
	c1.1,0,2.2-0.3,3.2-0.9c0.9,0.3,1.8,0.4,2.7,0.4c0.9,0,1.9-0.1,2.7-0.4c1.1,0.6,2.3,0.9,3.5,0.9c2.6,0,4.7-1.2,4.7-2.8
	C22.5,16.5,21.5,15.6,20.1,15.2z M19.4,14.2c0,0.7-1.1,1.4-2.7,1.6c-0.6-0.9-1.8-1.7-3.5-1.9c0.4-0.6,1.5-1.2,3-1.2
	C18.1,12.6,19.4,13.4,19.4,14.2z M11.7,13.6c-0.6-0.8-1.5-1.3-2.5-1.5C9.3,12,9.4,12,9.5,11.9l0.2-0.1c0.5,0.1,0.9,0.1,1.4,0.1
	c0.6,0,1.1-0.1,1.7-0.2c0.3,0.1,0.5,0.2,0.7,0.4c-0.6,0.3-1.1,0.8-1.4,1.5L11.7,13.6z M17.2,10.9c0,0.2-0.2,0.4-0.6,0.6h-0.5
	c-0.6,0-1.2,0.1-1.7,0.2c-0.1-0.2-0.3-0.4-0.5-0.5c0.6-0.3,1-0.8,1.2-1.4C16.5,10,17.2,10.5,17.2,10.9z M15.1,7.3
	c0,0.2-0.2,0.4-0.5,0.6l0,0c-1-0.8-2.3-1.3-3.6-1.2h-0.2l0.1,0c0.6-0.3,1.2-0.4,1.8-0.4C14.2,6.3,15.1,6.9,15.1,7.3z M10.9,4.6
	c0.7,0,1.4,0.2,1.9,0.6h-0.1c-0.8,0-1.6,0.2-2.3,0.5c-0.3,0.2-0.6,0.4-0.9,0.7l0,0C9.2,6.3,8.8,6,8.8,5.7C8.8,5.1,9.9,4.6,10.9,4.6z
	 M11.1,7.8c1.9,0,3.2,0.8,3.2,1.6c0,0.7-1.3,1.6-3.2,1.6s-3.1-0.8-3.1-1.6C7.9,8.6,9.2,7.8,11.1,7.8z M5.7,11.5
	c0-0.2,0.2-0.5,0.6-0.6c0.3-0.2,0.7-0.3,1-0.3c0.3,0.4,0.7,0.6,1.1,0.8C8.2,11.6,8.1,11.8,8,12H7.8c-0.5,0-1,0.1-1.5,0.2
	C5.9,12,5.7,11.7,5.7,11.5z M7.8,13.1c0.9,0,1.8,0.2,2.5,0.7c-2,0.3-3.5,1.2-3.9,2.3c-1.1-0.3-1.7-0.9-1.7-1.4
	C4.7,13.9,5.9,13.1,7.8,13.1z M5.7,19.4c-1.9,0-3.1-0.8-3.1-1.6c0-0.6,0.8-1.2,2-1.5c0.5,0.4,1.1,0.6,1.7,0.8
	c0.2,0.8,0.7,1.5,1.5,1.9C7.1,19.2,6.4,19.4,5.7,19.4z M8.4,18.2c-0.7-0.4-1.1-0.9-1.1-1.4c0-0.5,0.4-1,1.1-1.4
	c1-0.5,2.1-0.7,3.1-0.7c1.1,0,2.2,0.2,3.1,0.7c0.7,0.4,1.1,0.9,1.1,1.4c0,0.5-0.4,1-1.1,1.4c-1,0.5-2.1,0.7-3.1,0.7
	C10.5,18.9,9.4,18.7,8.4,18.2L8.4,18.2z M17.8,19.4c-0.8,0-1.5-0.1-2.3-0.4c0.8-0.4,1.4-1.2,1.4-2.2v0c0.8-0.1,1.6-0.3,2.3-0.8
	c1.3,0.3,2.2,1,2.2,1.6C21.5,18.4,19.9,19.4,17.8,19.4z"/>
</svg>
