<?xml version="1.0" encoding="utf-8"?>
<!-- Generator: Adobe Illustrator 21.0.2, SVG Export Plug-In . SVG Version: 6.00 Build 0)  -->
<svg version="1.1" id="bag-cement" xmlns="http://www.w3.org/2000/svg" xmlns:xlink="http://www.w3.org/1999/xlink" x="0px" y="0px"
	 viewBox="0 0 24 24" style="enable-background:new 0 0 24 24;" xml:space="preserve">
<title>bag-cement</title>
<path d="M21.5,1.5H7.3c-0.5,0-1,0.4-1,0.9c0,0,0,0,0,0v1H2.5c-0.5,0-1,0.4-1,1c0,0,0,0,0,0l0,0v17.1c0,0.5,0.4,1,1,1h14.3
	c0.5,0,1-0.4,1-1v-0.9h3.9c0.5,0,1-0.4,1-0.9c0,0,0,0,0,0l0,0V2.5C22.5,2,22.1,1.5,21.5,1.5z M16.6,21.4H2.5V4.5h14.1V21.4z
	 M17.7,7.8h1.9v6.5h-1.8L17.7,7.8z M21.5,19.5h-3.8v-1.8h2v-1h-2v-1.4h2c0.5,0,0.9-0.4,0.9-0.9c0,0,0,0,0,0l0,0V7.7
	c0-0.5-0.4-0.9-0.9-0.9h-2V4.4c0-0.5-0.4-1-1-1c0,0,0,0,0,0H7.4V2.6h14.1V19.5z"/>
<rect x="4.3" y="18.7" width="6.7" height="1"/>
<rect x="12" y="18.7" width="2.9" height="1"/>
<rect x="9.1" y="6.3" width="4.7" height="1"/>
<polygon points="7.2,5.3 6.3,5.3 5.3,7.2 6.3,7.2 "/>
<polygon points="7.7,7.2 8.6,5.3 7.7,5.3 6.8,7.2 "/>
<path d="M4.3,17.2h3.2c1.3,0.6,2.8,0.6,4.1,0h3.2c0.5,0,0.9-0.4,0.9-0.9V9.6c0-0.5-0.4-0.9-0.9-0.9h-3.2C10.4,8,8.8,8,7.5,8.7H4.3
	c-0.5,0-0.9,0.4-0.9,0.9v6.7C3.4,16.8,3.8,17.2,4.3,17.2C4.3,17.2,4.3,17.2,4.3,17.2L4.3,17.2z M4.5,9.7h3.3L8,9.6
	c1-0.5,2.2-0.5,3.2,0l0.2,0.1h3.3v6.5h-3.3l-0.2,0.1c-1,0.5-2.2,0.5-3.2,0l-0.2-0.1H4.5V9.7z"/>
</svg>
