<?xml version="1.0" encoding="utf-8"?>
<!-- Generator: Adobe Illustrator 21.0.2, SVG Export Plug-In . SVG Version: 6.00 Build 0)  -->
<svg version="1.1" id="ready-mix" xmlns="http://www.w3.org/2000/svg" xmlns:xlink="http://www.w3.org/1999/xlink" x="0px" y="0px"
	 viewBox="0 0 24 24" style="enable-background:new 0 0 24 24;" xml:space="preserve">
<title>ready-mix</title>
<path d="M7.8,8.6H3.6l-2.1,5.1v5.4h2.1c0,1.4,1.2,2.6,2.6,2.6s2.6-1.2,2.6-2.6h6.3c0,1.4,1.2,2.6,2.6,2.6c1.4,0,2.6-1.2,2.6-2.6h2.1
	v-5.3H7.8V8.6z M6.2,20.6c-0.8,0-1.5-0.7-1.5-1.5c0-0.8,0.7-1.5,1.5-1.5s1.5,0.7,1.5,1.5C7.7,19.9,7,20.6,6.2,20.6
	C6.2,20.6,6.2,20.6,6.2,20.6z M17.8,20.6c-0.8,0-1.5-0.7-1.5-1.5c0-0.8,0.7-1.5,1.5-1.5c0.8,0,1.5,0.7,1.5,1.5
	C19.3,19.9,18.6,20.6,17.8,20.6L17.8,20.6z M21.4,15v3h-1.2c-0.6-1.3-2.2-1.9-3.5-1.2c-0.5,0.3-1,0.7-1.2,1.2H8.6
	c-0.6-1.3-2.2-1.9-3.5-1.2c-0.5,0.3-1,0.7-1.2,1.2H2.6v-1h0.4c0.1,0,0.3,0,0.4-0.1l0.1-0.1c0.1-0.1,0.1-0.2,0.1-0.3l0,0
	c0-0.3-0.2-0.6-0.5-0.6c0,0,0,0,0,0H2.6v-1.1h1.5c0.3,0,0.5-0.2,0.5-0.5l0,0l0,0c0-0.3-0.2-0.5-0.5-0.5c0,0,0,0,0,0H2.7l1.7-4.1h2.3
	v4.1c0,0.6,0.5,1.1,1.1,1.1H21.4z"/>
<path d="M19.4,2.3H12l-3.1,1v8.4l3.1,1.2h7.4l3.1-1.2V3.3L19.4,2.3z M18.2,3.4v8.2h-5.1V3.4H18.2z M10,10.9V4.1l2-0.7v8.2L10,10.9z
	 M21.4,10.9l-2,0.7V3.5l2,0.7V10.9z"/>
</svg>
