<svg xmlns="http://www.w3.org/2000/svg" width="24" height="24" viewBox="0 0 24 24"><g class="nc-icon-wrapper" fill="#444444"><title>0075_attachment-24</title><path d="M12.052 22.5H10.5A4.116 4.116 0 0 1 6 18V6c0-2.838 3.059-4.5 5.897-4.5h.206C14.941 1.5 18 3.162 18 6v12h-1.5V6c0-2.01-2.386-3-4.397-3h-.206C9.886 3 7.5 3.99 7.5 6v12c0 2.01.99 3 3 3h1.552a1.45 1.45 0 0 0 1.448-1.448V8.948A1.45 1.45 0 0 0 12.052 7.5h-.104A1.45 1.45 0 0 0 10.5 8.948v4.702H9V8.948A2.952 2.952 0 0 1 11.948 6h.104A2.952 2.952 0 0 1 15 8.948v10.604a2.952 2.952 0 0 1-2.948 2.948z" data-name="Layer 29"></path></g></svg>