<svg xmlns="http://www.w3.org/2000/svg" width="24" height="24" viewBox="0 0 24 24"><g class="nc-icon-wrapper" fill="#444444"><title>0082_picture-broken-24</title><path d="M7.5 9A1.5 1.5 0 1 1 9 7.5 1.5 1.5 0 0 1 7.5 9zm-3-4.5H21v6.131l1.5-.108V3H3v9.035l1.5-.108zm12.611 6.411l1.133-.906.77.77 1.979-.143-2.637-2.637-3.883 3.106zM21 15.012l-1.507.109.007 4.379h-9.375l4.942-3.953-2.639.19L7.724 19.5H3v-.54l3.495-2.796-2.638.19L3 17.04v-.624l-1.5.108V21H21zm-10.556-5.007l1.294 1.293 1.978-.142-3.16-3.161-4.654 3.723 2.638-.19zM1.5 15.02l21-1.5v-1.49l-21 1.5z" data-name="Layer 55"></path></g></svg>