<svg xmlns="http://www.w3.org/2000/svg" width="24" height="24" viewBox="0 0 24 24"><g class="nc-icon-wrapper" fill="#444444"><title>0084_history-24</title><path d="M3.587 11.078l1.53.222a7.163 7.163 0 0 0 1.968 6.039 6.852 6.852 0 0 0 9.836 0 7.24 7.24 0 0 0 0-10.064 6.848 6.848 0 0 0-9.175-.593h3.197v1.581H5.8V3h1.545v2.031a8.371 8.371 0 0 1 10.67 1.126 8.85 8.85 0 0 1 0 12.3 8.375 8.375 0 0 1-12.022 0 8.754 8.754 0 0 1-2.405-7.38zm9.158 1.576H9.638v1.582h3.107v-1.582zm1.982-2.7l-3.085 3.163 1.092 1.119 3.086-3.163z" data-name="Layer 61"></path></g></svg>