<?xml version="1.0" standalone="no"?>
<!DOCTYPE svg PUBLIC "-//W3C//DTD SVG 20010904//EN"
 "http://www.w3.org/TR/2001/REC-SVG-20010904/DTD/svg10.dtd">
<svg version="1.0" xmlns="http://www.w3.org/2000/svg"
 width="1472.000000pt" height="1472.000000pt" viewBox="0 0 1472.000000 1472.000000"
 preserveAspectRatio="xMidYMid meet">
<metadata>
Created by potrace 1.11, written by Peter Selinger 2001-2013
</metadata>
<g transform="translate(0.000000,1472.000000) scale(0.100000,-0.100000)"
fill="#000000" stroke="none">
<path d="M6985 11448 c-22 -27 -51 -62 -65 -77 -14 -15 -41 -47 -60 -71 -19
-24 -45 -55 -58 -68 -13 -14 -35 -41 -50 -60 -15 -19 -32 -40 -39 -47 -16 -17
-81 -92 -128 -149 -22 -27 -45 -54 -50 -60 -6 -6 -48 -56 -95 -111 -46 -55
-91 -108 -100 -117 -8 -9 -19 -23 -25 -30 -5 -7 -39 -47 -75 -89 -36 -42 -83
-97 -105 -124 -22 -26 -51 -59 -64 -74 -12 -14 -44 -52 -70 -83 -25 -32 -49
-58 -53 -58 -5 0 -8 -4 -8 -10 0 -5 -8 -18 -17 -28 -10 -10 -38 -42 -63 -71
-25 -29 -53 -63 -63 -75 -10 -11 -37 -43 -60 -70 -23 -27 -46 -54 -52 -60 -5
-6 -43 -51 -84 -101 -41 -49 -82 -97 -90 -105 -9 -8 -34 -38 -56 -65 -22 -27
-47 -57 -55 -65 -8 -9 -33 -38 -55 -65 -55 -66 -98 -118 -110 -131 -5 -6 -27
-30 -48 -53 -21 -22 -34 -41 -30 -41 4 0 3 -4 -3 -8 -10 -7 -46 -47 -144 -162
-25 -29 -52 -61 -60 -70 -8 -10 -33 -39 -55 -66 -22 -26 -44 -52 -50 -58 -5
-6 -32 -38 -60 -71 -27 -33 -54 -65 -60 -71 -5 -6 -26 -30 -45 -54 -19 -23
-48 -57 -65 -76 -16 -18 -35 -39 -40 -46 -17 -22 -245 -291 -279 -329 -17 -19
-47 -55 -66 -79 -19 -24 -47 -56 -62 -71 -16 -15 -28 -30 -28 -33 0 -3 -8 -14
-17 -24 -19 -19 -64 -71 -128 -148 -22 -26 -83 -98 -135 -159 -52 -62 -102
-121 -111 -131 -8 -11 -33 -40 -55 -65 -91 -106 -138 -162 -158 -187 -11 -15
-30 -36 -41 -48 -11 -11 -38 -42 -60 -69 -22 -27 -56 -67 -75 -90 -19 -22 -55
-65 -80 -94 -25 -30 -58 -69 -75 -87 -16 -18 -41 -48 -55 -65 -14 -18 -37 -45
-51 -60 -15 -15 -33 -36 -40 -47 -12 -16 -84 -102 -114 -136 -5 -6 -35 -40
-65 -76 -30 -36 -59 -70 -65 -76 -5 -7 -28 -33 -50 -60 -22 -26 -48 -56 -57
-66 -10 -10 -16 -18 -14 -18 3 0 -8 -13 -22 -28 -15 -15 -47 -52 -72 -81 -25
-30 -54 -64 -65 -77 -11 -12 -33 -39 -50 -59 -16 -21 -39 -47 -50 -60 -11 -12
-40 -46 -65 -75 -25 -29 -53 -62 -63 -74 -10 -12 -31 -36 -45 -55 -15 -19 -40
-49 -57 -67 -16 -18 -37 -42 -45 -52 -29 -37 -95 -115 -111 -131 -8 -9 -37
-43 -65 -76 -27 -33 -54 -65 -60 -71 -6 -7 -39 -47 -75 -89 -35 -42 -79 -93
-97 -111 -17 -19 -32 -37 -32 -39 0 -3 -8 -13 -17 -23 -10 -10 -38 -43 -63
-72 -90 -108 -123 -145 -131 -148 -5 -2 -9 -8 -9 -13 0 -5 -8 -17 -17 -27 -21
-22 -84 -96 -222 -260 -20 -24 -47 -56 -61 -71 -14 -16 -43 -50 -65 -77 -56
-66 -172 -203 -204 -239 -14 -16 -44 -52 -66 -80 -22 -27 -45 -54 -51 -60 -7
-5 -62 -70 -124 -144 -62 -74 -117 -140 -123 -147 -12 -12 -44 -50 -143 -169
-32 -38 -70 -82 -84 -97 -14 -15 -29 -33 -35 -40 -18 -24 -119 -143 -135 -159
-8 -9 -22 -25 -30 -35 -37 -46 -106 -130 -117 -142 -7 -7 -13 -16 -13 -20 0
-5 2951 -8 3030 -3 9 1 32 22 53 49 20 26 51 63 69 84 18 20 42 47 53 60 11
13 43 50 71 83 28 33 59 71 70 84 10 13 33 38 49 56 17 19 44 51 60 71 17 21
39 48 50 59 11 12 32 37 46 56 15 19 35 43 46 54 10 11 56 65 102 120 47 55
95 111 107 125 13 14 51 59 86 100 35 41 67 80 73 86 5 6 25 29 43 52 19 23
43 51 54 64 11 13 37 43 57 68 20 25 39 47 42 50 6 5 48 54 126 146 23 27 51
60 63 74 12 14 40 47 63 75 43 51 146 171 183 215 12 14 41 48 64 75 23 28 62
73 85 100 24 28 54 63 66 79 12 16 32 38 43 50 12 12 30 33 41 47 57 70 112
135 130 154 11 11 29 32 40 46 59 72 113 136 138 163 35 39 32 36 162 191 60
72 112 132 115 135 3 3 27 32 54 65 28 33 57 67 65 76 9 8 30 32 46 53 17 21
43 52 58 69 16 18 43 50 60 71 18 22 39 47 47 56 8 9 40 45 70 81 30 35 57 66
60 69 3 3 22 25 42 50 20 25 48 58 62 73 13 16 39 46 56 67 18 22 39 48 48 58
10 11 37 43 62 72 25 29 52 61 62 72 9 10 31 38 50 60 18 23 41 49 51 57 9 9
17 21 17 29 0 7 5 10 10 7 6 -3 10 -3 10 2 0 4 22 33 48 64 26 30 58 69 72 86
14 17 46 54 71 84 88 102 184 215 224 263 22 27 49 58 60 70 11 13 36 43 57
67 38 46 63 75 104 121 13 15 24 32 24 38 0 5 7 10 15 10 8 0 15 3 15 8 0 8
102 134 175 216 6 6 38 45 73 86 34 41 68 82 76 90 13 15 245 286 278 325 82
97 276 327 302 356 17 20 49 58 71 84 22 27 49 59 60 71 11 12 38 43 60 70 48
58 161 190 220 259 24 28 53 61 64 75 56 67 78 94 104 123 16 18 38 45 50 60
12 15 36 43 52 61 17 18 48 55 70 82 22 26 47 55 55 64 8 9 32 37 53 63 21 25
43 52 50 59 15 16 119 139 132 156 6 7 24 28 40 46 17 18 46 53 65 76 19 24
40 48 45 54 6 6 35 40 64 75 29 35 58 70 64 76 7 7 28 31 47 55 19 23 44 52
55 65 11 12 37 42 57 66 20 24 46 55 58 69 12 14 38 45 58 69 21 25 44 52 52
61 12 13 94 109 144 170 7 8 30 36 52 61 21 25 59 69 84 99 25 29 58 67 73 84
15 17 37 43 48 59 l20 27 -1528 0 -1528 -1 -40 -51z"/>
<path d="M11660 11492 c0 -4 -16 -26 -35 -48 -50 -56 -80 -91 -164 -193 -20
-24 -43 -51 -52 -60 -8 -9 -37 -43 -65 -76 -27 -33 -51 -62 -54 -65 -3 -3 -34
-39 -69 -80 -102 -121 -145 -172 -156 -184 -6 -6 -29 -34 -52 -63 -22 -29 -43
-49 -47 -46 -3 4 -6 2 -6 -4 0 -5 -8 -19 -17 -31 -10 -11 -34 -39 -52 -62 -19
-24 -40 -48 -46 -54 -6 -6 -46 -54 -89 -106 -44 -52 -84 -99 -90 -105 -6 -5
-33 -37 -60 -70 -27 -33 -54 -64 -60 -70 -6 -5 -29 -32 -51 -60 -22 -27 -49
-60 -60 -71 -11 -12 -36 -41 -55 -65 -19 -23 -47 -57 -62 -73 -25 -29 -50 -59
-152 -180 -22 -27 -48 -56 -56 -65 -8 -9 -33 -38 -55 -66 -22 -27 -47 -56 -55
-65 -8 -9 -35 -40 -60 -70 -25 -29 -49 -58 -55 -64 -9 -10 -65 -76 -130 -155
-11 -13 -30 -35 -43 -47 -13 -13 -21 -24 -19 -24 3 0 -11 -17 -30 -37 -19 -21
-44 -51 -56 -66 -12 -16 -35 -43 -52 -61 -16 -17 -46 -52 -66 -76 -20 -25 -45
-55 -55 -66 -11 -12 -37 -43 -59 -70 -22 -26 -45 -52 -50 -58 -6 -6 -46 -54
-90 -106 -43 -52 -87 -104 -97 -115 -10 -11 -27 -31 -39 -45 -11 -14 -39 -47
-62 -75 -23 -27 -49 -56 -57 -65 -8 -8 -31 -35 -50 -60 -19 -24 -44 -53 -55
-65 -11 -12 -29 -32 -40 -46 -73 -89 -176 -210 -197 -231 -10 -10 -18 -20 -18
-23 0 -3 -10 -16 -22 -29 -13 -13 -41 -45 -63 -71 -22 -27 -49 -58 -60 -71
-11 -12 -33 -38 -50 -59 -16 -20 -41 -50 -55 -65 -29 -33 -50 -58 -105 -124
-22 -26 -52 -60 -66 -76 -14 -16 -39 -45 -55 -65 -16 -21 -38 -47 -49 -59 -12
-12 -39 -44 -60 -71 -22 -27 -47 -56 -55 -65 -8 -9 -34 -39 -57 -66 -23 -27
-54 -62 -68 -79 -15 -16 -38 -45 -53 -64 -15 -19 -36 -44 -47 -56 -11 -12 -38
-43 -60 -70 -22 -27 -47 -56 -55 -65 -8 -9 -60 -70 -115 -135 -55 -66 -105
-124 -111 -130 -6 -5 -71 -82 -144 -170 -74 -88 -139 -165 -145 -171 -5 -7
-24 -29 -41 -50 -18 -22 -44 -52 -58 -67 -14 -15 -26 -32 -26 -37 0 -4 -4 -10
-8 -12 -9 -3 -60 -60 -137 -153 -42 -49 -61 -73 -98 -115 -29 -33 -179 -211
-192 -228 -5 -7 -19 -23 -30 -35 -11 -13 -44 -52 -74 -87 -30 -36 -62 -72 -70
-81 -9 -9 -27 -31 -41 -49 -14 -18 -40 -47 -57 -66 -18 -19 -33 -37 -33 -39 0
-3 -8 -13 -17 -23 -10 -10 -34 -37 -53 -61 -19 -24 -42 -51 -50 -60 -9 -9 -54
-61 -100 -116 -47 -55 -89 -105 -95 -111 -5 -6 -23 -28 -40 -48 -16 -21 -39
-47 -50 -60 -11 -12 -40 -46 -65 -76 -25 -29 -55 -64 -67 -76 -13 -13 -23 -27
-23 -33 0 -5 -4 -11 -8 -13 -4 -1 -60 -64 -122 -138 -63 -74 -117 -137 -120
-140 -3 -3 -28 -32 -55 -65 -28 -33 -54 -65 -60 -71 -5 -6 -28 -33 -50 -59
-22 -27 -45 -53 -50 -59 -11 -11 -93 -107 -172 -201 -23 -28 -53 -63 -68 -80
-14 -16 -36 -43 -48 -58 -12 -15 -35 -42 -50 -60 -16 -18 -43 -49 -60 -71 -18
-21 -45 -54 -62 -72 -16 -19 -35 -40 -40 -46 -6 -7 -27 -33 -48 -57 -20 -25
-37 -47 -37 -50 0 -3 685 -6 1522 -5 1443 1 1522 2 1534 19 7 9 26 31 41 49
15 17 70 82 122 144 52 61 99 112 104 112 6 0 8 3 4 6 -3 4 0 12 7 19 6 7 32
36 57 65 24 30 52 62 62 72 9 10 17 20 17 22 0 3 12 17 28 33 15 16 36 40 47
54 21 26 123 147 140 165 6 6 28 33 50 60 22 27 51 61 65 75 14 15 37 42 52
60 31 40 85 104 113 135 11 12 34 39 50 60 17 21 37 45 46 53 8 9 39 45 68 81
29 36 58 70 64 75 7 6 24 26 39 45 15 19 38 49 53 65 23 27 55 64 125 145 12
14 38 45 58 69 21 24 77 92 127 150 49 58 94 112 100 119 5 7 21 25 35 40 14
15 43 49 65 77 22 27 47 57 55 66 22 24 69 79 119 139 25 29 50 58 55 64 6 6
33 38 61 71 27 33 54 65 60 71 5 7 25 30 43 52 18 23 45 54 60 70 15 17 41 47
59 68 17 22 41 49 53 62 11 12 19 22 16 22 -2 0 8 12 22 28 15 15 47 52 72 81
43 52 131 156 225 266 66 77 83 97 113 133 15 18 36 43 47 56 11 12 40 46 65
76 25 29 52 60 60 70 8 10 33 39 55 66 22 26 50 59 62 71 11 13 35 41 53 63
17 21 41 49 52 62 11 13 36 43 56 67 21 24 46 53 57 66 11 12 36 41 55 65 19
24 48 57 63 74 15 16 38 43 50 58 12 16 31 39 42 52 11 12 39 44 62 72 23 27
50 59 60 70 10 12 36 43 58 69 22 26 49 58 60 71 11 12 34 40 51 61 18 21 42
50 55 64 13 14 42 47 64 75 22 27 49 59 60 72 31 35 46 53 105 122 30 36 57
67 60 70 3 3 37 43 75 90 38 47 81 97 95 111 14 15 39 44 57 65 17 22 39 49
50 60 10 12 30 37 45 56 16 19 43 51 60 70 18 20 40 44 48 54 53 65 168 201
181 214 8 8 32 35 51 60 20 25 49 59 64 77 16 17 40 46 54 64 14 17 32 39 40
48 9 9 40 45 70 81 29 36 60 72 69 80 9 8 34 38 55 65 22 28 44 55 50 60 6 6
29 32 51 60 22 27 56 68 76 90 20 22 50 56 65 75 25 31 167 199 228 270 73 85
193 228 206 243 8 11 20 25 27 31 6 7 35 42 64 77 28 35 61 74 73 85 12 12 35
39 53 60 17 22 39 49 50 60 10 12 36 43 58 70 22 26 45 52 50 58 6 6 25 29 43
51 118 142 247 290 254 293 5 2 8 7 8 12 0 5 16 26 36 47 20 21 48 54 63 73
14 19 37 47 51 61 14 15 41 46 59 69 19 23 40 48 46 54 6 6 58 67 115 136 58
69 110 130 115 135 6 6 21 22 34 38 l24 27 -1531 0 c-843 0 -1532 -4 -1532 -8z"/>
</g>
</svg>
