<?xml version="1.0" standalone="no"?>
<!DOCTYPE svg PUBLIC "-//W3C//DTD SVG 1.1//EN" "http://www.w3.org/Graphics/SVG/1.1/DTD/svg11.dtd" >
<svg xmlns="http://www.w3.org/2000/svg">
<metadata>Generated by IcoMoon</metadata>
<defs>
<font id="icomoon" horiz-adv-x="1024">
<font-face units-per-em="1024" ascent="960" descent="-64" />
<missing-glyph horiz-adv-x="1024" />
<glyph unicode="&#x20;" horiz-adv-x="512" d="" />
<glyph unicode="&#xe900;" glyph-name="icon-control-center" d="M925.867 482.133l-46.933-46.933-366.933-371.2-285.867 285.867 106.667 106.667c-4.267-98.133 68.267-183.467 170.667-192 51.2-4.267 98.133 17.067 136.533 51.2v0l226.133 226.133-354.133 354.133-448-448 34.133-34.133 46.933 46.933 366.933 371.2 290.133-290.133-106.667-106.667c8.533 98.133-68.267 187.733-170.667 192-51.2 4.267-102.4-12.8-140.8-51.2l-226.133-226.133 354.133-349.867 448 448-34.133 34.133zM418.133 541.867c51.2 51.2 140.8 51.2 192 0s51.2-140.8 0-192-140.8-51.2-192 0c0 0 0 0 0 0-55.467 55.467-55.467 140.8 0 192z" />
<glyph unicode="&#xe901;" glyph-name="icon-user-profile" d="M388.267 358.4l-162.133-76.8c-42.667-17.067-68.267-55.467-72.533-98.133v-136.533h716.8v136.533c-4.267 42.667-29.867 81.067-72.533 98.133l-98.133 42.667 29.867 34.133 85.333-38.4c59.733-21.333 98.133-76.8 98.133-140.8v-183.467h-802.133v183.467c0 64 42.667 115.2 98.133 140.8l170.667 81.067h132.267c123.733 0 226.133 98.133 226.133 221.867s-102.4 226.133-226.133 226.133c-123.733 0-226.133-98.133-226.133-221.867 0-55.467 21.333-106.667 55.467-149.333l-29.867-34.133c-98.133 110.933-89.6 281.6 17.067 379.733s277.333 93.867 379.733-17.067 93.867-277.333-17.067-379.733c-51.2-46.933-115.2-72.533-183.467-72.533h-119.467z" />
<glyph unicode="&#xe902;" glyph-name="icon-scheduler" d="M192 384l413.867 413.867 354.133-354.133-448-443.733-448 448 93.867 93.867-29.867 34.133 34.133 34.133 29.867-34.133 192 192-34.133 34.133 34.133 29.867 34.133-34.133 93.867 98.133 34.133-34.133-93.867-93.867 34.133-34.133-38.4-29.867-29.867 29.867-192-192 29.867-29.867-34.133-34.133-34.133 34.133-59.733-64 64-64zM605.867 733.867l-384-384 290.133-285.867 384 384-290.133 285.867zM320 320l119.467 119.467 34.133-34.133-119.467-119.467-34.133 34.133zM482.133 354.133l119.467 119.467 34.133-34.133-119.467-119.467-34.133 34.133zM648.533 392.533l119.467 119.467 34.133-34.133-119.467-119.467-34.133 34.133z" />
<glyph unicode="&#xe903;" glyph-name="icon-track" d="M482.133 384c-98.133 12.8-166.4 106.667-149.333 204.8s106.667 166.4 209.067 153.6 166.4-106.667 153.6-209.067c-8.533-55.467-42.667-102.4-89.6-132.267v55.467c55.467 51.2 59.733 136.533 12.8 192s-136.533 59.733-192 12.8-59.733-136.533-12.8-192c21.333-25.6 55.467-42.667 89.6-46.933h29.867v-409.6l-21.333-12.8-34.133 34.133c-183.467 187.733-285.867 349.867-298.667 486.4-21.333 187.733 110.933 354.133 298.667 375.467 12.8 0 25.6 4.267 38.4 4.267 183.467 0 337.067-145.067 337.067-332.8 0-17.067 0-34.133-4.267-46.933-4.267-21.333-8.533-38.4-12.8-59.733h-46.933c8.533 21.333 12.8 42.667 17.067 64 21.333 157.867-89.6 302.933-247.467 324.267-12.8 0-25.6 4.267-38.4 4.267-162.133 0-290.133-132.267-290.133-294.4 0-12.8 0-21.333 0-34.133 12.8-115.2 102.4-260.267 260.267-426.667l-8.533 285.867z" />
<glyph unicode="&#xe904;" glyph-name="icon-driver" d="M738.133 384l-251.733 251.733-85.333-170.667 166.4-166.4 170.667 85.333zM529.067 657.067l234.667-234.667 119.467 196.267-157.867 157.867-196.267-119.467zM520.533 281.6l-170.667 170.667 106.667 213.333 273.067 170.667 209.067-209.067-170.667-273.067-132.267-64h315.733v-42.667h-618.667v42.667l187.733-8.533zM106.667 196.267h853.333v-42.667h-896v179.2h42.667v-136.533zM64 422.4l106.667 221.867h162.133v-311.467h-268.8v89.6zM200.533 597.333l-89.6-187.733v-38.4h179.2v226.133h-89.6zM106.667 149.333h179.2c0-51.2-38.4-89.6-89.6-89.6s-89.6 42.667-89.6 89.6zM243.2 149.333h-89.6c0-25.6 21.333-42.667 46.933-42.667s42.667 17.067 42.667 42.667zM422.4 149.333h179.2c0-51.2-38.4-89.6-89.6-89.6s-89.6 42.667-89.6 89.6zM558.933 149.333h-89.6c0-25.6 21.333-42.667 46.933-42.667s42.667 17.067 42.667 42.667zM733.867 149.333h179.2c0-51.2-38.4-89.6-89.6-89.6s-89.6 42.667-89.6 89.6zM870.4 149.333h-89.6c0-25.6 21.333-42.667 46.933-42.667s42.667 17.067 42.667 42.667z" />
<glyph unicode="&#xe905;" glyph-name="icon-pricing" d="M793.6 294.4l68.267-68.267-29.867-29.867-98.133 98.133 166.4 166.4-209.067 209.067-354.133-354.133-119.467 119.467 354.133 354.133-46.933 42.667-166.4-166.4-98.133 98.133 29.867 29.867 68.267-68.267 166.4 166.4 110.933-102.4-354.133-354.133 55.467-55.467 354.133 354.133 273.067-273.067-170.667-166.4zM665.6 166.4l-166.4-166.4-110.933 106.667 354.133 354.133-55.467 55.467-354.133-354.133-273.067 273.067 166.4 166.4-64 68.267 29.867 29.867 98.133-98.133-162.133-166.4 209.067-209.067 354.133 354.133 119.467-119.467-358.4-354.133 46.933-46.933 166.4 166.4 98.133-98.133-29.867-29.867-68.267 68.267z" />
<glyph unicode="&#xe906;" glyph-name="icon-payment" d="M64 145.067l149.333 68.267 294.4-162.133 384 213.333-25.6 34.133-217.6-115.2h-200.533v46.933h166.4v42.667h-179.2l-162.133 85.333-209.067-123.733v51.2l209.067 119.467 174.933-93.867h213.333v-72.533l217.6 119.467 76.8-106.667-452.267-251.733-298.667 162.133-149.333-68.267v51.2zM413.867 704l-93.867-93.867 221.867-221.867 93.867 93.867-29.867 29.867-64-64-29.867 34.133 128 128-34.133 34.133-128-128-93.867 93.867 64 64-34.133 29.867zM448 738.133l29.867-29.867 64 64 34.133-34.133-128-128 29.867-34.133 128 128 93.867-93.867-59.733-64 29.867-29.867 93.867 93.867-221.867 221.867-93.867-93.867zM256 610.133l285.867 285.867 285.867-285.867-285.867-285.867-285.867 285.867z" />
<glyph unicode="&#xe907;" glyph-name="icon-ordering" d="M622.933 750.933l17.067 17.067 320-320-448-448-448 448 448 448 34.133-34.133-46.933-46.933-371.2-366.933 384-384 384 384-256 256-256-256-34.133 34.133 273.067 268.8zM256 384l64 64 34.133-34.133-64-64-34.133 34.133zM448 384l221.867 221.867 34.133-29.867-221.867-221.867-34.133 29.867zM349.867 285.867l64 64 34.133-34.133-64-59.733-34.133 29.867zM541.867 285.867l226.133 221.867 34.133-34.133-221.867-221.867-38.4 34.133zM448 192l64 64 34.133-34.133-64-64-34.133 34.133z" />
<glyph unicode="&#xe908;" glyph-name="icon-accepted-ok" d="M512 896c-247.424 0-448-200.576-448-448s200.576-448 448-448c247.424 0 448 200.576 448 448v0c0 247.424-200.576 448-448 448v0zM541.099 314.624l-90.453-90.539-0.171 0.171-0.171-0.171-90.496 90.539 0.128 0.128-133.205 133.248 90.453 90.496 133.333-133.163 256.299 256.299 90.539-90.496-256.341-256.341z" />
<glyph unicode="&#xe909;" glyph-name="icon-error" d="M512 896c-247.424 0-448-200.576-448-448s200.576-448 448-448c247.424 0 448 200.576 448 448v0c0 247.424-200.576 448-448 448v0zM738.261 312.235l-90.496-90.496-135.765 135.765-135.765-135.765-90.496 90.496 135.765 135.765-135.765 135.765 90.496 90.496 135.765-135.765 135.765 135.765 90.496-90.496-135.765-135.765z" />
<glyph unicode="&#xe90a;" glyph-name="icon-warning-repeat" d="M512 0c-247.424 0-448 200.576-448 448s200.576 448 448 448c247.424 0 448-200.576 448-448v0c0-247.424-200.576-448-448-448v0zM576 704h-128v-128h128zM576 512h-128v-320h128z" />
<glyph unicode="&#xe90b;" glyph-name="icon-warning" d="M512 896c-247.467 0-448-200.533-448-448s200.533-448 448-448 448 200.533 448 448-200.533 448-448 448zM576 192h-128v128h128v-128zM576 384h-128v320h128v-320z" />
<glyph unicode="&#xe90c;" glyph-name="icon-expand-control" d="M384 0h-320v320l128-128 192 192 64-64-192-192zM704 896h-64l128-128-192-192 64-64 192 192 128-128v320z" />
<glyph unicode="&#xe90d;" glyph-name="icon-questionmark" d="M576 64c0-35.511-28.654-64.299-64-64.299s-64 28.787-64 64.299c0 35.511 28.654 64.299 64 64.299s64-28.787 64-64.299zM512 896c-0.219 0.001-0.478 0.001-0.737 0.001-120.483 0-222.235-80.197-254.786-190.121l-0.477-1.88h128c24.878 38.975 67.902 64.449 116.874 64.449 3.916 0 7.794-0.163 11.627-0.482l-0.502 0.034c70.692 0 128-57.308 128-128s-57.308-128-128-128v0h-64v-320h128v200.064c111.421 29.348 192.253 129.203 192.253 247.936 0 141.385-114.615 256-256 256-0.089 0-0.178 0-0.267 0h0.014z" />
<glyph unicode="&#xe90e;" glyph-name="icon-calendar" d="M64 896v-896h896v896zM896 64h-768v768h768zM896 640.725h-768v64h768zM384 512v-320.725h-64v320.725zM384 512v-64h-128v64zM576 512v-320.725h-64v320.725zM768 448h-256v64h256zM768 192h-256v64h256zM768 512v-320.725h-64v320.725z" />
<glyph unicode="&#xe90f;" glyph-name="icon-clock" d="M512 896c-247.424 0-448-200.576-448-448s200.576-448 448-448c247.424 0 448 200.576 448 448v0c0 247.424-200.576 448-448 448v0zM512 64c-212.077 0-384 171.923-384 384s171.923 384 384 384c212.077 0 384-171.923 384-384v0c0-212.077-171.923-384-384-384v0zM540.672 448h227.328v-64h-256v2.133l-254.635 254.72 45.227 45.227z" />
<glyph unicode="&#xe910;" glyph-name="icon-checkbox-active" d="M538.709 322.944l-89.6-88.277-0.128 0.128-0.171-0.128-214.059 214.699 88.192 88.619 126.037-126.635 251.861 249.984 88.576-88.277-250.837-249.984zM64 896v-896h896v896zM896 64h-768v768h768z" />
<glyph unicode="&#xe911;" glyph-name="icon-checkbox-static" d="M64 896v-896h896v896zM896 64h-768v768h768z" />
<glyph unicode="&#xe912;" glyph-name="icon-radio-active" d="M512 896c-247.424 0-448-200.576-448-448s200.576-448 448-448c247.424 0 448 200.576 448 448v0c0 247.424-200.576 448-448 448v0zM512 64c-212.077 0-384 171.923-384 384s171.923 384 384 384c212.077 0 384-171.923 384-384v0c-0.243-211.98-172.021-383.758-383.977-384h-0.023zM736 448c0-123.712-100.288-224-224-224s-224 100.288-224 224c0 123.712 100.288 224 224 224v0c123.712 0 224-100.288 224-224v0z" />
<glyph unicode="&#xe913;" glyph-name="icon-radio-static" d="M512 896c-247.424 0-448-200.576-448-448s200.576-448 448-448c247.424 0 448 200.576 448 448v0c0 247.424-200.576 448-448 448v0zM512 64c-212.077 0-384 171.923-384 384s171.923 384 384 384c212.077 0 384-171.923 384-384v0c-0.243-211.98-172.021-383.758-383.977-384h-0.023z" />
<glyph unicode="&#xe914;" glyph-name="icon-close" d="M832 722.304l-274.304-274.304 274.304-274.304-45.696-45.696-274.304 274.304-274.304-274.304-45.696 45.696 274.304 274.304-274.304 274.304 45.696 45.696 274.304-274.304 274.304 274.304z" />
<glyph unicode="&#xe915;" glyph-name="icon-plus" d="M960 512h-384v384h-128v-384h-384v-128h384v-384h128v384h384v128z" />
<glyph unicode="&#xe916;" glyph-name="icon-minus" d="M960 384h-896v128h896z" />
<glyph unicode="&#xe917;" glyph-name="icon-collapse" d="M768 384h-512v128h512zM960 896v-896h-896v896zM896 832h-768v-768h768z" />
<glyph unicode="&#xe918;" glyph-name="icon-expand" d="M64 896v-896h896v896zM896 64h-768v768h768zM448 192v512h128v-512zM768 384h-512v128h512z" />
<glyph unicode="&#xe919;" glyph-name="icon-expand-move" d="M384 0h-320v320l128-128 128 128 64-64-128-128zM960 320l-128-128-128 128-64-64 128-128-128-128h320v320zM704 896h-64l128-128-128-128 64-64 128 128 128-128v320zM384 896h-320v-320l128 128 128-128 64 64-128 128z" />
<glyph unicode="&#xe91a;" glyph-name="icon-contract-move" d="M64 320h320v-320l-128 128-128-128-64 64 128 128zM640 0l128 128 128-128 64 64-128 128 128 128h-320v-320zM896 576h64l-128 128 128 128-64 64-128-128-128 128v-320zM64 576h320v320l-128-128-128 128-64-64 128-128z" />
<glyph unicode="&#xe91b;" glyph-name="icon-map-pin" d="M832 576c-0.008 176.725-143.274 319.986-320 319.986-176.731 0-320-143.269-320-320 0-72.451 24.077-139.278 64.667-192.916l-0.582 0.803 255.915-383.872 256.981 385.28c39.353 52.399 63.019 118.538 63.019 190.205 0 0.181 0 0.362 0 0.543v-0.028zM512 704c70.692 0 128-57.308 128-128s-57.308-128-128-128c-70.692 0-128 57.308-128 128v0c0 70.692 57.308 128 128 128v0z" />
<glyph unicode="&#xe91c;" glyph-name="icon-up-double" d="M512 832l448-384-64-64-384 320-384-320-64 64zM64 128l64-64 384 320 384-320 64 64-448 384z" />
<glyph unicode="&#xe91d;" glyph-name="icon-down-double" d="M64 455.296l64 64 384-320 384 320 64-64-448-384zM512 391.296l448 384-64 64-384-320-384 320-64-64z" />
<glyph unicode="&#xe91e;" glyph-name="icon-left-double" d="M512 896l64-64-320-384 320-384-64-64-384 448zM448 448l384-448 64 64-320 384 320 384-64 64z" />
<glyph unicode="&#xe91f;" glyph-name="icon-right-double" d="M896 448l-384-448-64 64 320 384-320 384 64 64zM192 896l-64-64 320-384-320-384 64-64 384 448z" />
<glyph unicode="&#xe920;" glyph-name="icon-up-single" d="M512 704l426.667-365.696-60.971-60.971-365.696 304.768-365.696-304.768-60.971 60.971z" />
<glyph unicode="&#xe921;" glyph-name="icon-down-single" d="M85.333 565.035l60.971 60.928 365.696-304.768 365.653 304.725 60.971-60.928-426.667-365.739-213.333 182.869z" />
<glyph unicode="&#xe922;" glyph-name="icon-left-single" d="M621.696 874.667l60.971-60.971-304.768-365.696 304.768-365.696-60.971-60.971-365.696 426.667 365.696 426.667z" />
<glyph unicode="&#xe923;" glyph-name="icon-right-single" d="M402.304 874.667l-60.971-60.971 304.768-365.696-304.768-365.696 60.971-60.971 365.696 426.667-365.696 426.667z" />
<glyph unicode="&#xe924;" glyph-name="icon-straight-arrow-up" d="M512 704l448-384-128-128-320 256-320-256-128 128z" />
<glyph unicode="&#xe925;" glyph-name="icon-straight-arrow-down" d="M64 576l128 128 320-256 320 256 128-128-448-384z" />
<glyph unicode="&#xe926;" glyph-name="icon-straight-arrow-left" d="M640 896l128-128-256-320 256-320-128-128-384 448z" />
<glyph unicode="&#xe927;" glyph-name="icon-straight-arrow-right" d="M768 448l-384-448-128 128 256 320-256 320 128 128z" />
<glyph unicode="&#xe928;" glyph-name="icon-download-export" d="M960 85.333v-64h-896v64zM896 470.955l-64 64.299-256-205.824v459.904h-128v-459.904l-256 205.824-64-64.299 384-321.621z" />
<glyph unicode="&#xe929;" glyph-name="icon-magnifier-glass" d="M960 64l-64-64-256 256 64 64zM832 512c0-212.077-171.923-384-384-384s-384 171.923-384 384c0 212.077 171.923 384 384 384v0c212.077 0 384-171.923 384-384v0zM768 512c0 176.731-143.269 320-320 320s-320-143.269-320-320c0-176.731 143.269-320 320-320v0c176.731 0 320 143.269 320 320v0z" />
<glyph unicode="&#xe92a;" glyph-name="icon-settings" d="M836.267 623.616l-14.507 25.856-4.395 149.76-162.731 96.768-128.128-70.955h-29.013l-128.128 70.955-162.731-96.768-4.395-149.76-14.507-25.856-123.733-78.848v-193.536l123.733-78.848 14.507-25.856 4.395-149.76 162.731-96.768 128.128 70.955h29.013l128.128-70.955 162.731 96.768 4.395 149.76 14.507 25.856 123.733 78.848v193.536zM896 395.947l-108.459-65.493-38.955-69.461-0.811-129.493-87.552-52.053-109.312 64h-77.824l-109.312-64-87.552 52.053-0.853 129.493-38.912 69.461-108.459 65.493v104.107l108.459 65.493 38.955 69.461 0.811 129.493 87.552 52.053 109.312-64h77.824l109.312 64 87.552-52.053 0.853-129.493 38.912-69.461 108.459-65.493zM512 640c-106.039 0-192-85.961-192-192s85.961-192 192-192c106.039 0 192 85.961 192 192v0c0 106.039-85.961 192-192 192v0zM512 320c-70.692 0-128 57.308-128 128s57.308 128 128 128c70.692 0 128-57.308 128-128v0c-0.073-70.663-57.337-127.927-127.993-128h-0.007z" />
<glyph unicode="&#xe92b;" glyph-name="icon-up-rounded-full" d="M512 0c-247.424 0-448 200.576-448 448s200.576 448 448 448c247.424 0 448-200.576 448-448v0c0-247.424-200.576-448-448-448v0zM512 640l-320-256 64-64 256 192 256-192 64 64z" />
<glyph unicode="&#xe92c;" glyph-name="icon-up-rounded" d="M512 640l320-256-64-64-256 192-256-192-64 64zM512 832c-212.077 0-384-171.923-384-384s171.923-384 384-384c212.077 0 384 171.923 384 384v0c-0.243 211.98-172.021 383.758-383.977 384h-0.023zM960 448c0-247.424-200.576-448-448-448s-448 200.576-448 448c0 247.424 200.576 448 448 448v0c247.424 0 448-200.576 448-448v0z" />
<glyph unicode="&#xe92d;" glyph-name="icon-down-rounded-full" d="M512 896c-247.424 0-448-200.576-448-448s200.576-448 448-448c247.424 0 448 200.576 448 448v0c0 247.424-200.576 448-448 448v0zM512 256l-320 256 64 64 256-192 256 192 64-64z" />
<glyph unicode="&#xe92e;" glyph-name="icon-down-rounded" d="M192 512l64 64 256-192 256 192 64-64-320-256zM512 832c-212.077 0-384-171.923-384-384s171.923-384 384-384c212.077 0 384 171.923 384 384v0c-0.243 211.98-172.021 383.758-383.977 384h-0.023zM960 448c0-247.424-200.576-448-448-448s-448 200.576-448 448c0 247.424 200.576 448 448 448v0c247.424 0 448-200.576 448-448v0z" />
<glyph unicode="&#xe92f;" glyph-name="icon-left-rounded-full" d="M960 448c0 247.424-200.576 448-448 448s-448-200.576-448-448c0-247.424 200.576-448 448-448v0c247.424 0 448 200.576 448 448v0zM320 448l256 320 64-64-192-256 192-256-64-64z" />
<glyph unicode="&#xe930;" glyph-name="icon-left-rounded" d="M576 768l64-64-192-256 192-256-64-64-256 320zM512 832c-212.077 0-384-171.923-384-384s171.923-384 384-384c212.077 0 384 171.923 384 384v0c-0.243 211.98-172.021 383.758-383.977 384h-0.023zM960 448c0-247.424-200.576-448-448-448s-448 200.576-448 448c0 247.424 200.576 448 448 448v0c247.424 0 448-200.576 448-448v0z" />
<glyph unicode="&#xe931;" glyph-name="icon-right-rounded-full" d="M64 448c0 247.424 200.576 448 448 448s448-200.576 448-448c0-247.424-200.576-448-448-448v0c-247.424 0-448 200.576-448 448v0zM704 448l-256 320-64-64 192-256-192-256 64-64z" />
<glyph unicode="&#xe932;" glyph-name="icon-right-rounded" d="M704 448l-256-320-64 64 192 256-192 256 64 64zM512 832c-212.077 0-384-171.923-384-384s171.923-384 384-384c212.077 0 384 171.923 384 384v0c-0.243 211.98-172.021 383.758-383.977 384h-0.023zM960 448c0-247.424-200.576-448-448-448s-448 200.576-448 448c0 247.424 200.576 448 448 448v0c247.424 0 448-200.576 448-448v0z" />
<glyph unicode="&#xe933;" glyph-name="icon-round-minus-full" d="M512 896c-247.424 0-448-200.576-448-448s200.576-448 448-448c247.424 0 448 200.576 448 448v0c0 247.424-200.576 448-448 448v0zM768 384h-512v128h512z" />
<glyph unicode="&#xe934;" glyph-name="icon-round-minus" d="M512 896c-247.424 0-448-200.576-448-448s200.576-448 448-448c247.424 0 448 200.576 448 448v0c0 247.424-200.576 448-448 448v0zM512 64c-212.077 0-384 171.923-384 384s171.923 384 384 384c212.077 0 384-171.923 384-384v0c-0.243-211.98-172.021-383.758-383.977-384h-0.023zM256 512h512v-128h-512z" />
<glyph unicode="&#xe935;" glyph-name="icon-round-plus-full" d="M512 896c-247.424 0-448-200.576-448-448s200.576-448 448-448c247.424 0 448 200.576 448 448v0c0 247.424-200.576 448-448 448v0zM768 384h-192v-192h-128v192h-192v128h192v192h128v-192h192z" />
<glyph unicode="&#xe936;" glyph-name="icon-round-plus" d="M512 832c212.077 0 384-171.923 384-384s-171.923-384-384-384c-212.077 0-384 171.923-384 384v0c0.243 211.98 172.021 383.758 383.977 384h0.023zM512 896c-247.424 0-448-200.576-448-448s200.576-448 448-448c247.424 0 448 200.576 448 448v0c0 247.424-200.576 448-448 448v0zM576 704h-128v-512h128zM768 384v128h-512v-128z" />
<glyph unicode="&#xe937;" glyph-name="icon-repeat" d="M853.333 401.92c0.010-0.985 0.016-2.149 0.016-3.315 0-188.513-152.82-341.333-341.333-341.333s-341.333 152.82-341.333 341.333c0 163.852 115.452 300.739 269.445 333.75l2.24 0.402-56.363 55.808 43.861 43.435 146.133-144.64-146.091-144.555-43.904 43.435 90.795 89.899c-135.661-19.242-238.848-134.599-238.848-274.056 0-152.79 123.861-276.651 276.651-276.651 152.733 0 276.558 123.768 276.651 276.479v0.009c0.001 0.202 0.001 0.441 0.001 0.68 0 90.177-43.643 170.16-110.96 219.98l-0.742 0.525 37.291 49.152c83.164-61.53 136.492-159.273 136.492-269.472 0-0.304 0-0.608-0.001-0.912v0.047z" />
<glyph unicode="&#xe938;" glyph-name="icon-trash" d="M640 192h-64v384h64zM448 576h-64v-384h64zM896 704h-64l-64-704h-512l-64 704h-64v64h192v128h384v-128h192zM384 768h256v64h-256zM768 704h-512l61.312-636.885h389.376z" />
<glyph unicode="&#xe939;" glyph-name="icon-favourite" d="M512 670.976l54.4-162.901h200.747l-165.973-142.123 13.824-44.757 39.936-129.152-142.933 109.184-142.933-109.184 53.76 173.909-35.584 30.421-130.389 111.701h200.747l54.4 162.901zM512 896l-105.771-316.629h-342.229l276.907-237.141-105.813-342.229 276.907 211.499 276.907-211.499-105.813 342.229 276.907 237.184h-342.229z" />
<glyph unicode="&#xe93a;" glyph-name="icon-favourite-active" d="M512 896l105.771-316.629h342.229l-276.907-237.141 105.813-342.229-276.907 211.499-276.907-211.499 105.813 342.229-276.907 237.184h342.229z" />
<glyph unicode="&#xe93b;" glyph-name="icon-logo-face" d="M640 704h-192l-384-512h190.251l385.749 512zM960 704h-192l-384-512h190.251l385.749 512z" />
<glyph unicode="&#xe93c;" glyph-name="icon-check" d="M404.907 170.667l-276.907 213.973 136.533 136.363 143.061-146.091 348.032 350.421 140.373-134.272z" />
<glyph unicode="&#xe93d;" glyph-name="icon-brakets" d="M192 768v-640h192v-128h-320v896h320v-128zM832 896h-192v-128h192v-640h-192v-128h320v896z" />
<glyph unicode="&#xe93e;" glyph-name="icon-picture" d="M896 704v-512h-768v512h768zM960 768h-896v-640h896v640zM445.611 469.12l107.776-107.733 45.227 45.227-148.224 148.267-382.379-305.92 39.979-49.92zM774.912 469.12l137.6-137.6 45.227 45.227-178.091 178.133-457.387-365.952 39.936-49.963zM256 640c-35.346 0-64-28.654-64-64s28.654-64 64-64c35.346 0 64 28.654 64 64v0c0 35.346-28.654 64-64 64v0z" />
<glyph unicode="&#xe93f;" glyph-name="icon-language" d="M512 896h-0.299c-247.424 0-448-200.576-448-448s200.576-448 448-448v0h0.725c247.424 0 448 200.576 448 448s-200.576 448-448 448v0h-0.427zM347.093 640c36.139 118.485 102.869 191.915 164.821 192h0.341c61.867-0.213 128.512-73.643 164.693-192zM179.371 640c40.316 68.64 99.175 122.599 169.718 155.844l2.357 0.999c-30.936-44.896-55.252-97.196-70.009-153.371l-0.775-3.472zM743.339 640c-15.496 59.477-39.707 111.632-71.586 158.115l1.101-1.699c72.494-34.277 131.026-88.060 170.194-154.607l0.985-1.809zM757.333 320c6.784 38.481 10.662 82.788 10.662 128s-3.878 89.518-11.32 132.603l0.658-4.603h116.352c13.948-38.111 22.016-82.113 22.016-128s-8.067-89.889-22.861-130.666l0.845 2.666zM331.52 320c-7.338 38.485-11.535 82.752-11.535 128s4.197 89.514 12.224 132.433l-0.689-4.433h360.96c7.338-38.485 11.535-82.752 11.535-128s-4.197-89.514-12.224-132.433l0.689 4.433zM149.76 320c-13.95 38.111-22.018 82.113-22.018 128s8.068 89.889 22.864 130.665l-0.845-2.665h116.907c-6.784-38.482-10.663-82.788-10.663-128s3.879-89.518 11.321-132.604l-0.658 4.604zM672.896 99.584c30.778 44.784 54.99 96.939 69.709 152.941l0.776 3.475h100.693c-40.153-68.356-98.684-122.139-168.834-155.415l-2.345-1.001zM511.915 64c-61.952 0.085-128.683 73.515-164.821 192h329.813c-36.139-118.357-102.741-191.787-164.651-192h-0.341zM351.445 99.157c-72.901 34.244-131.759 88.203-171.090 155.033l-0.985 1.809h101.291c15.531-59.645 39.848-111.946 71.879-158.528l-1.095 1.685z" />
<glyph unicode="&#xe940;" glyph-name="icon-document" d="M640 896h-512v-896h768v640l-256 256zM192 64v768h384v-256h256v-512zM640 640v165.504l165.504-165.504zM512 704h-192v-64h192v64zM704 512h-384v-64h384v64zM704 320h-384v-64h384v64z" />
<glyph unicode="&#xe941;" glyph-name="icon-logout" d="M960 832v-768h-704v128h576v512h-576v128zM256 384h384v128h-384v128l-192-192 192-192z" />
<glyph unicode="&#xe942;" glyph-name="icon-quick-view" d="M960 896v-576h-128v64h64v448h-576v-192h-64v256h704zM704 64h-576v448h256v64h-320v-576h704v384h-64zM512 704l96-96-160-160 64-64 160 160 96-96v256h-256z" />
<glyph unicode="&#xe943;" glyph-name="icon-burger-menu" d="M960 832h-896v-128h896v128zM960 512h-896v-128h896v128zM960 192h-896v-128h896v128z" />
<glyph unicode="&#xe944;" glyph-name="icon-bulk-cement" d="M955.733 106.667l-277.333 435.2c-21.333 34.133-55.467 51.2-93.867 51.2l-72.533 166.4c-25.6 55.467-89.6 81.067-145.067 55.467-29.867-12.8-51.2-34.133-64-64l-238.933-601.6c-4.267-12.8 0-25.6 12.8-29.867 4.267 0 4.267 0 8.533 0h166.4l-8.533-12.8c-4.267-8.533-4.267-25.6 8.533-29.867 4.267 0 8.533-4.267 8.533-4.267h678.4c12.8 0 21.333 8.533 21.333 21.333 0 4.267 0 8.533-4.267 12.8v0zM183.467 162.133c12.8 0 21.333 12.8 21.333 21.333 0 12.8-8.533 21.333-21.333 21.333s-21.333-8.533-21.333-21.333c0-12.8 8.533-21.333 21.333-21.333h-64l226.133 576c12.8 34.133 51.2 51.2 85.333 38.4 17.067-4.267 29.867-17.067 38.4-34.133l68.267-157.867c-21.333-8.533-38.4-25.6-51.2-46.933l-68.267-115.2c-4.267 8.533-12.8 12.8-17.067 12.8-12.8 0-21.333-8.533-21.333-21.333s8.533-21.333 21.333-21.333l-51.2-89.6c-8.533-4.267-17.067-12.8-17.067-21.333 0 0 0-4.267 0-4.267l-12.8-21.333c-4.267 0-8.533 4.267-12.8 4.267-12.8 0-21.333-8.533-21.333-21.333 0-8.533 4.267-12.8 12.8-17.067l-8.533-29.867c-4.267 8.533-12.8 17.067-21.333 17.067-12.8 0-21.333-8.533-21.333-21.333s8.533-21.333 21.333-21.333l-85.333-4.267zM273.067 162.133v0 0 0zM853.333 119.467c12.8 0 21.333 12.8 21.333 21.333 0 12.8-8.533 21.333-21.333 21.333s-21.333-8.533-21.333-21.333v0c0-12.8 8.533-21.333 21.333-21.333h-81.067c12.8 0 21.333 12.8 21.333 21.333 0 12.8-8.533 21.333-21.333 21.333s-21.333-8.533-21.333-21.333v0c0-12.8 8.533-21.333 21.333-21.333h-81.067c12.8 0 21.333 12.8 21.333 21.333 0 12.8-8.533 21.333-21.333 21.333s-21.333-8.533-21.333-21.333v0c0-12.8 8.533-21.333 21.333-21.333h-388.267l25.6 42.667 200.533 349.867c12.8 21.333 34.133 34.133 55.467 34.133 8.533 0 12.8 0 21.333-4.267 17.067-4.267 29.867-12.8 38.4-29.867l145.067-226.133c-4.267-4.267-4.267-8.533-4.267-12.8 0-12.8 8.533-21.333 21.333-21.333 4.267 0 4.267 0 4.267 0l85.333-132.267h-42.667zM290.133 273.067c0-11.782-9.551-21.333-21.333-21.333s-21.333 9.551-21.333 21.333c0 11.782 9.551 21.333 21.333 21.333s21.333-9.551 21.333-21.333zM337.067 320c0-11.782-9.551-21.333-21.333-21.333s-21.333 9.551-21.333 21.333c0 11.782 9.551 21.333 21.333 21.333s21.333-9.551 21.333-21.333zM379.733 362.667c0-11.782-9.551-21.333-21.333-21.333s-21.333 9.551-21.333 21.333c0 11.782 9.551 21.333 21.333 21.333s21.333-9.551 21.333-21.333zM780.8 230.4c0-11.782-9.551-21.333-21.333-21.333s-21.333 9.551-21.333 21.333c0 11.782 9.551 21.333 21.333 21.333s21.333-9.551 21.333-21.333zM247.467 230.4c0-11.782-9.551-21.333-21.333-21.333s-21.333 9.551-21.333 21.333c0 11.782 9.551 21.333 21.333 21.333s21.333-9.551 21.333-21.333zM827.733 183.467c0-11.782-9.551-21.333-21.333-21.333s-21.333 9.551-21.333 21.333c0 11.782 9.551 21.333 21.333 21.333s21.333-9.551 21.333-21.333zM738.133 183.467c0-11.782-9.551-21.333-21.333-21.333s-21.333 9.551-21.333 21.333c0 11.782 9.551 21.333 21.333 21.333s21.333-9.551 21.333-21.333z" />
<glyph unicode="&#xe945;" glyph-name="icon-multi-products" d="M520.533 456.533c0-11.782-9.551-21.333-21.333-21.333s-21.333 9.551-21.333 21.333c0 11.782 9.551 21.333 21.333 21.333s21.333-9.551 21.333-21.333zM605.867 541.867c0-11.782-9.551-21.333-21.333-21.333s-21.333 9.551-21.333 21.333c0 11.782 9.551 21.333 21.333 21.333s21.333-9.551 21.333-21.333zM439.467 375.467c0-11.782-9.551-21.333-21.333-21.333s-21.333 9.551-21.333 21.333c0 11.782 9.551 21.333 21.333 21.333s21.333-9.551 21.333-21.333zM268.8 204.8c0-11.782-9.551-21.333-21.333-21.333s-21.333 9.551-21.333 21.333c0 11.782 9.551 21.333 21.333 21.333s21.333-9.551 21.333-21.333zM354.133 290.133c0-11.782-9.551-21.333-21.333-21.333s-21.333 9.551-21.333 21.333c0 11.782 9.551 21.333 21.333 21.333s21.333-9.551 21.333-21.333zM691.2 627.2c0-11.782-9.551-21.333-21.333-21.333s-21.333 9.551-21.333 21.333c0 11.782 9.551 21.333 21.333 21.333s21.333-9.551 21.333-21.333zM776.533 708.267c0-11.782-9.551-21.333-21.333-21.333s-21.333 9.551-21.333 21.333c0 11.782 9.551 21.333 21.333 21.333s21.333-9.551 21.333-21.333zM823.467 115.2c0-11.782-9.551-21.333-21.333-21.333s-21.333 9.551-21.333 21.333c0 11.782 9.551 21.333 21.333 21.333s21.333-9.551 21.333-21.333zM934.4 742.4c-4.267 8.533-12.8 12.8-21.333 12.8h-38.4l-76.8 76.8v38.4c0 12.8-8.533 21.333-21.333 21.333-4.267 0-12.8-4.267-17.067-8.533l-686.933-682.667c-8.533-8.533-8.533-25.6 0-34.133 4.267-4.267 8.533-8.533 17.067-8.533h38.4l76.8-76.8v-38.4c0-8.533 4.267-17.067 12.8-21.333s17.067 0 25.6 4.267l686.933 691.2c8.533 8.533 8.533 17.067 4.267 25.6zM247.467 98.133c0 4.267-4.267 4.267-4.267 8.533l-89.6 89.6c-4.267 4.267-4.267 4.267-8.533 4.267l610.133 614.4c0-4.267 4.267-4.267 4.267-8.533l93.867-89.6c4.267-4.267 4.267-4.267 8.533-4.267l-614.4-614.4zM938.667 183.467c12.8 0 21.333 8.533 21.333 21.333v21.333h-320v-21.333c0-12.8 8.533-21.333 21.333-21.333s21.333-8.533 21.333-21.333v-89.6c0-12.8-8.533-21.333-21.333-21.333s-21.333-8.533-21.333-21.333v-21.333h320v12.8c0 12.8-8.533 21.333-21.333 21.333s-21.333 8.533-21.333 21.333v89.6c-4.267 17.067 8.533 29.867 21.333 29.867 0 0 0 0 0 0zM870.4 42.667h-136.533c0 0 0 136.533 0 136.533h136.533c0 4.267 0-132.267 0-136.533zM85.333 482.133c4.267 0 12.8 4.267 17.067 8.533l371.2 371.2c8.533 8.533 8.533 25.6 0 34.133s-25.6 8.533-34.133 0v0l-371.2-371.2c-8.533-8.533-8.533-25.6 0-34.133 8.533-4.267 12.8-8.533 17.067-8.533v0zM89.6 345.6c4.267 0 12.8 0 17.067 4.267l503.467 503.467c8.533 8.533 8.533 25.6 0 34.133s-25.6 8.533-34.133 0l-503.467-503.467c-8.533-8.533-8.533-21.333 0-34.133 4.267 0 8.533-4.267 17.067-4.267z" />
<glyph unicode="&#xe946;" glyph-name="icon-aggregates" d="M857.6 311.467c8.533 12.8 12.8 25.6 12.8 42.667 0 42.667-42.667 85.333-102.4 102.4 8.533 12.8 12.8 25.6 12.8 38.4 0 29.867-21.333 55.467-46.933 68.267s-55.467 21.333-85.333 21.333v0c25.6 12.8 38.4 34.133 42.667 64 0 29.867-21.333 55.467-46.933 68.267-12.8 8.533-29.867 12.8-42.667 17.067v0c-8.533 42.667-64 76.8-132.267 76.8-76.8 0-132.267-38.4-132.267-89.6 0-25.6 17.067-51.2 38.4-64-51.2-21.333-81.067-55.467-81.067-93.867 0-4.267 0-4.267 0-8.533-17.067-4.267-34.133-12.8-46.933-21.333-25.6-12.8-46.933-38.4-46.933-68.267 0-17.067 8.533-34.133 21.333-46.933-38.4-21.333-64-51.2-64-85.333 0-12.8 4.267-25.6 8.533-34.133-59.733-17.067-98.133-55.467-98.133-98.133 0-64 76.8-110.933 179.2-110.933 46.933 0 93.867 12.8 136.533 38.4 38.4-12.8 76.8-17.067 115.2-17.067s81.067 4.267 115.2 17.067c46.933-25.6 98.133-38.4 149.333-38.4 110.933 0 200.533 51.2 200.533 119.467-4.267 46.933-46.933 85.333-106.667 102.4zM827.733 354.133c0-29.867-46.933-59.733-115.2-68.267-25.6 38.4-76.8 72.533-149.333 81.067 17.067 25.6 64 51.2 128 51.2 81.067 4.267 136.533-29.867 136.533-64zM499.2 379.733c-25.6 34.133-64 55.467-106.667 64 4.267 4.267 8.533 4.267 12.8 8.533l8.533 4.267c21.333-4.267 38.4-4.267 59.733-4.267 25.6 0 46.933 4.267 72.533 8.533 12.8-4.267 21.333-8.533 29.867-17.067-25.6-12.8-46.933-34.133-59.733-64h-17.067zM733.867 494.933c0-8.533-8.533-17.067-25.6-25.6h-21.333c-25.6 0-51.2-4.267-72.533-8.533-4.267 8.533-12.8 17.067-21.333 21.333 25.6 12.8 42.667 34.133 51.2 59.733 59.733-8.533 89.6-29.867 89.6-46.933zM644.267 648.533c0-8.533-8.533-17.067-21.333-25.6v0c-42.667 34.133-98.133 55.467-153.6 51.2h-4.267c25.6 12.8 51.2 17.067 76.8 17.067 64 0 102.4-25.6 102.4-42.667zM465.067 763.733c29.867 0 59.733-8.533 81.067-25.6h-4.267c-34.133 0-68.267-8.533-98.133-21.333-12.8-8.533-25.6-17.067-38.4-29.867v0c-12.8 4.267-29.867 17.067-29.867 29.867 0 25.6 46.933 46.933 89.6 46.933zM473.6 627.2c81.067 0 136.533-34.133 136.533-68.267 0-29.867-55.467-68.267-136.533-68.267s-132.267 34.133-132.267 68.267c-4.267 34.133 51.2 68.267 132.267 68.267zM243.2 469.333c0 8.533 8.533 21.333 25.6 25.6 12.8 8.533 29.867 12.8 42.667 12.8 12.8-17.067 29.867-25.6 46.933-34.133-8.533-8.533-12.8-17.067-17.067-25.6h-8.533c-21.333 0-42.667-4.267-64-8.533-17.067 8.533-25.6 21.333-25.6 29.867zM332.8 401.067c38.4 0 76.8-8.533 106.667-29.867-85.333-12.8-149.333-51.2-166.4-98.133-46.933 12.8-72.533 38.4-72.533 59.733 0 34.133 51.2 68.267 132.267 68.267zM243.2 132.267c-81.067 0-132.267 34.133-132.267 68.267 0 25.6 34.133 51.2 85.333 64 21.333-17.067 46.933-25.6 72.533-34.133 8.533-34.133 29.867-64 64-81.067-29.867-8.533-59.733-17.067-89.6-17.067zM358.4 183.467c-29.867 17.067-46.933 38.4-46.933 59.733s17.067 42.667 46.933 59.733c42.667 21.333 89.6 29.867 132.267 29.867 46.933 0 93.867-8.533 132.267-29.867 29.867-17.067 46.933-38.4 46.933-59.733s-17.067-42.667-46.933-59.733c-42.667-21.333-89.6-29.867-132.267-29.867s-89.6 8.533-132.267 29.867v0zM759.467 132.267c-34.133 0-64 4.267-98.133 17.067 34.133 17.067 59.733 51.2 59.733 93.867v0c34.133 4.267 68.267 12.8 98.133 34.133 55.467-12.8 93.867-42.667 93.867-68.267 4.267-34.133-64-76.8-153.6-76.8z" />
<glyph unicode="&#xe947;" glyph-name="icon-bag-cement" d="M917.333 896h-605.867c-21.333 0-42.667-17.067-42.667-38.4 0 0 0 0 0 0v-42.667h-162.133c-21.333 0-42.667-17.067-42.667-42.667 0 0 0 0 0 0v0-729.6c0-21.333 17.067-42.667 42.667-42.667h610.133c21.333 0 42.667 17.067 42.667 42.667v38.4h166.4c21.333 0 42.667 17.067 42.667 38.4 0 0 0 0 0 0v0 733.867c-8.533 21.333-25.6 42.667-51.2 42.667zM708.267 46.933h-601.6v721.067h601.6v-721.067zM755.2 627.2h81.067v-277.333h-76.8l-4.267 277.333zM917.333 128h-162.133v76.8h85.333v42.667h-85.333v59.733h85.333c21.333 0 38.4 17.067 38.4 38.4 0 0 0 0 0 0v0 285.867c0 21.333-17.067 38.4-38.4 38.4h-85.333v102.4c0 21.333-17.067 42.667-42.667 42.667 0 0 0 0 0 0h-396.8v34.133h601.6v-721.067zM183.467 162.133h285.867v-42.667h-285.867v42.667zM512 162.133h123.733v-42.667h-123.733v42.667zM388.267 691.2h200.533v-42.667h-200.533v42.667zM307.2 733.867h-38.4l-42.667-81.067h42.667zM328.533 652.8l38.4 81.067h-38.4l-38.4-81.067zM183.467 226.133h136.533c55.467-25.6 119.467-25.6 174.933 0h136.533c21.333 0 38.4 17.067 38.4 38.4v285.867c0 21.333-17.067 38.4-38.4 38.4h-136.533c-51.2 29.867-119.467 29.867-174.933 0h-136.533c-21.333 0-38.4-17.067-38.4-38.4v-285.867c0-21.333 17.067-38.4 38.4-38.4 0 0 0 0 0 0v0zM192 546.133h140.8l8.533 4.267c42.667 21.333 93.867 21.333 136.533 0l8.533-4.267h140.8v-277.333h-140.8l-8.533-4.267c-42.667-21.333-93.867-21.333-136.533 0l-8.533 4.267h-140.8v277.333z" />
<glyph unicode="&#xe948;" glyph-name="icon-ready-mix" d="M332.8 593.067h-179.2l-89.6-217.6v-230.4h89.6c0-59.733 51.2-110.933 110.933-110.933s110.933 51.2 110.933 110.933h268.8c0-59.733 51.2-110.933 110.933-110.933s110.933 51.2 110.933 110.933h89.6v226.133h-622.933v221.867zM264.533 81.067c-34.133 0-64 29.867-64 64s29.867 64 64 64 64-29.867 64-64c0-34.133-29.867-64-64-64 0 0 0 0 0 0zM759.467 81.067c-34.133 0-64 29.867-64 64s29.867 64 64 64c34.133 0 64-29.867 64-64s-29.867-64-64-64v0zM913.067 320v-128h-51.2c-25.6 55.467-93.867 81.067-149.333 51.2-21.333-12.8-42.667-29.867-51.2-51.2h-294.4c-25.6 55.467-93.867 81.067-149.333 51.2-21.333-12.8-42.667-29.867-51.2-51.2h-55.467v42.667h17.067c4.267 0 12.8 0 17.067 4.267l4.267 4.267c4.267 4.267 4.267 8.533 4.267 12.8v0c0 12.8-8.533 25.6-21.333 25.6 0 0 0 0 0 0h-21.333v46.933h64c12.8 0 21.333 8.533 21.333 21.333v0 0c0 12.8-8.533 21.333-21.333 21.333 0 0 0 0 0 0h-59.733l72.533 174.933h98.133v-174.933c0-25.6 21.333-46.933 46.933-46.933h580.267zM827.733 861.867h-315.733l-132.267-42.667v-358.4l132.267-51.2h315.733l132.267 51.2v358.4l-132.267 42.667zM776.533 814.933v-349.867h-217.6v349.867h217.6zM426.667 494.933v290.133l85.333 29.867v-349.867l-85.333 29.867zM913.067 494.933l-85.333-29.867v345.6l85.333-29.867v-285.867z" />
<glyph unicode="&#xe949;" glyph-name="icon-blocked" d="M172.587 696.917l90.496 90.496 588.331-588.331-90.496-90.496zM960 448c0-247.424-200.576-448-448-448s-448 200.576-448 448c0 247.424 200.576 448 448 448v0c247.424 0 448-200.576 448-448v0zM896 448c0 212.077-171.923 384-384 384s-384-171.923-384-384c0-212.077 171.923-384 384-384v0c211.98 0.243 383.758 172.021 384 383.977v0.023z" />
<glyph unicode="&#xe94a;" glyph-name="icon-attachment" d="M514.219 0h-66.219c-5.167-0.54-11.163-0.847-17.231-0.847-96.99 0-175.616 78.626-175.616 175.616 0 6.068 0.308 12.065 0.909 17.974l-0.061-0.743v512c0 121.088 130.517 192 251.605 192h8.789c121.088 0 251.605-70.912 251.605-192v-512h-64v512c0 85.76-101.803 128-187.605 128h-8.789c-85.803 0-187.605-42.24-187.605-128v-512c0-85.76 42.24-128 128-128h66.219c34.101 0.049 61.733 27.68 61.781 61.777v452.442c-0.049 34.101-27.68 61.733-61.777 61.781h-4.442c-34.101-0.049-61.733-27.68-61.781-61.777v-200.624h-64v200.619c0.097 69.428 56.353 125.684 125.772 125.781h4.446c69.428-0.097 125.684-56.353 125.781-125.772v-452.446c-0.097-69.428-56.353-125.684-125.772-125.781h-0.009z" />
<glyph unicode="&#xe94b;" glyph-name="icon-multiple-items" d="M478.464 377.899l261.547 260.48 91.989-91.947-260.48-260.48 0.171-0.171-93.056-91.989-0.171 0.171-0.128-0.171-222.336 223.701 91.563 92.373zM960 896v-640h-128v-256h-768v640h128v256zM896 832h-640v-192h153.6v-64h-281.6v-512h640v320h64v-64h64z" />
<glyph unicode="&#xe94c;" glyph-name="icon-edit" d="M768 896l192-192-640-640-192 192zM64 0h192l-192 192z" />
<glyph unicode="&#xe94d;" glyph-name="icon-clock-fill" d="M512 896c-247.424 0-448-200.576-448-448s200.576-448 448-448c247.424 0 448 200.576 448 448v0c0 247.424-200.576 448-448 448v0zM768 384h-256v2.133l-254.635 254.72 45.227 45.227 238.123-238.080h227.285z" />
<glyph unicode="&#xe94e;" glyph-name="icon-protected" d="M768 512v143.275c-1.487 133.439-110.005 241.038-243.655 241.038-4.342 0-8.658-0.114-12.944-0.338l0.6 0.025c-3.7 0.201-8.030 0.315-12.387 0.315-133.642 0-242.151-107.606-243.612-240.902l-0.001-0.138v-143.275h-64v-512h640v512zM320 655.275c1.471 98.147 81.378 177.144 179.736 177.144 4.315 0 8.595-0.152 12.835-0.451l-0.57 0.032c3.669 0.267 7.949 0.419 12.264 0.419 98.358 0 178.265-78.998 179.734-177.006l0.002-0.138v-143.275h-384zM768 64h-512v384h512zM384 192v128h256v-128z" />
<glyph unicode="&#xe94f;" glyph-name="icon-document-broken" d="M704 896h-512v-384.469h64v320.469h383.019v-258.859h320.981v66.859l-256 256zM704 638.080v167.467l167.381-167.424zM576 704.469h-192v-64.896h192v64.853zM640 512.469h-256v-64.939h256v64.896zM960 448l-896-64v-63.531l896 64v63.531zM832 256.469h-64v-192.469h-640v128.469h-64v-192.469h768v256.469zM640 256.469h-384v-64.939h384v64.896z" />
<glyph unicode="&#xe950;" glyph-name="icon-picture-fill" d="M64 768v-640h896v640zM428.501 192h-102.4l220.331 176.299-100.821 100.821-317.611-254.080v81.92l322.389 257.92 146.347-146.347 182.912 146.347 116.352-116.352v-90.453l-121.088 121.045zM256 640c35.346 0 64-28.654 64-64s-28.654-64-64-64c-35.346 0-64 28.654-64 64v0c0 35.346 28.654 64 64 64v0z" />
<glyph unicode="&#xe951;" glyph-name="icon-picture-broken" d="M320 576c-35.346 0-64 28.654-64 64s28.654 64 64 64c35.346 0 64-28.654 64-64v0c0-35.346-28.654-64-64-64v0zM192 768h704v-261.589l64 4.608v320.981h-832v-385.493l64 4.608zM730.069 494.464l48.341 38.656 32.853-32.853 84.437 6.101-112.512 112.512-165.675-132.523zM896 319.488l-64.299-4.651 0.299-186.837h-400l210.859 168.661-112.597-8.107-200.704-160.555h-201.557v23.040l149.12 119.296-112.555-8.107-36.565-29.269v26.624l-64-4.608v-190.976h832zM445.611 533.12l55.211-55.168 84.395 6.059-134.827 134.869-198.571-158.848 112.555 8.107zM64 319.147l896 64v63.573l-896-64z" />
<glyph unicode="&#xe952;" glyph-name="icon-filter" d="M960 704h-896v128h896zM702.293 512h-638.293v-128h638.293zM384 192h-320v-128h320z" />
<glyph unicode="&#xe953;" glyph-name="icon-history" d="M153.045 487.339l65.28-9.472c-2.022-13.208-3.177-28.445-3.177-43.953 0-83.21 33.254-158.654 87.198-213.765l-0.053 0.054c53.197-54.788 127.545-88.786 209.835-88.786s156.638 33.998 209.765 88.714l0.069 0.072c53.708 55.505 86.808 131.236 86.808 214.699s-33.1 159.194-86.889 214.783l0.081-0.085c-53.165 54.749-127.465 88.723-209.701 88.723-68.975 0-132.367-23.9-182.348-63.871l0.582 0.45h136.405v-67.456h-219.435v224.555h65.92v-86.656c55.83 37.88 124.703 60.476 198.852 60.476 100.556 0 191.407-41.556 256.316-108.431l0.085-0.088c65.627-67.843 106.071-160.398 106.071-262.4s-40.444-194.557-106.171-262.504l0.1 0.104c-65.020-66.962-155.892-108.515-256.469-108.515s-191.449 41.553-256.385 108.428l-0.084 0.087c-65.857 67.286-106.495 159.484-106.495 261.173 0 18.949 1.411 37.568 4.134 55.759l-0.252-2.052zM543.787 420.096h-132.565v-67.499h132.565v67.499zM628.352 535.296l-131.627-134.955 46.592-47.744 131.669 134.955z" />
<glyph unicode="&#xe954;" glyph-name="icon-question-rounded" d="M544 256.085c-0.073-17.618-14.372-31.872-32-31.872-17.673 0-32 14.327-32 32s14.327 32 32 32v0c17.684-0.049 32-14.395 32-32.085 0-0.015 0-0.030 0-0.045v0.002zM512 672.085c-0.114 0-0.249 0.001-0.384 0.001-60.237 0-111.109-40.1-127.377-95.061l-0.239-0.939h64c12.444 19.487 33.959 32.223 58.448 32.223 1.954 0 3.889-0.081 5.802-0.24l-0.25 0.017c35.346 0 64-28.654 64-64s-28.654-64-64-64v0h-32v-160h64v100.011c55.753 14.645 96.21 64.592 96.21 123.99 0 70.692-57.308 128-128 128-0.074 0-0.148 0-0.221 0h0.011zM960 448c0-247.424-200.576-448-448-448s-448 200.576-448 448c0 247.424 200.576 448 448 448v0c247.424 0 448-200.576 448-448v0zM896 448c0 212.077-171.923 384-384 384s-384-171.923-384-384c0-212.077 171.923-384 384-384v0c211.98 0.243 383.758 172.021 384 383.977v0.023z" />
<glyph unicode="&#xe955;" glyph-name="icon-pin-error" d="M832 576c-0.008 176.725-143.274 319.986-320 319.986-176.731 0-320-143.269-320-320 0-72.451 24.077-139.278 64.667-192.916l-0.582 0.803 255.915-383.872 256.981 385.28c39.353 52.399 63.019 118.538 63.019 190.205 0 0.181 0 0.362 0 0.543v-0.028zM715.648 451.2l-90.496-90.496-113.152 113.152-113.152-113.152-90.496 90.496 113.152 113.152-113.152 113.152 90.496 90.496 113.152-113.152 113.152 113.152 90.496-90.496-113.152-113.152z" />
<glyph unicode="&#xe956;" glyph-name="icon-pin-poi" d="M832 576c-0.008 176.725-143.274 319.986-320 319.986-176.731 0-320-143.269-320-320 0-72.451 24.077-139.278 64.667-192.916l-0.582 0.803 255.915-383.872 256.981 385.28c39.353 52.399 63.019 118.538 63.019 190.205 0 0.181 0 0.362 0 0.543v-0.028zM576 320h-128v256h128zM576 640h-128v128h128z" />
<glyph unicode="&#xe957;" glyph-name="icon-pin-load" d="M832 576c-0.008 176.725-143.274 319.986-320 319.986-176.731 0-320-143.269-320-320 0-72.451 24.077-139.278 64.667-192.916l-0.582 0.803 255.915-383.872 256.981 385.28c39.353 52.399 63.019 118.538 63.019 190.205 0 0.181 0 0.362 0 0.543v-0.028zM672 512l-96 76.8v-268.8h-128v268.8l-96-76.8-64 64 224 192 224-192z" />
<glyph unicode="&#xe958;" glyph-name="icon-pin-load-3rdparty" d="M832 576c-0.008 176.725-143.274 319.986-320 319.986-176.731 0-320-143.269-320-320 0-72.451 24.077-139.278 64.667-192.916l-0.582 0.803 255.915-383.872 256.981 385.28c39.353 52.399 63.019 118.538 63.019 190.205 0 0.181 0 0.362 0 0.543v-0.028zM672 512l-96 76.8v-140.8h-128v140.8l-96-76.8-64 64 224 192 224-192zM576 256h-128v128h128z" />
<glyph unicode="&#xe959;" glyph-name="icon-pin-unload" d="M832 576c-0.008 176.725-143.274 319.986-320 319.986-176.731 0-320-143.269-320-320 0-72.451 24.077-139.278 64.667-192.916l-0.582 0.803 255.915-383.872 256.981 385.28c39.353 52.399 63.019 118.538 63.019 190.205 0 0.181 0 0.362 0 0.543v-0.028zM512 320l-224 192 64 64 96-76.8v268.8h128v-268.8l96 76.8 64-64z" />
<glyph unicode="&#xe95a;" glyph-name="icon-phone" d="M960 256v-256c-530.176 0-896 365.824-896 896h256l64-320-105.259-64c66.263-128.727 168.532-230.997 293.475-295.483l3.784-1.775 64 105.259z" />
<glyph unicode="&#xe95b;" glyph-name="icon-share" d="M960 128c0-0.031 0-0.069 0-0.106 0-70.692-57.308-128-128-128s-128 57.308-128 128c0 9.529 1.041 18.815 3.016 27.75l-0.158-0.85-418.432 209.195c-23.593-27.017-58.101-43.989-96.572-43.989-70.692 0-128 57.308-128 128s57.308 128 128 128c38.472 0 72.979-16.973 96.443-43.838l0.129-0.151 418.432 209.195c-1.855 8.18-2.918 17.574-2.918 27.216 0 70.905 57.479 128.384 128.384 128.384s128.384-57.479 128.384-128.384c0-70.905-57.479-128.384-128.384-128.384-38.528 0-73.092 16.971-96.624 43.846l-0.127 0.148-418.432-209.237c1.815-8.054 2.855-17.303 2.855-26.795s-1.040-18.741-3.013-27.64l0.157 0.845 418.432-209.195c23.572 27.043 58.079 44.036 96.555 44.036 70.622 0 127.872-57.25 127.872-127.872 0-0.062 0-0.123 0-0.185v0.010z" />
<glyph unicode="&#xe95c;" glyph-name="icon-upload" d="M960 64v-64h-896v64zM128 446.379l64-64.299 256 205.824v-459.904h128v459.904l256-205.824 64 64.299-384 321.621z" />
<glyph unicode="&#xe95d;" glyph-name="icon-save" d="M896 832l-64 64h-128v-256h-512v256h-128v-896h896v768zM832 64h-640v448h640zM768 384h-512v64h512zM768 256h-512v64h512zM640 704h-131.2v192h131.2z" />
<glyph unicode="&#xe95e;" glyph-name="icon-pickup" d="M960 0h-320v320h320zM736 256v-64h128v64zM608 352h138.795l22.187 33.28c39.374 52.571 63.048 118.883 63.048 190.724 0 176.731-143.269 320-320 320s-320-143.269-320-320c0-72.459 24.083-139.292 64.681-192.934l-0.582 0.802h-0.043l255.915-383.872 96 143.915zM384 576c0 70.692 57.308 128 128 128s128-57.308 128-128c0-70.692-57.308-128-128-128v0c-70.692 0-128 57.308-128 128v0z" />
<glyph unicode="&#xe95f;" glyph-name="icon-print" d="M704 256h-384v64h384zM704 192h-384v-64.853h384zM960 128h-64v-128h-768v128h-64v384h64v384h512l256-256v-128h64zM640 638.293h167.253l-167.253 167.253zM192 510.293h640v62.72h-256v258.987h-384zM832 126.293v256h-640v-318.293h640z" />
<glyph unicode="&#xe960;" glyph-name="icon-e-mail" d="M64 768v-640h896v640zM512 289.28l115.2 116.053 213.333-213.333h-656.213l213.333 213.333zM512 378.88l-325.12 325.12h650.24zM128 673.28l224-225.28-224-222.72zM896 225.28l-224 222.72 224 225.28z" />
<glyph unicode="&#xe961;" glyph-name="icon-arrow-collapse" d="M128 384h320v-320l-128 128-192-192-64 64 192 192zM832 512h64l-128 128 192 192-64 64-192-192-128 128v-320z" />
</font>
</defs>
</svg>
