<svg id="Layer_1" data-name="Layer 1" xmlns="http://www.w3.org/2000/svg" viewBox="0 0 215 281.94">
  <defs>
    <style>
      .cls-1 {
        fill: #fff;
      }
    </style>
  </defs>
  <title>404-icon-white</title>
  <g>
    <path class="cls-1" d="M205.27,126.82,198,138.75v.17h12.26v-12.1c0-3.28.17-6.64.42-10.16h-.34C208.54,120.19,207.11,123.38,205.27,126.82Z" transform="translate(-53.29)"/>
    <path class="cls-1" d="M160.92,152.78c5,0,7.64-6.22,7.64-18.65,0-12.1-2.6-18.48-7.73-18.48-4.7,0-7.9,6-7.81,18.65C152.94,146.82,156,152.78,160.92,152.78Z" transform="translate(-53.29)"/>
    <path class="cls-1" d="M117,126.82c0-3.28.17-6.64.42-10.16h-.34c-1.76,3.53-3.19,6.72-5,10.16l-7.31,11.93v.17H117Z" transform="translate(-53.29)"/>
    <path class="cls-1" d="M230,0H53.29V281.94h215V38ZM161,106c14.62,0,20.33,13,20.33,28,0,16.88-6.8,28.48-20.75,28.48-14.11,0-20.33-12.68-20.41-28.14C140.17,118.51,146.89,106,161,106ZM92.79,140.18l20.66-33.26h15.62v32h6.55v9.58h-6.55v13H117v-13H92.79Zm128,59.82h-120a7,7,0,0,1,0-14h120a7,7,0,1,1,0,14Zm8.08-51.5h-6.55v13h-12.1v-13H186v-8.32l20.66-33.26h15.62v32h6.55Z" transform="translate(-53.29)"/>
  </g>
</svg>
