<svg id="Layer_1" data-name="Layer 1" xmlns="http://www.w3.org/2000/svg" viewBox="0 0 219 281.94">
  <defs>
    <style>
      .cls-1 {
        fill: #2c98d4;
      }
    </style>
  </defs>
  <title>404-icon</title>
  <path class="cls-1" d="M270.29,281.94h-219V0H230.82l39.47,39.17Zm-213-6h207V40.83L229.18,6H57.29ZM220.79,202h-120a9,9,0,1,1,0-18h120a9,9,0,0,1,0,18Z" transform="translate(-51.29)"/>
  <g>
    <path class="cls-1" d="M119.37,153.22H94.73V142.09l24.64-29.29h11.79v29.92h6.11v10.49h-6.11v9.1H119.37Zm0-10.49V127.41l-13,15.32Z" transform="translate(-51.29)"/>
    <path class="cls-1" d="M141.48,137.78q0-13.88,5-19.42t15.22-5.54a22.79,22.79,0,0,1,8.07,1.21,14.93,14.93,0,0,1,5.15,3.15,16.81,16.81,0,0,1,3.14,4.08,21.29,21.29,0,0,1,1.84,5,46.67,46.67,0,0,1,1.36,11.36q0,13.25-4.48,19.39t-15.44,6.14a21.64,21.64,0,0,1-9.93-2,16.07,16.07,0,0,1-6.21-5.74,21.63,21.63,0,0,1-2.74-7.35A50.23,50.23,0,0,1,141.48,137.78Zm13.41,0q0,9.3,1.64,12.7t4.76,3.4a5,5,0,0,0,3.57-1.44,9,9,0,0,0,2.22-4.57,47.83,47.83,0,0,0,.71-9.73q0-9.7-1.64-13a5.26,5.26,0,0,0-4.93-3.34,5,5,0,0,0-4.85,3.4Q154.89,128.61,154.89,137.81Z" transform="translate(-51.29)"/>
    <path class="cls-1" d="M210.08,153.22H185.44V142.09l24.64-29.29h11.79v29.92H228v10.49h-6.11v9.1H210.08Zm0-10.49V127.41l-13,15.32Z" transform="translate(-51.29)"/>
  </g>
</svg>
