<svg id="Layer_1" data-name="Layer 1" xmlns="http://www.w3.org/2000/svg" viewBox="0 0 321.58 281.94">
  <defs>
    <style>
      .cls-1 {
        fill: #fff;
      }
    </style>
  </defs>
  <title>alerts-icon-white</title>
  <path class="cls-1" d="M319.86,262.68,171.91,6.43A12.72,12.72,0,0,0,160.79,0h0a12.72,12.72,0,0,0-11.12,6.42L1.72,262.68a12.84,12.84,0,0,0,11.12,19.26h295.9a12.84,12.84,0,0,0,11.12-19.26ZM160.79,231.5a14.75,14.75,0,1,1,14.75-14.75A14.75,14.75,0,0,1,160.79,231.5Zm14-52.68c0,6-6.34,10.92-14.08,10.92s-14.08-4.92-14.08-10.92l-6.85-90.16c0-6,13.2-6.49,20.94-6.49s20.94.48,20.92,6.49Z" transform="translate(0 0)"/>
</svg>
