<?xml version="1.0" encoding="utf-8"?>
<!-- Generator: Adobe Illustrator 21.1.0, SVG Export Plug-In . SVG Version: 6.00 Build 0)  -->
<svg version="1.0" id="Layer_1" xmlns="http://www.w3.org/2000/svg" xmlns:xlink="http://www.w3.org/1999/xlink" x="0px" y="0px"
	 viewBox="0 0 321.6 281.9" style="enable-background:new 0 0 321.6 281.9;" xml:space="preserve">
<style type="text/css">
	.st0{fill:#2C98D4;}
</style>
<title>alerts-icon</title>
<path class="st0" d="M160.8,4c3.2,0,6.1,1.7,7.7,4.4l147.9,256.3c2.4,4.2,1,9.6-3.2,12.1c-1.3,0.8-2.9,1.2-4.4,1.2H12.9
	c-4.9,0-8.8-4-8.8-8.8c0-1.6,0.4-3.1,1.2-4.4L153.1,8.4C154.7,5.7,157.6,4,160.8,4 M160.8,0c-4.6,0-8.8,2.4-11.1,6.4L1.7,262.7
	c-3.5,6.1-1.4,14,4.7,17.5c2,1.1,4.2,1.7,6.4,1.7h295.9c7.1,0,12.8-5.7,12.8-12.8c0-2.3-0.6-4.5-1.7-6.4L171.9,6.4
	C169.7,2.4,165.4,0,160.8,0z"/>
<path class="st0" d="M160.8,97.9c-6.8,0-18.3,0.4-18.3,5.7l6,78.9c0,5.3,5.6,9.6,12.3,9.6c6.8,0,12.3-4.3,12.3-9.6l6-78.9
	C179.1,98.3,167.5,97.9,160.8,97.9z M170.4,165.8c-0.1,0.1-0.3,0.2-0.4,0.3L152.8,184c-0.2-0.5-0.3-0.9-0.3-1.4c0-0.1,0-0.2,0-0.3
	l-0.4-5.5c0.1,0,0.1-0.1,0.2-0.1l19-21.5L170.4,165.8z M171.7,148.7c-0.2,0.1-0.4,0.2-0.5,0.4l-19.5,22l-0.6-8.5
	c0.2-0.1,0.3-0.2,0.4-0.4l21.1-23.8L171.7,148.7z M147.6,119.4c0.2-0.1,0.4-0.2,0.6-0.4l16.3-16.6c0.1-0.1,0.2-0.3,0.3-0.4
	c3.3,0.1,5.6,0.4,7.1,0.8l-23.6,26.6L147.6,119.4z M148.8,134.9l26.2-29.5l-0.8,10.2l-24.7,27.9L148.8,134.9z M173,131.9l-22.4,25.3
	l-0.6-8.3c0.1-0.1,0.1-0.1,0.2-0.2l23.6-26.7L173,131.9z M159.4,101.9l-12.2,12.4l-0.8-10.4C147.1,103.4,149.8,102,159.4,101.9z
	 M169.1,182.5c0,3-3.9,5.6-8.3,5.6c-1.9,0-3.7-0.5-5.2-1.3l14.3-14.9l-0.8,10.3C169.1,182.3,169.1,182.4,169.1,182.5z"/>
<path class="st0" d="M175.6,216.8c0-8.1-6.6-14.7-14.8-14.7c-8.1,0-14.7,6.6-14.7,14.8c0,8.1,6.6,14.8,14.8,14.7
	C169,231.5,175.6,224.9,175.6,216.8C175.6,216.8,175.6,216.8,175.6,216.8z M150.1,216.8c0-5.9,4.8-10.7,10.8-10.7
	c0.4,0,0.8,0,1.2,0.1l-11.9,11.4C150.1,217.3,150.1,217.1,150.1,216.8C150.1,216.8,150.1,216.8,150.1,216.8z M151.3,221.9l14.3-13.7
	c0.2-0.2,0.4-0.4,0.5-0.7c1.8,1,3.3,2.6,4.2,4.5c-0.2,0.1-0.3,0.2-0.5,0.3l-14.5,13.8C153.7,225.1,152.3,223.7,151.3,221.9z
	 M160.8,227.5c-0.3,0-0.7,0-1-0.1l11.7-11.2c0,0.2,0,0.4,0,0.5C171.6,222.7,166.7,227.6,160.8,227.5z"/>
</svg>
