<svg id="Layer_1" data-name="Layer 1" xmlns="http://www.w3.org/2000/svg" viewBox="0 0 202.87 243.7">
  <defs>
    <style>
      .cls-1 {
        fill: #fff;
      }
    </style>
  </defs>
  <title>best-practice-icon-white</title>
  <path class="cls-1" d="M242.28,204.1,196,157.79a86.84,86.84,0,1,0-110.25,0L39.42,204.1l47.34-3.84-3.84,47.34,57.93-57.93,57.93,57.93-3.84-47.34ZM64,90.74a76.84,76.84,0,1,1,119.91,63.59l-.22.15a76.86,76.86,0,0,1-9.51,5.47l-.13.06a76.26,76.26,0,0,1-13.85,5.08l-.36.09q-1.68.43-3.38.78l-.21,0q-3.54.72-7.19,1.11l-.93.09q-1.34.13-2.7.21l-1,.06c-1.19.05-2.38.09-3.58.09s-2.4,0-3.58-.09l-1-.06q-1.35-.08-2.7-.21l-.93-.09q-3.65-.39-7.19-1.11l-.2,0q-1.71-.35-3.39-.78l-.36-.09A76.26,76.26,0,0,1,107.64,160l-.12-.06A76.86,76.86,0,0,1,98,154.48l-.21-.14A76.82,76.82,0,0,1,64,90.74ZM95.09,221.3l2.59-32-32,2.59,28.16-28.16a86,86,0,0,0,31.19,12.37l.87.16,1.53.25,1.4.2,1.8.23,1.72.19,1,.09,1.83.14.82.05q1.33.07,2.67.11h.08Zm47.78-43.74H143q1.34,0,2.67-.11l.83-.05,1.83-.14,1-.09L151,177l1.82-.23,1.38-.2,1.53-.25.87-.16a86,86,0,0,0,31.19-12.37L216,191.93l-32-2.59,2.59,32Z" transform="translate(-39.42 -3.91)"/>
  <path class="cls-1" d="M104.8,145.14l36-19,36,19L170,105l29.16-28.43-40.3-5.86-18-36.52-18,36.52-40.3,5.86L111.69,105ZM104,83.55l25.45-3.7,11.38-23.06,11.38,23.06,25.45,3.7-18.42,18,4.35,25.35-22.77-12-22.77,12,4.35-25.35Z" transform="translate(-39.42 -3.91)"/>
</svg>
