<?xml version="1.0" encoding="utf-8"?>
<!-- Generator: Adobe Illustrator 21.1.0, SVG Export Plug-In . SVG Version: 6.00 Build 0)  -->
<svg version="1.0" id="Layer_1" xmlns="http://www.w3.org/2000/svg" xmlns:xlink="http://www.w3.org/1999/xlink" x="0px" y="0px"
	 viewBox="0 0 342 342" style="enable-background:new 0 0 342 342;" xml:space="preserve">
<style type="text/css">
	.st0{fill:#4197D3;}
	.st1{fill:#2C98D4;}
</style>
<path class="st0" d="M327.2,217.2h-312c-3.9,0-7-3.1-7-7V128c0-3.9,3.1-7,7-7h312c3.9,0,7,3.1,7,7v82.3
	C334.2,214.1,331,217.2,327.2,217.2z M15.1,127c-0.5,0-1,0.5-1,1v82.3c0,0.5,0.5,1,1,1h312c0.5,0,1-0.5,1-1V128c0-0.5-0.5-1-1-1
	H15.1z"/>
<path class="st1" d="M95.2,183.9v-28.4h9.8c3.2,0,5.7,0.6,7.3,1.9s2.5,3.2,2.5,5.8c0,1.3-0.3,2.5-1.1,3.5s-1.7,1.9-3.1,2.4
	c1.5,0.4,2.7,1.2,3.6,2.4s1.3,2.5,1.3,4.1c0,2.7-0.9,4.7-2.6,6.2c-1.7,1.4-4.2,2.1-7.3,2.1L95.2,183.9L95.2,183.9z M100.2,167.5h4.8
	c1.5,0,2.7-0.4,3.6-1c0.9-0.7,1.3-1.7,1.3-3c0-1.4-0.4-2.4-1.2-3.1s-2.1-0.9-3.7-0.9h-4.8C100.2,159.5,100.2,167.5,100.2,167.5z
	 M100.2,171.1v8.9h5.5c1.6,0,2.8-0.4,3.6-1.1c0.9-0.8,1.3-1.8,1.3-3.2c0-2.9-1.5-4.4-4.5-4.5L100.2,171.1L100.2,171.1z"/>
<path class="st1" d="M141.3,155.5v19c0,3-1,5.4-2.9,7.2s-4.5,2.6-7.7,2.6c-3.3,0-5.8-0.9-7.8-2.6s-2.9-4.1-2.9-7.2v-19h4.9v19
	c0,1.9,0.5,3.3,1.4,4.3c1,1,2.4,1.5,4.3,1.5c3.8,0,5.7-2,5.7-6v-18.8L141.3,155.5L141.3,155.5z"/>
<path class="st1" d="M167.1,159.5h-8.9v24.4h-4.9v-24.4h-8.8v-4h22.6L167.1,159.5L167.1,159.5z"/>
<path class="st1" d="M191.7,159.5h-8.9v24.4h-4.9v-24.4h-8.8v-4h22.6L191.7,159.5L191.7,159.5z"/>
<path class="st1" d="M217.6,170.4c0,2.8-0.5,5.2-1.4,7.3c-1,2.1-2.3,3.7-4.1,4.8c-1.8,1.1-3.9,1.7-6.2,1.7c-2.3,0-4.4-0.6-6.2-1.7
	s-3.2-2.7-4.2-4.8c-1-2.1-1.5-4.5-1.5-7.2V169c0-2.8,0.5-5.2,1.5-7.3s2.4-3.8,4.2-4.9c1.8-1.1,3.8-1.7,6.2-1.7s4.4,0.6,6.2,1.7
	c1.8,1.1,3.2,2.7,4.1,4.8s1.5,4.5,1.5,7.3L217.6,170.4L217.6,170.4z M212.6,169c0-3.1-0.6-5.6-1.8-7.2s-2.9-2.5-5.1-2.5
	c-2.1,0-3.8,0.8-5,2.5c-1.2,1.7-1.8,4-1.9,7.1v1.6c0,3.1,0.6,5.5,1.8,7.3c1.2,1.7,2.9,2.6,5.1,2.6c2.2,0,3.9-0.8,5.1-2.5
	c1.2-1.7,1.8-4.1,1.8-7.3L212.6,169L212.6,169z"/>
<path class="st1" d="M245.1,183.9h-4.9l-12.7-20.2v20.2h-4.9v-28.4h4.9l12.7,20.2v-20.2h4.9L245.1,183.9L245.1,183.9z"/>
</svg>
