<svg id="Layer_1" data-name="Layer 1" xmlns="http://www.w3.org/2000/svg" viewBox="0 0 325 97.25">
  <defs>
    <style>
      .cls-1 {
        fill: #fff;
      }
    </style>
  </defs>
  <title>buttons-icon-white</title>
  <g>
    <path class="cls-1" d="M97.43,50.65h-5.9V59.5H97a5.29,5.29,0,0,0,3.63-1.15,4,4,0,0,0,1.31-3.19C102,52.22,100.45,50.75,97.43,50.65Z" transform="translate(0 0)"/>
    <path class="cls-1" d="M317.5,0H7.5A7.51,7.51,0,0,0,0,7.5V89.75a7.51,7.51,0,0,0,7.5,7.5h310a7.52,7.52,0,0,0,7.5-7.5V7.5A7.51,7.51,0,0,0,317.5,0ZM104.32,61.27q-2.56,2.14-7.35,2.15H86.59V35h9.76c3.22,0,5.66.64,7.34,1.93a6.81,6.81,0,0,1,2.52,5.76,6.2,6.2,0,0,1-1.05,3.52,6.68,6.68,0,0,1-3.09,2.42A6.28,6.28,0,0,1,105.63,51a6.86,6.86,0,0,1,1.26,4.15A7.57,7.57,0,0,1,104.32,61.27ZM132.63,35V54a9.26,9.26,0,0,1-2.9,7.18,12.69,12.69,0,0,1-15.47,0,9.3,9.3,0,0,1-2.87-7.24v-19h5v19a6,6,0,0,0,1.45,4.35,5.64,5.64,0,0,0,4.26,1.5q5.7,0,5.7-6V35h4.83Zm25.82,4h-8.87V63.44h-4.9V39h-8.79V35h22.56Zm15.72,0V63.44h-4.9V39h-8.79V35H183l0,4Zm34.76,11a17.31,17.31,0,0,1-1.45,7.33,10.88,10.88,0,0,1-4.13,4.84,12.11,12.11,0,0,1-12.34,0,11.13,11.13,0,0,1-4.18-4.81,16.91,16.91,0,0,1-1.47-7.21v-1.6a17.33,17.33,0,0,1,1.47-7.34A11,11,0,0,1,191,36.33a11.28,11.28,0,0,1,6.16-1.69,11.44,11.44,0,0,1,6.16,1.67,10.93,10.93,0,0,1,4.15,4.8,17.15,17.15,0,0,1,1.48,7.29Zm27.42,13.44-4.89,0L218.78,43.25V63.43h-4.94V35h4.94l12.71,20.25V35h4.86Z" transform="translate(0 0)"/>
    <path class="cls-1" d="M193.35,40a6.31,6.31,0,0,0-1.24,1.24c-1.21,1.67-1.82,4-1.85,7.1V50q0,4.68,1.83,7.25a5.88,5.88,0,0,0,5.07,2.56,5.8,5.8,0,0,0,5-2.5Q204,54.75,204,50V48.5q0-4.75-1.81-7.25A6.31,6.31,0,0,0,193.35,40Z" transform="translate(0 0)"/>
    <path class="cls-1" d="M100,46a3.57,3.57,0,0,0,1.3-3,3.64,3.64,0,0,0-1.2-3A6,6,0,0,0,96.31,39h-4.8v8h4.84A5.61,5.61,0,0,0,100,46Z" transform="translate(0 0)"/>
  </g>
</svg>
