<svg id="Layer_1" data-name="Layer 1" xmlns="http://www.w3.org/2000/svg" viewBox="0 0 341.8 340.2">
  <defs>
    <style>
      .cls-1 {
        fill: #fff;
      }
    </style>
  </defs>
  <title>colors-icon-white</title>
  <path class="cls-1" d="M278.81,130.61a110,110,0,1,0-216.08.24A110,110,0,1,0,171,321.75,110,110,0,1,0,278.81,130.61ZM170.76,12.37A100,100,0,0,1,269.2,129.76a105.86,105.86,0,0,0-98.38,10A105.87,105.87,0,0,0,72.34,130,100.05,100.05,0,0,1,170.76,12.37ZM112.36,327.83A100,100,0,0,1,68.22,138.2a106,106,0,0,0,57.35,69.72,105.84,105.84,0,0,0,40.35,104.36A99.49,99.49,0,0,1,112.36,327.83Zm117.08-.12A99.49,99.49,0,0,1,176,312.27a105.84,105.84,0,0,0,40.15-104.45,106,106,0,0,0,57.16-69.9,100,100,0,0,1-43.92,189.79Z"/>
</svg>
