<?xml version="1.0" encoding="utf-8"?>
<!-- Generator: Adobe Illustrator 21.1.0, SVG Export Plug-In . SVG Version: 6.00 Build 0)  -->
<svg version="1.0" id="Layer_1" xmlns="http://www.w3.org/2000/svg" xmlns:xlink="http://www.w3.org/1999/xlink" x="0px" y="0px"
	 viewBox="0 0 341.8 340.2" style="enable-background:new 0 0 341.8 340.2;" xml:space="preserve">
<style type="text/css">
	.st0{fill:#4197D3;}
</style>
<path class="st0" d="M278.8,130.6c1.3-6.7,1.9-13.6,1.9-20.6c0-60.8-49.2-110-110-110s-110,49.2-110,110c0,7.1,0.7,14.1,2,20.9
	C25.6,148.5,0,186.4,0,230.2c0,60.8,49.2,110,110,110c22.6,0,43.5-6.8,61-18.4c17.4,11.6,38.3,18.3,60.8,18.3
	c60.8,0,110-49.2,110-110C341.8,186.1,316,148.2,278.8,130.6z M66.8,110c0.1-57.4,46.6-103.9,104-104c57.4,0,104,46.6,104,104
	c0,6.2-0.5,12.2-1.6,18.1c-12.8-5.2-26.7-8.1-41.4-8.1c-22.6,0-43.5,6.8-61,18.4c-17.4-11.6-38.3-18.3-60.8-18.3
	c-14.7,0-28.8,2.9-41.6,8.2C67.3,122.4,66.8,116.3,66.8,110z M214,230.2c0,34.7-17,65.3-43,84.2c-26.2-18.9-43.2-49.6-43.2-84.4
	c0-6.2,0.6-12.2,1.6-18.1c12.8,5.2,26.7,8,41.4,8c14.7,0,28.8-2.9,41.6-8.2C213.4,217.8,214,223.9,214,230.2z M170.9,145.9
	c1.1,0.8,2.2,1.6,3.3,2.5c-0.3,0.2-0.5,0.5-0.7,0.8l-37.9,58.8c-1.7-0.6-3.3-1.2-4.9-1.9C136.5,181.4,151,160.2,170.9,145.9z
	 M125.1,203.4c-27.5-13.5-48.1-38.7-55.4-69.1c12.4-5.2,26.1-8.2,40.4-8.2c20.4,0,39.5,5.9,55.5,16.1
	C145.8,157.2,131.2,178.7,125.1,203.4z M188.5,212.5c-3.9,0.7-7.9,1.1-12,1.4l22.5-37.4c1.7,2.8,3.3,5.8,4.8,8.8L188.5,212.5
	C188.6,212.4,188.5,212.5,188.5,212.5z M194.8,172l-25.2,41.8c0,0.1-0.1,0.2-0.1,0.3c-3.9,0-7.7-0.3-11.4-0.8l31.6-49.9
	c2.1,2.5,4.1,5.1,6,7.8C195.3,171.3,195,171.6,194.8,172z M184.9,159.6l-32.4,51.2c-0.3,0.5-0.4,1-0.5,1.5
	c-3.6-0.7-7.1-1.5-10.5-2.5l37-57.4c0.1-0.1,0.1-0.2,0.2-0.3c2.4,2.1,4.8,4.4,7,6.7C185.3,159,185.1,159.3,184.9,159.6z
	 M196.3,210.8l10.5-18.7c1.7,4.4,3.2,9,4.3,13.7C206.4,207.9,201.4,209.5,196.3,210.8z M176.1,142.3c16.1-10.2,35.2-16.2,55.7-16.2
	c14.2,0,27.8,2.9,40.1,8c-7.2,30.4-27.8,55.7-55.2,69.2C210.5,178.6,195.9,157.2,176.1,142.3z M110,334.2c-57.4,0-104-46.6-104-104
	c0-40.9,23.7-76.3,58.1-93.3c8.1,32.1,30.3,58.7,59.7,72.6c-1.3,6.7-1.9,13.6-1.9,20.6c0,36,17.2,67.9,43.9,87.9
	C149.6,328.3,130.5,334.2,110,334.2z M231.8,334.1c-20.4,0-39.5-5.9-55.5-16.1c26.6-20.1,43.7-51.9,43.7-87.8c0-7.1-0.7-14.1-2-20.9
	c29.3-14,51.5-40.5,59.5-72.7c34.5,16.9,58.3,52.4,58.3,93.4C335.8,287.5,289.2,334.1,231.8,334.1z"/>
</svg>
