<?xml version="1.0" encoding="utf-8"?>
<!-- Generator: Adobe Illustrator 21.1.0, SVG Export Plug-In . SVG Version: 6.00 Build 0)  -->
<svg version="1.0" id="Layer_1" xmlns="http://www.w3.org/2000/svg" xmlns:xlink="http://www.w3.org/1999/xlink" x="0px" y="0px"
	 viewBox="0 0 301.1 199" style="enable-background:new 0 0 301.1 199;" xml:space="preserve">
<style type="text/css">
	.st0{fill:#2C98D4;}
</style>
<polygon class="st0" points="67.4,139.6 28.2,100.3 65.8,62.7 59.8,56.8 16.2,100.4 20.1,104.3 20.2,104.3 61.4,145.6 "/>
<polygon class="st0" points="230.1,62.7 269.4,102 231.8,139.6 237.7,145.6 281.3,102 277.4,98 277.3,98 236.1,56.8 "/>
<polygon class="st0" points="195.7,163 187.9,160.6 219.1,33.8 226.9,36.2 "/>
<path class="st0" d="M84.8,89.3c0-4.3-0.1-7.8-0.3-11.2h6.7l0.4,6.9h0.2c2.1-3.9,6.9-7.8,13.7-7.8c5.7,0,14.7,3.4,14.7,17.7v24.8
	h-7.5v-24c0-6.7-2.5-12.3-9.6-12.3c-5,0-8.8,3.5-10.1,7.7c-0.3,0.9-0.5,2.2-0.5,3.5v24.9H85V89.3H84.8z"/>
<path class="st0" d="M168.2,78.1c-0.2,3-0.3,6.3-0.3,11.4v24.1c0,9.5-1.9,15.3-5.9,18.9c-4,3.8-9.9,5-15.1,5c-5,0-10.5-1.2-13.8-3.4
	l1.9-5.7c2.7,1.7,7,3.3,12.2,3.3c7.7,0,13.4-4,13.4-14.5v-4.6h-0.2c-2.3,3.9-6.8,6.9-13.2,6.9c-10.3,0-17.7-8.7-17.7-20.2
	c0-14.1,9.2-22,18.7-22c7.2,0,11.1,3.8,12.9,7.2h0.2l0.3-6.3h6.6V78.1z M160.4,94.5c0-1.3-0.1-2.4-0.4-3.4c-1.4-4.4-5.1-8-10.5-8
	c-7.2,0-12.3,6.1-12.3,15.7c0,8.1,4.1,14.9,12.3,14.9c4.6,0,8.8-2.9,10.5-7.7c0.4-1.3,0.6-2.7,0.6-4v-7.5H160.4z"/>
</svg>
