<?xml version="1.0" encoding="utf-8"?>
<!-- Generator: Adobe Illustrator 21.1.0, SVG Export Plug-In . SVG Version: 6.00 Build 0)  -->
<svg version="1.0" id="Layer_1" xmlns="http://www.w3.org/2000/svg" xmlns:xlink="http://www.w3.org/1999/xlink" x="0px" y="0px"
	 viewBox="0 0 137.4 137.4" style="enable-background:new 0 0 137.4 137.4;" xml:space="preserve">
<style type="text/css">
	.st0{fill:#FFFFFF;}
</style>
<title>dashboard-modules-icon-white</title>
<g>
	<path class="st0" d="M131,0H6.4C2.9,0,0,2.9,0,6.4V131c0,3.5,2.9,6.4,6.4,6.4H131c3.5,0,6.4-2.9,6.4-6.4V6.4
		C137.5,2.9,134.6,0,131,0C131.1,0,131,0,131,0z M127.8,9.6v102.2H9.6V9.6H127.8z"/>
	<path class="st0" d="M45.7,69c1.9,1.9,4.9,1.9,6.8,0l15.2-15.2c1.9-1.8,2-4.9,0.2-6.8c-1.8-1.9-4.9-2-6.8-0.2
		c-0.1,0.1-0.1,0.1-0.2,0.2L45.7,62.2C43.8,64.1,43.8,67.1,45.7,69z"/>
	<path class="st0" d="M69.7,69c1.9,1.9,4.9,1.9,6.8,0l15.2-15.2c1.8-1.9,1.7-5-0.2-6.8c-1.9-1.8-4.8-1.8-6.6,0L69.7,62.2
		C67.8,64.1,67.8,67.1,69.7,69z"/>
</g>
</svg>
