<svg id="Layer_1" data-name="Layer 1" xmlns="http://www.w3.org/2000/svg" viewBox="0 0 301.06 199.02">
  <defs>
    <style>
      .cls-1 {
        fill: #2c98d4;
      }
    </style>
  </defs>
  <title>dashboard-modules-icon</title>
  <g id="cards_icon" data-name="cards icon">
    <path class="cls-1" d="M81.76,0H4A4,4,0,0,0,0,4V81.76a4,4,0,0,0,4,4H81.76a4,4,0,0,0,4-4V4A4,4,0,0,0,81.76,0Zm-2,6V61.84H6V6ZM6,79.76V67.84H79.76V79.76Z" transform="translate(0 0)"/>
    <path class="cls-1" d="M189.41,0H111.65a4,4,0,0,0-4,4V81.76a4,4,0,0,0,4,4h77.76a4,4,0,0,0,4-4V4A4,4,0,0,0,189.41,0Zm-2,6V62a3,3,0,0,0-1-.19H113.65V6ZM113.65,79.76V67.84h72.73a3,3,0,0,0,1-.19V79.76Z" transform="translate(0 0)"/>
    <path class="cls-1" d="M297.06,0H219.3a4,4,0,0,0-4,4V81.76a4,4,0,0,0,4,4h77.76a4,4,0,0,0,4-4V4A4,4,0,0,0,297.06,0Zm-2,6V61.87l-.26,0H221.3V6ZM221.3,79.76V67.84h73.5l.26,0V79.76Z" transform="translate(0 0)"/>
    <path class="cls-1" d="M81.76,113.26H4a4,4,0,0,0-4,4V195a4,4,0,0,0,4,4H81.76a4,4,0,0,0,4-4V117.26A4,4,0,0,0,81.76,113.26Zm-2,6v55.83H6V119.26ZM6,193V181.09H79.76V193Z" transform="translate(0 0)"/>
    <path class="cls-1" d="M189.41,113.26H111.65a4,4,0,0,0-4,4V195a4,4,0,0,0,4,4h77.76a4,4,0,0,0,4-4V117.26A4,4,0,0,0,189.41,113.26Zm-2,6v56a3,3,0,0,0-1-.19H113.65V119.26ZM113.65,193V181.09h72.73a3,3,0,0,0,1-.19V193Z" transform="translate(0 0)"/>
    <path class="cls-1" d="M297.06,113.26H219.3a4,4,0,0,0-4,4V195a4,4,0,0,0,4,4h77.76a4,4,0,0,0,4-4V117.26A4,4,0,0,0,297.06,113.26Zm-2,6v55.86l-.26,0H221.3V119.26ZM221.3,193V181.09h73.5l.26,0v12Z" transform="translate(0 0)"/>
  </g>
</svg>
