<?xml version="1.0" encoding="utf-8"?>
<!-- Generator: Adobe Illustrator 21.1.0, SVG Export Plug-In . SVG Version: 6.00 Build 0)  -->
<svg version="1.0" id="Layer_1" xmlns="http://www.w3.org/2000/svg" xmlns:xlink="http://www.w3.org/1999/xlink" x="0px" y="0px"
	 viewBox="0 0 342 342" style="enable-background:new 0 0 342 342;" xml:space="preserve">
<style type="text/css">
	.st0{fill:#2C98D4;}
</style>
<path class="st0" d="M310.2,80.6c-1.7,0-3,1.3-3,3v17.7H37.6V83.6c0-1.7-1.3-3-3-3s-3,1.3-3,3v20.7c0,1.7,1.3,3,3,3
	c0.1,0,0.2,0,0.3,0c0.1,0,0.2,0,0.3,0h275c1.7,0,3-1.3,3-3V83.6C313.2,82,311.9,80.6,310.2,80.6z"/>
<path class="st0" d="M310.2,156.9c-1.7,0-3,1.3-3,3v17.7H37.6v-17.7c0-1.7-1.3-3-3-3s-3,1.3-3,3v20.7c0,1.7,1.3,3,3,3
	c0.1,0,0.2,0,0.3,0c0.1,0,0.2,0,0.3,0h275c1.7,0,3-1.3,3-3v-20.7C313.2,158.3,311.9,156.9,310.2,156.9z"/>
<path class="st0" d="M310.2,230.2c-1.7,0-3,1.3-3,3V251H37.6v-17.7c0-1.7-1.3-3-3-3s-3,1.3-3,3V254c0,1.7,1.3,3,3,3
	c0.1,0,0.2,0,0.3,0c0.1,0,0.2,0,0.3,0h275c1.7,0,3-1.3,3-3v-20.7C313.2,231.6,311.9,230.2,310.2,230.2z"/>
<path class="st0" d="M67.7,91.9h-4.2V71.3l-6.3,2.1v-3.6l10-3.7h0.5L67.7,91.9L67.7,91.9z"/>
<path class="st0" d="M74.3,170.4H57.1v-2.9l8.5-9.3c1.2-1.4,2.1-2.5,2.6-3.4s0.8-1.8,0.8-2.8c0-1.2-0.3-2.2-1-2.9s-1.6-1.1-2.8-1.1
	c-1.4,0-2.5,0.4-3.2,1.3s-1.1,2-1.1,3.5h-4.3c0-1.6,0.3-3,1.1-4.2s1.7-2.2,3-2.9s2.8-1,4.6-1c2.5,0,4.4,0.6,5.9,1.9s2.2,3,2.2,5.2
	c0,1.3-0.4,2.6-1.1,4s-1.9,3-3.5,4.8l-6.3,6.7h11.9L74.3,170.4L74.3,170.4z"/>
<path class="st0" d="M62.1,228.4h2.6c1.3,0,2.3-0.4,3.1-1s1.2-1.6,1.2-2.9c0-1.2-0.3-2.2-1-2.8s-1.6-1-2.9-1c-1.2,0-2.1,0.3-2.8,1
	s-1.1,1.5-1.1,2.6h-4.3c0-1.3,0.3-2.5,1-3.6s1.7-1.9,2.9-2.5s2.7-0.9,4.2-0.9c2.6,0,4.6,0.6,6,1.9s2.2,3.1,2.2,5.4
	c0,1.1-0.4,2.2-1.1,3.2s-1.7,1.8-2.8,2.3c1.4,0.5,2.5,1.2,3.2,2.3s1.1,2.3,1.1,3.7c0,2.3-0.8,4.1-2.4,5.5s-3.7,2-6.2,2
	c-2.5,0-4.5-0.7-6-2s-2.4-3.1-2.4-5.2h4.3c0,1.1,0.4,2,1.1,2.7s1.8,1.1,3,1.1c1.3,0,2.4-0.4,3.1-1.1s1.1-1.7,1.1-3.1
	c0-1.4-0.4-2.4-1.2-3.1s-2-1.1-3.6-1.1h-2.5L62.1,228.4L62.1,228.4z"/>
</svg>
