<?xml version="1.0" encoding="utf-8"?>
<!-- Generator: Adobe Illustrator 21.1.0, SVG Export Plug-In . SVG Version: 6.00 Build 0)  -->
<svg version="1.0" id="Layer_1" xmlns="http://www.w3.org/2000/svg" xmlns:xlink="http://www.w3.org/1999/xlink" x="0px" y="0px"
	 viewBox="0 0 281.6 154.9" style="enable-background:new 0 0 281.6 154.9;" xml:space="preserve">
<style type="text/css">
	.st0{fill:#FFFFFF;}
</style>
<title>forms-icon-white</title>
<path class="st0" d="M25.2,49.1c-1.2,0-2.1-1.6-2.1-3.5V21.7c0-1.9,1-3.5,2.1-3.5s2.1,1.5,2.1,3.5v23.9
	C27.4,47.6,26.4,49.1,25.2,49.1z"/>
<path class="st0" d="M281.6,3c0-1.7-1.3-3-3-3H3.6C3.5,0,3.4,0,3.3,0C3.2,0,3.1,0,3,0C2.5,0,2.1,0.3,1.8,0.7C1.1,1.2,0.7,2,0.6,2.9
	C0.2,4.4,0,6,0,7.6v52.3c0,1.6,0.2,3.2,0.6,4.7c0,0.9,0.4,1.6,1.1,2.2c0.3,0.4,0.7,0.6,1.2,0.7c0.1,0,0.2,0,0.3,0c0.1,0,0.2,0,0.4,0
	h275c1.7,0,3-1.4,3-3c0-0.4-0.1-0.9-0.3-1.3c0.2-1.1,0.3-2.2,0.3-3.3V7.6c0-1.1-0.1-2.2-0.3-3.3C281.5,3.9,281.6,3.4,281.6,3z
	 M13.9,14h253.8c0,0.5-0.1,1-0.1,1.6v36.3c0,0.5,0,1.1,0.1,1.6H13.9c0-0.5,0.1-1,0.1-1.6V15.6C14,15,14,14.5,13.9,14z"/>
<path class="st0" d="M281.6,90.5c0-1.7-1.3-3-3-3H3.6c-0.1,0-0.2,0-0.4,0c-0.1,0-0.2,0-0.3,0c-0.5,0-0.9,0.3-1.2,0.7
	c-0.7,0.5-1.1,1.3-1.1,2.2C0.2,91.9,0,93.5,0,95.1v52.3c0,1.6,0.2,3.2,0.6,4.7c0,0.9,0.4,1.6,1.1,2.2c0.3,0.4,0.7,0.6,1.2,0.7
	c0.1,0,0.2,0,0.3,0c0.1,0,0.2,0,0.4,0h275c1.7,0,3-1.4,3-3c0-0.4-0.1-0.9-0.3-1.3c0.2-1.1,0.3-2.2,0.3-3.3V95.1
	c0-1.1-0.1-2.2-0.3-3.3C281.5,91.4,281.6,90.9,281.6,90.5z M13.9,101.5h253.8c0,0.5-0.1,1-0.1,1.6v36.3c0,0.5,0,1.1,0.1,1.6H13.9
	c0-0.5,0.1-1,0.1-1.6v-36.3C14,102.5,14,102,13.9,101.5L13.9,101.5z"/>
</svg>
