<?xml version="1.0" encoding="utf-8"?>
<!-- Generator: Adobe Illustrator 21.1.0, SVG Export Plug-In . SVG Version: 6.00 Build 0)  -->
<svg version="1.1" id="Layer_1" xmlns="http://www.w3.org/2000/svg" xmlns:xlink="http://www.w3.org/1999/xlink" x="0px" y="0px"
	 viewBox="0 0 226.8 272.3" style="enable-background:new 0 0 226.8 272.3;" xml:space="preserve">
<style type="text/css">
	.st0{fill:#FFFFFF;}
</style>
<title>grid-icon-white</title>
<g>
	<path class="st0" d="M97.2,209.2H130c1.4,0,2.6-1.2,2.6-2.6V2.6c0-1.4-1.2-2.6-2.6-2.6H97.2c-1.4,0-2.6,1.2-2.6,2.6v204
		C94.6,208.1,95.8,209.2,97.2,209.2z"/>
	<path class="st0" d="M23,209.2h32.8c1.4,0,2.6-1.2,2.6-2.6V2.6c0-1.4-1.2-2.6-2.6-2.6H23c-1.4,0-2.6,1.2-2.6,2.6v204
		C20.5,208.1,21.6,209.2,23,209.2z"/>
	<path class="st0" d="M174.1,209.2h32.8c1.4,0,2.6-1.2,2.6-2.6V2.6c0-1.4-1.2-2.6-2.6-2.6h-32.8c-1.4,0-2.6,1.2-2.6,2.6v204
		C171.5,208.1,172.6,209.2,174.1,209.2z"/>
	<polygon class="st0" points="226.8,252.4 192.2,232.4 192.2,248.4 34.5,248.4 34.5,232.4 0,252.4 34.5,272.3 34.5,255.5 
		192.2,255.5 192.2,272.3 	"/>
</g>
</svg>
