<svg id="Layer_1" data-name="Layer 1" xmlns="http://www.w3.org/2000/svg" viewBox="0 0 75.11 52">
  <defs>
    <style>
      .cls-1 {
        fill: #001c3b;
      }
    </style>
  </defs>
  <title>hand-shake-icon</title>
  <path class="cls-1" d="M73.62,3.47C61.93,3.47,55.44,7,55.17,7.1a1.68,1.68,0,0,0-.8,1.08,2,2,0,0,0,.16,1.41c.16.3.35.72.56,1.24-2.31-.94-6.3-2.61-10.29-4.56-5.17-2.53-8.64-2-12.29.8a1.44,1.44,0,0,0-.58-.13H18.32c.07-.55.12-1.09.16-1.59A1.85,1.85,0,0,0,18,3.94C15.37,1.13,4.81.21,1.63,0A1.43,1.43,0,0,0,.48.47,1.84,1.84,0,0,0,0,1.73v31.2a1.65,1.65,0,0,0,1.54,1.73h9.24a1.57,1.57,0,0,0,1.46-1.2c0-.13.21-.71.47-1.64.5.54,1.14,1.28,1.83,2.07,1.39,1.58,2.82,3.22,3.78,4.11,5.78,5.3,12.74,11,14.12,12A11.24,11.24,0,0,0,38,52a5,5,0,0,0,3.53-1.14,4.45,4.45,0,0,0,3.53,0,6.37,6.37,0,0,0,3.23-3.27A5.79,5.79,0,0,0,54.75,44a4.82,4.82,0,0,0,3.56-1.4,5.68,5.68,0,0,0,1.57-5.64l2.78-2.32c.25.92.45,1.68.58,2.24a1.54,1.54,0,0,0,1.44,1.27h8.94a1.63,1.63,0,0,0,1.49-1.73V5.2A1.62,1.62,0,0,0,73.62,3.47ZM9.66,31.2H3.08V3.59C8,4,13.38,5,15.32,6,14.5,13.64,10.81,27.13,9.66,31.2ZM56.29,40a1.6,1.6,0,0,1-1.91.41,1.48,1.48,0,0,0-.23-.12,1.7,1.7,0,0,0-.45-.62c-1.14-1-6.22-6.66-9.37-10.24a1.49,1.49,0,0,0-2.25-.05,1.84,1.84,0,0,0,0,2.45c.82.93,8,9.12,9.69,10.56a1.45,1.45,0,0,0,.18.11,2.26,2.26,0,0,1-1.16,1.41,2.32,2.32,0,0,1-2.32.13,1.63,1.63,0,0,0-.52-.75c-2-1.58-6.95-6.86-8.07-8.08a1.65,1.65,0,1,0-2.43,2.24c.06.06,5.63,6.07,8.2,8.23a3.17,3.17,0,0,1-1.71,2,1.67,1.67,0,0,1-1.19.08,1.63,1.63,0,0,0-.55-1c-2.35-2-7.17-7.11-8.11-8.12a1.65,1.65,0,0,0-2.41,2.25c1.19,1.28,4.92,5.23,7.45,7.55A3.7,3.7,0,0,1,38,48.6a8.44,8.44,0,0,1-3.81-1.42c-1.09-.79-7.93-6.37-13.83-11.78-.83-.76-2.26-2.4-3.53-3.85-1.12-1.28-2.15-2.45-2.68-2.94a1.53,1.53,0,0,0-.43-.28c1.29-4.78,3.12-12,4.13-17.93H28.92l-.73.78c-2.12,2.33-5,7-4.27,10.48a4.07,4.07,0,0,0,2.67,3.06c3.52,1.27,6.73.05,9.12-3.42a7.37,7.37,0,0,0,2.33-.81c.29-.14.63-.31,1.09-.51,1.78,1.83,4.18,3.95,6.7,6.18,4.57,4,9.75,8.62,10.91,11.28A2.11,2.11,0,0,1,56.29,40Zm5.07-8.49-3,2.49c-2.22-3.07-6.46-6.82-10.58-10.47C45,21,42.31,18.67,40.61,16.81a1.46,1.46,0,0,0-1.62-.4c-1,.41-1.69.73-2.2,1A4.8,4.8,0,0,1,34.7,18a1.54,1.54,0,0,0-1.14.74c-2.2,3.59-4.47,3.29-6,2.73-.48-.18-.57-.4-.62-.62-.33-1.49,1.31-5,3.43-7.29,5-5.53,7.65-6.91,13.15-4.22,6.24,3.05,12.49,5.44,12.55,5.47a1.43,1.43,0,0,0,.52.09c1.64,4.75,3.69,11.43,5.12,16.37A1.28,1.28,0,0,0,61.36,31.5Zm10.77,3.17H65.8c-1.41-5.35-5.58-19.31-7.91-25.08A42.4,42.4,0,0,1,72.13,7Z" transform="translate(0 0)"/>
</svg>
