<?xml version="1.0" encoding="utf-8"?>
<!-- Generator: Adobe Illustrator 21.1.0, SVG Export Plug-In . SVG Version: 6.00 Build 0)  -->
<svg version="1.0" id="Layer_1" xmlns="http://www.w3.org/2000/svg" xmlns:xlink="http://www.w3.org/1999/xlink" x="0px" y="0px"
	 viewBox="0 0 342 342" style="enable-background:new 0 0 342 342;" xml:space="preserve">
<style type="text/css">
	.st0{fill:#4197D3;}
	
		.st1{fill:none;stroke:#4197D3;stroke-width:6;stroke-linecap:round;stroke-linejoin:round;stroke-miterlimit:10;stroke-dasharray:20;}
	.st2{fill:#2C98D4;}
</style>
<path class="st0" d="M171.2,8.3c43.6,0,84.6,17,115.4,47.8s47.8,71.8,47.8,115.4s-17,84.6-47.8,115.4s-71.8,47.8-115.4,47.8
	s-84.6-17-115.4-47.8S7.9,215.1,7.9,171.5s17-84.6,47.8-115.4C86.6,25.2,127.6,8.3,171.2,8.3 M171.2,2.3
	C77.7,2.3,1.9,78.1,1.9,171.5s75.8,169.2,169.2,169.2S340.4,265,340.4,171.5S264.6,2.3,171.2,2.3L171.2,2.3z"/>
<path class="st0" d="M236.2,41.1c-0.2-0.2-0.5-0.4-0.8-0.6c-3.9-1.9-7.8-3.6-11.8-5.2l0,0c0,0,0,0-0.1,0l0,0c-0.1,0-0.1,0-0.2-0.1
	l0,0c0,0,0,0-0.1,0l0,0c-0.1,0-0.1,0-0.2-0.1c0,0,0,0,0,0c0,0,0,0,0,0h0c0,0,0,0-0.1,0l0,0c-0.1,0-0.1,0-0.1-0.1h0c0,0,0,0,0,0h0
	c0,0,0,0,0,0c0,0,0,0,0,0c0,0,0,0,0,0h0c0,0-0.1,0-0.1,0c0,0,0,0,0,0c0,0,0,0,0,0c0,0,0,0,0,0c0,0,0,0,0,0s0,0,0,0c0,0,0,0,0,0
	s0,0,0,0c0,0,0,0,0,0s0,0,0,0c0,0,0,0-0.1,0c0,0,0,0,0,0c0,0,0,0,0,0s0,0,0,0c0,0,0,0,0,0s0,0,0,0c0,0,0,0,0,0s0,0,0,0c0,0,0,0,0,0
	s0,0,0,0c0,0,0,0,0,0c0,0,0,0,0,0c0,0,0,0,0,0c0,0,0,0,0,0l0,0c0,0,0,0,0,0s0,0,0,0c0,0,0,0,0,0c0,0,0,0,0,0c0,0,0,0,0,0
	c0,0,0,0,0,0c0,0,0,0-0.1,0c0,0,0,0,0,0c0,0,0,0,0,0c0,0,0,0,0,0c0,0,0,0,0,0c0,0,0,0,0,0c0,0,0,0,0,0s0,0,0,0c0,0,0,0,0,0l0,0
	c0,0,0,0,0,0l0,0c0,0-0.1,0-0.1,0h0c0,0,0,0,0,0h0c0,0,0,0,0,0l0,0c-2.7-1-5.5-1.9-8.2-2.7c-1.6-0.5-3.3,0.4-3.7,2
	c-0.3,1.1,0,2.2,0.8,3c0.3,0.3,0.8,0.6,1.3,0.8c7.3,2.2,14.5,5,21.4,8.4c1.5,0.7,3.3,0.1,4-1.4C237.4,43.3,237.1,42,236.2,41.1
	L236.2,41.1z M191.4,27.6c-0.4-0.5-1.1-0.8-1.7-0.9h0c0,0-0.1,0-0.1,0c0,0,0,0,0,0c0,0-0.1,0-0.1,0c0,0,0,0,0,0c0,0-0.1,0-0.1,0
	c0,0,0,0,0,0c0,0-0.1,0-0.1,0h0c0,0-0.1,0-0.1,0c0,0,0,0,0,0c0,0-0.1,0-0.1,0h0c0,0-0.1,0-0.1,0l0,0c0,0-0.1,0-0.1,0h0
	c0,0-0.1,0-0.1,0h0c0,0-0.1,0-0.1,0l0,0c-0.1,0-0.1,0-0.2,0c0,0,0,0,0,0c0,0-0.1,0-0.1,0l0,0c-0.1,0-0.2,0-0.3,0h0
	c-6.2-0.7-12.5-1-18.7-1l0,0c0,0-0.1,0-0.1,0l0,0c-0.1,0-0.1,0-0.2,0l0,0c0,0-0.1,0-0.1,0c0,0,0,0,0,0c0,0-0.1,0-0.1,0l0,0
	c0,0-0.1,0-0.1,0c0,0,0,0,0,0c0,0-0.1,0-0.1,0h0c0,0-0.1,0-0.1,0h0c-0.1,0-0.1,0-0.2,0h0c0,0-0.1,0-0.1,0c0,0,0,0,0,0
	c0,0-0.1,0-0.1,0c0,0,0,0,0,0c0,0-0.1,0-0.1,0c0,0,0,0,0,0c0,0-0.1,0-0.1,0c0,0,0,0,0,0c0,0-0.1,0-0.1,0h0c0,0-0.1,0-0.1,0
	c0,0,0,0,0,0c0,0,0,0-0.1,0c0,0,0,0,0,0c0,0-0.1,0-0.1,0c0,0,0,0,0,0c0,0-0.1,0-0.1,0c0,0,0,0,0,0c0,0,0,0-0.1,0c0,0,0,0,0,0
	c0,0,0,0-0.1,0c0,0,0,0,0,0c0,0,0,0-0.1,0c0,0,0,0,0,0c0,0,0,0-0.1,0s0,0-0.1,0c0,0,0,0,0,0s0,0-0.1,0s0,0-0.1,0c0,0,0,0,0,0
	s0,0,0,0c0,0,0,0-0.1,0c0,0,0,0,0,0c0,0,0,0-0.1,0c0,0,0,0,0,0s0,0,0,0s0,0,0,0c0,0,0,0-0.1,0c0,0,0,0,0,0c0,0-0.1,0-0.1,0
	c0,0,0,0,0,0c0,0-0.1,0-0.1,0c0,0,0,0,0,0c0,0,0,0-0.1,0c0,0,0,0,0,0c0,0-0.1,0-0.1,0c0,0,0,0,0,0c0,0-0.1,0-0.1,0h0
	c-0.1,0-0.1,0-0.2,0l0,0c0,0-0.1,0-0.1,0l0,0c-0.1,0-0.2,0-0.2,0c-1.6,0.1-2.9,1.5-2.9,3.1c0,0.8,0.4,1.5,0.9,2
	c0.6,0.6,1.4,0.9,2.2,0.9c7.6-0.3,15.4,0,23,1c1.6,0.2,3.1-1,3.4-2.6C192.4,29.2,192,28.3,191.4,27.6L191.4,27.6z M144.6,29.4
	c-0.7-0.7-1.7-1-2.7-0.8c-7.8,1.6-15.5,3.8-23,6.7c-1.5,0.6-2.3,2.3-1.7,3.9c0.2,0.4,0.4,0.8,0.7,1c0.8,0.8,2.1,1.1,3.2,0.7
	c7.1-2.7,14.6-4.9,22.1-6.4c1.6-0.3,2.7-1.9,2.3-3.5C145.3,30.4,145,29.8,144.6,29.4L144.6,29.4z M100.9,46.2
	c-0.9-0.9-2.4-1.2-3.6-0.5c-2,1.2-4,2.4-6,3.7l0,0c0,0,0,0-0.1,0l0,0c-0.1,0-0.1,0.1-0.1,0.1c0,0,0,0,0,0c0,0,0,0,0,0c0,0,0,0,0,0
	c0,0,0,0,0,0l0,0c-0.1,0-0.1,0.1-0.1,0.1c0,0,0,0,0,0c0,0,0,0,0,0c0,0,0,0,0,0c-0.1,0-0.1,0.1-0.1,0.1c0,0,0,0,0,0c0,0,0,0,0,0l0,0
	c0,0,0,0,0,0c0,0,0,0,0,0c0,0-0.1,0-0.1,0.1l0,0c0,0,0,0,0,0l0,0c0,0,0,0,0,0l0,0c0,0,0,0,0,0c0,0,0,0,0,0c0,0-0.1,0-0.1,0.1l0,0
	c0,0,0,0,0,0l0,0c0,0,0,0,0,0l0,0c0,0,0,0,0,0c0,0,0,0,0,0c0,0,0,0,0,0c0,0,0,0,0,0c0,0,0,0,0,0l0,0c0,0,0,0,0,0l0,0c0,0,0,0,0,0
	l0,0c0,0-0.1,0-0.1,0.1c0,0,0,0,0,0c0,0,0,0,0,0l0,0c0,0,0,0,0,0s0,0,0,0c0,0,0,0,0,0c0,0,0,0,0,0c0,0-0.1,0-0.1,0.1l0,0
	c0,0,0,0,0,0c0,0,0,0,0,0c0,0,0,0,0,0c0,0,0,0,0,0c0,0,0,0,0,0l0,0c0,0,0,0,0,0c0,0,0,0,0,0c0,0,0,0,0,0c0,0,0,0,0,0c0,0,0,0,0,0
	c0,0,0,0,0,0c0,0,0,0,0,0c0,0,0,0,0,0c0,0,0,0,0,0c0,0,0,0,0,0c0,0,0,0,0,0c0,0,0,0,0,0c0,0,0,0,0,0c0,0,0,0,0,0c0,0,0,0,0,0
	c0,0,0,0,0,0c0,0,0,0,0,0c0,0,0,0,0,0c0,0,0,0,0,0c0,0,0,0,0,0c0,0,0,0,0,0c0,0,0,0,0,0c0,0,0,0,0,0c0,0,0,0,0,0c0,0,0,0,0,0
	c0,0,0,0,0,0c0,0,0,0,0,0c0,0,0,0-0.1,0l0,0c0,0,0,0,0,0c0,0,0,0,0,0c0,0,0,0,0,0c0,0,0,0,0,0c0,0,0,0,0,0l0,0c0,0,0,0,0,0
	c0,0,0,0,0,0c0,0,0,0-0.1,0c0,0,0,0,0,0c0,0,0,0,0,0c0,0,0,0,0,0c0,0,0,0,0,0c0,0,0,0,0,0c0,0,0,0,0,0c0,0,0,0,0,0c0,0,0,0-0.1,0
	l0,0c0,0,0,0,0,0c0,0,0,0,0,0c0,0,0,0,0,0c0,0,0,0,0,0c0,0,0,0,0,0c0,0,0,0,0,0c0,0,0,0,0,0c0,0,0,0,0,0c0,0,0,0-0.1,0l0,0
	c0,0,0,0,0,0l0,0c0,0,0,0,0,0c0,0,0,0,0,0c0,0,0,0,0,0c0,0,0,0,0,0c0,0-0.1,0-0.1,0.1c0,0,0,0,0,0c0,0,0,0,0,0c0,0,0,0,0,0
	c0,0,0,0,0,0c0,0,0,0,0,0c0,0,0,0,0,0c0,0,0,0,0,0c0,0,0,0-0.1,0c0,0,0,0,0,0c0,0,0,0,0,0l0,0c0,0,0,0,0,0c0,0,0,0,0,0c0,0,0,0,0,0
	c0,0,0,0,0,0c0,0,0,0,0,0c0,0,0,0,0,0c0,0,0,0,0,0c0,0,0,0,0,0c0,0,0,0,0,0c0,0,0,0,0,0c0,0,0,0,0,0c0,0,0,0,0,0c0,0,0,0,0,0
	c0,0,0,0,0,0c0,0,0,0,0,0c0,0,0,0,0,0c0,0,0,0,0,0c0,0,0,0,0,0c0,0,0,0,0,0c0,0,0,0,0,0c0,0,0,0,0,0c0,0,0,0,0,0c0,0,0,0,0,0
	c0,0,0,0,0,0c0,0,0,0,0,0c0,0,0,0,0,0c0,0,0,0,0,0c0,0,0,0,0,0c0,0,0,0,0,0c0,0,0,0,0,0c0,0,0,0,0,0c0,0,0,0,0,0c0,0,0,0,0,0
	c0,0,0,0,0,0c0,0,0,0,0,0c0,0,0,0,0,0c0,0,0,0,0,0c0,0,0,0,0,0c0,0,0,0,0,0c0,0,0,0,0,0c0,0,0,0,0,0c0,0,0,0,0,0l0,0c0,0,0,0,0,0
	c0,0,0,0,0,0c0,0,0,0,0,0c0,0,0,0,0,0c0,0,0,0,0,0c0,0,0,0,0,0c0,0,0,0,0,0c0,0,0,0,0,0c0,0,0,0,0,0c0,0,0,0,0,0c0,0,0,0,0,0
	c0,0,0,0,0,0c0,0,0,0,0,0c0,0,0,0,0,0c0,0,0,0,0,0c0,0,0,0,0,0c0,0,0,0,0,0c0,0,0,0,0,0c0,0,0,0,0,0c0,0,0,0,0,0c0,0,0,0,0,0
	c0,0,0,0,0,0c0,0,0,0,0,0c0,0,0,0,0,0c0,0,0,0,0,0c0,0,0,0,0,0c0,0,0,0,0,0c0,0,0,0,0,0c0,0,0,0,0,0c0,0,0,0,0,0c0,0,0,0,0,0
	c0,0,0,0,0,0c0,0,0,0,0,0c0,0,0,0,0,0c0,0,0,0,0,0c0,0,0,0,0,0c0,0,0,0,0,0l0,0c0,0,0,0,0,0c0,0,0,0,0,0c0,0,0,0,0,0c0,0,0,0,0,0
	c0,0,0,0,0,0c0,0,0,0,0,0c0,0,0,0,0,0l0,0c0,0,0,0,0,0l0,0c0,0,0,0,0,0l0,0c0,0,0,0,0,0l0,0c0,0,0,0,0,0l0,0c0,0-0.1,0-0.1,0.1l0,0
	c0,0,0,0,0,0l0,0c0,0,0,0,0,0l0,0c0,0,0,0,0,0l0,0c0,0,0,0,0,0l0,0c0,0,0,0,0,0l0,0c0,0,0,0,0,0l0,0c0,0,0,0,0,0c0,0,0,0,0,0
	c0,0-0.1,0-0.1,0.1l0,0c0,0,0,0,0,0c0,0,0,0,0,0c0,0,0,0,0,0l0,0c-0.1,0-0.1,0.1-0.1,0.1l0,0c0,0,0,0,0,0l0,0c0,0,0,0,0,0l0,0
	c-0.1,0-0.1,0.1-0.2,0.1l0,0c-2.3,1.7-4.5,3.5-6.7,5.3c-1.3,1.1-1.4,3-0.4,4.2c0.1,0.1,0.1,0.1,0.2,0.2c1.1,1.1,2.8,1.2,4.1,0.2
	c5.9-4.9,12.2-9.4,18.8-13.3c1.4-0.8,1.9-2.7,1.1-4.1C101.3,46.6,101.1,46.4,100.9,46.2L100.9,46.2z M65.1,76.3
	c-0.1-0.1-0.1-0.1-0.2-0.2c-1.3-1.1-3.2-0.9-4.2,0.3c-5.3,6.2-10,12.6-14.1,19.4c-0.7,1.2-0.5,2.7,0.4,3.7c0.2,0.2,0.4,0.3,0.6,0.4
	c1.4,0.9,3.3,0.4,4.1-1c4-6.5,8.5-12.8,13.5-18.6C66.2,79.1,66.2,77.4,65.1,76.3L65.1,76.3z M40.8,116.3c-0.3-0.3-0.6-0.5-1-0.7
	c-1.5-0.6-3.3,0.1-3.9,1.7c-1.2,3.1-2.4,6.2-3.4,9.4l0,0c0,0,0,0,0,0l0,0c0,0.1-0.1,0.2-0.1,0.3v0c0,0,0,0,0,0l0,0
	c0,0.1,0,0.1-0.1,0.2l0,0c0,0,0,0,0,0c0,0,0,0,0,0s0,0,0,0l0,0c0,0,0,0,0,0l0,0c0,0.1,0,0.1,0,0.2v0c0,0,0,0,0,0v0c0,0,0,0,0,0v0
	c0,0,0,0,0,0v0c0,0,0,0.1,0,0.1v0c0,0,0,0,0,0c0,0,0,0,0,0c0,0,0,0,0,0s0,0,0,0c0,0,0,0,0,0v0c0,0,0,0,0,0v0c0,0,0,0.1,0,0.1l0,0
	c0,0,0,0,0,0v0c0,0,0,0,0,0v0c0,0,0,0,0,0c0,0,0,0,0,0c0,0,0,0,0,0c0,0,0,0,0,0c0,0,0,0,0,0.1v0c0,0,0,0,0,0c0,0,0,0,0,0
	c0,0,0,0,0,0s0,0,0,0c0,0,0,0,0,0s0,0,0,0c0,0,0,0,0,0c0,0,0,0,0,0c0,0,0,0,0,0s0,0,0,0c0,0,0,0,0,0.1c0,0,0,0,0,0c0,0,0,0,0,0
	c0,0,0,0,0,0c0,0,0,0,0,0s0,0,0,0c0,0,0,0,0,0c0,0,0,0,0,0c0,0,0,0,0,0c0,0,0,0,0,0c0,0,0,0,0,0.1c0,0,0,0,0,0c0,0,0,0,0,0
	c0,0,0,0,0,0c0,0,0,0,0,0c0,0,0,0,0,0c0,0,0,0,0,0s0,0,0,0c0,0,0,0,0,0s0,0,0,0c0,0,0,0,0,0s0,0,0,0c0,0,0,0,0,0.1c0,0,0,0,0,0
	c0,0,0,0,0,0c0,0,0,0,0,0s0,0,0,0c0,0,0,0,0,0s0,0,0,0c0,0,0,0,0,0c0,0,0,0,0,0s0,0,0,0c0,0,0,0,0,0c0,0,0,0,0,0s0,0,0,0s0,0,0,0
	c0,0,0,0,0,0l0,0c0,0,0,0,0,0s0,0,0,0c0,0,0,0,0,0c0,0,0,0,0,0c0,0,0,0,0,0l0,0c0,0,0,0.1,0,0.1l0,0c0,0,0,0,0,0c0,0,0,0,0,0
	s0,0,0,0c0,0,0,0,0,0s0,0,0,0c0,0,0,0,0,0s0,0,0,0c0,0,0,0,0,0c0,0,0,0,0,0c0,0,0,0,0,0.1c0,0,0,0,0,0c0,0,0,0,0,0s0,0,0,0
	c0,0,0,0,0,0s0,0,0,0c0,0,0,0,0,0s0,0,0,0c0,0,0,0,0,0s0,0,0,0c0,0,0,0,0,0.1c0,0,0,0,0,0c0,0,0,0,0,0s0,0,0,0c0,0,0,0,0,0s0,0,0,0
	c0,0,0,0,0,0s0,0,0,0c0,0,0,0,0,0s0,0,0,0c0,0,0,0,0,0s0,0,0,0c0,0,0,0.1,0,0.1v0c0,0,0,0,0,0v0c0,0,0,0,0,0s0,0,0,0c0,0,0,0,0,0v0
	c0,0,0,0.1,0,0.1l0,0c0,0,0,0,0,0.1v0c0,0,0,0,0,0v0c0,0,0,0,0,0v0c0,0.1,0,0.1,0,0.1l0,0c0,0,0,0,0,0.1c0,0,0,0,0,0c0,0,0,0,0,0.1
	c0,0,0,0,0,0c0,0,0,0,0,0v0c0,0.1,0,0.1,0,0.2l0,0c0,0,0,0,0,0.1c0,0,0,0,0,0c0,0,0,0,0,0.1l0,0c0,0.1,0,0.2-0.1,0.3l0,0
	c0,0.1-0.1,0.2-0.1,0.3c0,0,0,0,0,0c0,0,0,0,0,0.1l0,0c-0.7,2.6-1.3,5.1-1.9,7.7c-0.2,1,0.1,2.1,0.8,2.8c0.4,0.4,0.9,0.7,1.5,0.8
	c1.6,0.4,3.2-0.7,3.6-2.3c1.6-7.5,3.9-14.9,6.7-22C41.9,118.3,41.6,117.1,40.8,116.3L40.8,116.3z M30.8,162c-0.5-0.5-1.2-0.8-2-0.9
	c-1.6-0.1-3.1,1.2-3.1,2.8c-0.3,5.6-0.2,11.1,0.1,16.7l0,0c0,0,0,0.1,0,0.1l0,0c0,0.1,0,0.2,0,0.3l0,0c0,0,0,0.1,0,0.1l0,0
	c0,0.1,0,0.1,0,0.2c0,0,0,0,0,0c0,0,0,0.1,0,0.1c0,0,0,0,0,0c0,0.1,0,0.1,0,0.2v0c0,0,0,0.1,0,0.1v0c0,0,0,0.1,0,0.1v0
	c0,0.1,0,0.1,0,0.2c0,0,0,0,0,0c0,0,0,0.1,0,0.1c0,0,0,0,0,0c0,0,0,0.1,0,0.1v0c0,0,0,0.1,0,0.1c0,0,0,0,0,0c0,0,0,0.1,0,0.1
	c0,0,0,0,0,0c0,0,0,0.1,0,0.1c0,0,0,0,0,0c0,0,0,0.1,0,0.1c0,0,0,0,0,0c0,0,0,0.1,0,0.1c0,0,0,0,0,0c0,0,0,0.1,0,0.1c0,0,0,0,0,0
	c0,0,0,0.1,0,0.1c0,0,0,0,0,0c0,0,0,0,0,0.1c0,0,0,0,0,0c0,0,0,0.1,0,0.1c0,0,0,0,0,0c0,0,0,0,0,0.1c0,0,0,0,0,0c0,0,0,0,0,0.1
	c0,0,0,0,0,0c0,0,0,0,0,0.1c0,0,0,0,0,0c0,0,0,0,0,0.1c0,0,0,0,0,0c0,0,0,0,0,0.1c0,0,0,0,0,0.1c0,0,0,0,0,0c0,0,0,0,0,0.1
	s0,0,0,0.1c0,0,0,0,0,0c0,0,0,0,0,0.1c0,0,0,0,0,0s0,0,0,0c0,0,0,0,0,0.1c0,0,0,0,0,0c0,0,0,0,0,0c0,0,0,0,0,0.1c0,0,0,0,0,0
	s0,0,0,0c0,0,0,0.1,0,0.1c0,0,0,0,0,0c0,0,0,0.1,0,0.1c0,0,0,0,0,0c0,0,0,0,0,0.1v0c0,0,0,0.1,0,0.1c0,0,0,0,0,0c0,0,0,0.1,0,0.1
	c0,0,0,0,0,0c0,0.1,0,0.1,0,0.1v0c0,0,0,0.1,0,0.1v0c0,0,0,0.1,0,0.1l0,0c0,0.1,0,0.1,0,0.2l0,0c0,0,0,0.1,0,0.1l0,0
	c0.1,0.9,0.2,1.8,0.3,2.8c0.1,0.7,0.4,1.3,0.9,1.8c0.6,0.6,1.5,1,2.5,0.9c1.6-0.2,2.8-1.7,2.6-3.3c-0.9-7.6-1.1-15.3-0.7-23
	C31.7,163.4,31.4,162.6,30.8,162L30.8,162z M36.1,208.5c-0.7-0.7-1.9-1.1-3-0.8c-1.6,0.4-2.5,2.1-2.1,3.7c2.2,7.6,5,15.2,8.5,22.4
	c0.2,0.3,0.3,0.6,0.6,0.8c0.9,0.9,2.2,1.1,3.4,0.6c1.5-0.7,2.1-2.5,1.4-4c-3.3-6.9-6-14.1-8.1-21.5
	C36.7,209.3,36.4,208.9,36.1,208.5L36.1,208.5z M56.2,250.8c-1-1-2.6-1.2-3.8-0.3c-1.4,0.9-1.7,2.8-0.7,4.2c0.6,0.8,1.1,1.6,1.7,2.4
	l0,0c0,0,0,0,0,0l0,0c0,0,0.1,0.1,0.1,0.1l0,0c0,0,0,0,0,0l0,0c0,0,0,0,0,0c0,0,0,0,0,0c0,0,0,0,0,0l0,0c0,0,0,0,0,0.1l0,0
	c0,0,0,0,0,0l0,0c0,0,0,0,0,0c0,0,0,0,0,0c0,0,0,0,0,0l0,0c0,0,0,0,0,0c0,0,0,0,0,0c0,0,0,0,0,0c0,0,0,0,0,0c0,0,0,0,0,0
	c0,0,0,0,0,0c0,0,0,0,0,0c0,0,0,0,0,0l0,0c0,0,0,0,0,0c0,0,0,0,0,0c0,0,0,0,0,0l0,0c0,0,0,0,0,0l0,0c0,0,0,0,0,0l0,0
	c0,0,0,0.1,0.1,0.1l0,0c0,0,0,0,0,0l0,0c0,0,0,0,0,0l0,0c2.6,3.5,5.3,6.8,8.2,10.1l0,0c0,0.1,0.1,0.1,0.2,0.2l0,0c0,0,0,0,0,0l0,0
	c0,0,0.1,0.1,0.1,0.1l0,0c0,0,0,0,0,0c0,0,0,0,0,0c0,0,0,0,0,0l0,0c0,0,0,0,0.1,0.1c0,0,0,0,0,0c0,0,0,0,0,0l0,0c0,0,0,0,0,0l0,0
	c0,0,0,0,0.1,0.1l0,0c0,0,0,0,0,0l0,0c0,0,0,0,0,0c0,0,0,0,0,0c0,0,0,0,0,0l0,0c0,0,0,0,0,0c0,0,0,0,0,0c0,0,0,0,0,0c0,0,0,0,0,0
	c0,0,0,0,0,0c0,0,0,0,0,0c0,0,0,0,0,0l0,0c0,0,0,0,0,0c0,0,0,0,0,0c0,0,0,0,0,0c0,0,0,0,0,0c0,0,0,0,0,0c0,0,0,0,0,0c0,0,0,0,0,0
	c0,0,0,0,0,0c0,0,0,0,0,0c0,0,0,0,0,0c0,0,0,0,0,0c0,0,0,0,0,0c0,0,0,0,0,0c0,0,0,0,0,0c0,0,0,0,0,0c0,0,0,0,0,0l0,0c0,0,0,0,0,0
	l0,0c0,0,0,0,0,0l0,0c0,0,0,0,0,0l0,0c0,0,0,0,0,0l0,0c0,0,0,0.1,0.1,0.1c0,0,0,0,0,0s0,0,0,0l0,0c0,0,0,0,0,0c0,0,0,0,0,0
	c0,0,0.1,0.1,0.1,0.1l0,0c0,0,0,0,0,0c0,0,0,0,0,0s0,0,0,0c0,0,0,0,0,0c0.9,1,1.9,2,2.8,3c0,0,0,0,0,0c1.2,1.2,3,1.2,4.2,0
	c1.2-1.2,1.2-3.1,0.1-4.2c-5.4-5.5-10.3-11.5-14.7-17.7C56.4,251,56.3,250.9,56.2,250.8L56.2,250.8z M108.8,296.6
	c-0.2-0.2-0.5-0.4-0.8-0.5c-6.8-3.5-13.4-7.5-19.6-12c-1.3-1-3.2-0.7-4.2,0.6c-0.9,1.2-0.7,2.9,0.3,3.9c0.1,0.1,0.2,0.2,0.3,0.3
	c2.2,1.6,4.5,3.2,6.8,4.7l0,0c0.1,0,0.2,0.1,0.2,0.1h0c0.1,0,0.1,0.1,0.2,0.1l0,0c0,0,0,0,0,0c0,0,0,0,0,0c0,0,0,0,0,0c0,0,0,0,0,0
	s0,0,0,0l0,0c0,0,0.1,0,0.1,0.1l0,0c0,0,0,0,0,0c0,0,0,0,0,0c0,0,0,0,0,0c0,0,0,0,0,0c0,0,0,0,0,0l0,0c0,0,0,0,0,0c0,0,0,0,0,0
	c0,0,0,0,0,0c0,0,0,0,0,0c0,0,0,0,0,0c0,0,0,0,0,0c0,0,0,0,0,0c0,0,0,0,0,0c0,0,0,0,0,0c0,0,0,0,0,0c0,0,0,0,0,0c0,0,0,0,0,0
	c0,0,0,0,0,0c0,0,0,0,0,0c0,0,0,0,0,0c0,0,0,0,0,0c0,0,0,0,0,0c0,0,0,0,0,0l0,0c0,0,0,0,0,0c0,0,0,0,0,0c0,0,0,0,0,0c0,0,0,0,0,0
	c0,0,0,0,0,0c0,0,0,0,0,0c0,0,0,0,0,0l0,0c0,0,0,0,0,0c0,0,0,0,0,0c0,0,0.1,0,0.1,0.1c0,0,0,0,0,0c0,0,0,0,0,0c0,0,0,0,0,0
	c0,0,0,0,0,0h0c0.1,0,0.1,0.1,0.2,0.1l0,0c0,0,0,0,0,0l0,0c3.8,2.4,7.8,4.6,11.8,6.7c1.5,0.8,3.3,0.2,4-1.3
	C110,298.9,109.7,297.5,108.8,296.6L108.8,296.6z M153.5,310.6c-0.4-0.4-1-0.8-1.7-0.9c-7.6-1.1-15.1-2.8-22.4-5
	c-1.6-0.5-3.3,0.4-3.8,2c-0.3,1.1,0,2.3,0.7,3c0.3,0.3,0.8,0.6,1.2,0.7c3.8,1.2,7.6,2.2,11.4,3.1c0,0,0,0,0,0s0,0,0,0l0,0
	c0,0,0,0,0,0l0,0c0.1,0,0.1,0,0.2,0h0c0,0,0,0,0,0c0,0,0,0,0,0s0,0,0,0h0c0,0,0,0,0,0l0,0c0.1,0,0.1,0,0.2,0c0,0,0,0,0,0s0,0,0,0h0
	c0,0,0,0,0,0c0,0,0,0,0,0s0,0,0,0h0c0.1,0,0.1,0,0.2,0c0,0,0,0,0,0c0,0,0,0,0,0h0c0,0,0,0,0,0h0c0,0,0,0,0,0h0c0,0,0.1,0,0.1,0h0
	c0,0,0,0,0,0c0,0,0,0,0,0c0,0,0,0,0,0c0,0,0,0,0,0c0,0,0,0,0,0h0c0,0,0,0,0,0h0c0,0,0,0,0,0s0,0,0,0c0,0,0,0,0,0c0,0,0,0,0,0
	c0,0,0,0,0,0c0,0,0,0,0,0c0,0,0,0,0,0c0,0,0,0,0,0c0,0,0,0,0,0c0,0,0,0,0,0c0,0,0,0,0,0c0,0,0,0,0,0h0c0,0,0,0,0.1,0h0c0,0,0,0,0,0
	c0,0,0,0,0,0c0,0,0,0,0,0c0,0,0,0,0,0c0,0,0,0,0,0c0,0,0,0,0,0c0,0,0,0,0,0h0c0,0,0,0,0.1,0l0,0c0,0,0,0,0.1,0c0,0,0,0,0,0
	c0,0,0,0,0,0c0,0,0,0,0,0c0,0,0,0,0,0c0,0,0,0,0,0c0,0,0,0,0,0c0,0,0,0,0,0c0,0,0,0,0,0l0,0c0,0,0.1,0,0.1,0l0,0c0,0,0,0,0.1,0h0
	c0,0,0,0,0,0h0c0,0,0,0,0,0h0c0.1,0,0.1,0,0.2,0c0,0,0,0,0,0c0,0,0,0,0.1,0c0,0,0,0,0,0c0,0,0,0,0.1,0l0,0c0.1,0,0.1,0,0.2,0l0,0
	c2.9,0.6,5.9,1.1,8.8,1.5c1.6,0.2,3.1-0.9,3.4-2.6C154.5,312.2,154.1,311.2,153.5,310.6L153.5,310.6z M200.3,309.4
	c-0.7-0.7-1.7-1-2.7-0.8c-7.5,1.4-15.2,2.3-22.9,2.5c-1.7,0-3,1.4-2.9,3.1c0,0.8,0.4,1.5,0.9,2c0.6,0.6,1.3,0.9,2.2,0.9
	c0.1,0,0.1,0,0.1,0l0,0c0,0,0.1,0,0.1,0h0c0,0,0.1,0,0.1,0l0,0c0,0,0,0,0.1,0c0,0,0,0,0,0c0,0,0.1,0,0.1,0c0,0,0,0,0,0
	c0,0,0.1,0,0.1,0c0,0,0,0,0,0c0,0,0.1,0,0.1,0c0,0,0,0,0,0s0,0,0.1,0c0,0,0,0,0,0c0,0,0.1,0,0.1,0c0,0,0,0,0,0c0,0,0,0,0.1,0
	c0,0,0,0,0,0c0,0,0,0,0,0s0,0,0,0c0,0,0,0,0.1,0c0,0,0,0,0,0c0,0,0,0,0.1,0c0,0,0,0,0,0s0,0,0,0c0,0,0,0,0.1,0c0,0,0,0,0,0
	c0,0,0,0,0.1,0c0,0,0,0,0.1,0s0,0,0.1,0c0,0,0,0,0,0c0,0,0,0,0.1,0c0,0,0,0,0,0c0,0,0.1,0,0.1,0c0,0,0,0,0,0c0,0,0,0,0.1,0
	c0,0,0,0,0,0c0,0,0,0,0.1,0c0,0,0,0,0,0c0,0,0.1,0,0.1,0c0,0,0,0,0,0c0,0,0,0,0.1,0c0,0,0,0,0,0c0,0,0,0,0.1,0c0,0,0,0,0,0
	c0,0,0.1,0,0.1,0c0,0,0,0,0,0c0,0,0.1,0,0.1,0c0,0,0,0,0,0c0,0,0.1,0,0.1,0c0,0,0,0,0,0c0,0,0.1,0,0.1,0h0c0,0,0.1,0,0.1,0h0
	c0,0,0.1,0,0.1,0h0c0,0,0.1,0,0.1,0c0,0,0,0,0,0c0,0,0.1,0,0.1,0c0,0,0,0,0,0c0,0,0.1,0,0.1,0c0,0,0,0,0,0c0,0,0.1,0,0.1,0
	c0,0,0,0,0,0c0,0,0.1,0,0.1,0h0c0,0,0.1,0,0.1,0h0c0,0,0.1,0,0.1,0l0,0c0,0,0.1,0,0.1,0h0c0,0,0.1,0,0.1,0h0c0,0,0.1,0,0.1,0h0
	c0,0,0.1,0,0.1,0l0,0c0,0,0.1,0,0.1,0h0c0,0,0.1,0,0.1,0c0,0,0,0,0,0c0,0,0.1,0,0.1,0l0,0c0,0,0.1,0,0.1,0l0,0c0,0,0.1,0,0.1,0h0
	c0,0,0.1,0,0.1,0l0,0c0.1,0,0.1,0,0.2,0c0,0,0,0,0,0c0,0,0.1,0,0.1,0l0,0c0.1,0,0.2,0,0.3,0l0,0c0.1,0,0.2,0,0.3,0l0,0
	c0,0,0.1,0,0.1,0l0,0c0.1,0,0.2,0,0.3,0l0,0c4-0.2,8-0.7,12-1.3l0,0c0,0,0.1,0,0.1,0l0,0c0.1,0,0.1,0,0.2,0l0,0c0,0,0.1,0,0.1,0h0
	c0.1,0,0.2,0,0.3,0c0,0,0,0,0,0c0,0,0.1,0,0.1,0l0,0c0.1,0,0.1,0,0.2,0h0c0,0,0.1,0,0.1,0h0c0,0,0.1,0,0.1,0l0,0c0,0,0.1,0,0.1,0
	l0,0c0,0,0.1,0,0.1,0c0,0,0,0,0,0c0,0,0.1,0,0.1,0h0c0.1,0,0.1,0,0.2,0c0,0,0,0,0,0c0,0,0.1,0,0.1,0h0c0,0,0.1,0,0.1,0c0,0,0,0,0,0
	c0,0,0.1,0,0.1,0c0,0,0,0,0,0c0,0,0.1,0,0.1,0h0c0,0,0.1,0,0.1,0h0c0.1,0,0.1,0,0.2,0c0,0,0,0,0,0c0,0,0.1,0,0.1,0h0
	c0,0,0.1,0,0.1,0c0,0,0,0,0,0c0,0,0.1,0,0.1,0c0,0,0,0,0,0c0,0,0.1,0,0.1,0h0c0,0,0.1,0,0.1,0h0c0.1,0,0.1,0,0.2,0h0
	c0,0,0.1,0,0.1,0h0c0,0,0.1,0,0.1,0c0,0,0,0,0,0c0,0,0.1,0,0.1,0c0,0,0,0,0,0c0,0,0.1,0,0.1,0c0,0,0,0,0,0c0,0,0.1,0,0.1,0
	c0,0,0,0,0,0c0,0,0.1,0,0.1,0h0c0,0,0.1,0,0.1,0c0,0,0,0,0,0c0,0,0.1,0,0.1,0h0c0,0,0.1,0,0.1,0h0c0,0,0.1,0,0.1,0c0,0,0,0,0,0
	c0,0,0.1,0,0.1,0c0,0,0,0,0,0c0,0,0.1,0,0.1,0c0,0,0,0,0,0c0,0,0.1,0,0.1,0h0c0,0,0.1,0,0.1,0h0c0,0,0.1,0,0.1,0c0,0,0,0,0,0
	c0,0,0.1,0,0.1,0c0,0,0,0,0,0c0,0,0,0,0.1,0c0,0,0,0,0,0c0,0,0.1,0,0.1,0c0,0,0,0,0,0c0,0,0.1,0,0.1,0c0,0,0,0,0,0c0,0,0,0,0.1,0
	c0,0,0,0,0,0c0,0,0,0,0.1,0h0c0,0,0.1,0,0.1,0c0,0,0,0,0,0c0,0,0.1,0,0.1,0c0,0,0,0,0,0c0,0,0,0,0.1,0c0,0,0,0,0,0c0,0,0.1,0,0.1,0
	c0,0,0,0,0,0c0,0,0.1,0,0.1,0c0,0,0,0,0,0c0,0,0,0,0.1,0c0,0,0,0,0,0c0,0,0,0,0.1,0c0,0,0,0,0,0c0,0,0.1,0,0.1,0c0,0,0,0,0,0
	c0,0,0,0,0.1,0c0,0,0,0,0,0c0,0,0,0,0.1,0c0,0,0,0,0,0c0,0,0.1,0,0.1,0c0,0,0,0,0,0c0,0,0,0,0.1,0c0,0,0,0,0,0c0,0,0,0,0.1,0
	c0,0,0,0,0,0c0,0,0,0,0.1,0c0,0,0,0,0,0c0,0,0,0,0.1,0c0,0,0,0,0,0c1.6-0.3,2.7-1.9,2.4-3.5C201,310.4,200.7,309.9,200.3,309.4
	L200.3,309.4z M244.2,293.2c-0.9-0.9-2.4-1.2-3.6-0.5c-6.6,3.8-13.6,7.1-20.8,9.7c-1.6,0.6-2.4,2.3-1.8,3.9c0.2,0.4,0.4,0.8,0.7,1.1
	c0.8,0.8,2,1.1,3.1,0.7c6.1-2.2,12.1-4.9,17.9-8l0,0c0,0,0,0,0.1,0c0,0,0,0,0,0c0,0,0,0,0,0c0,0,0,0,0,0c0,0,0,0,0,0c0,0,0,0,0,0
	c0,0,0.1,0,0.1,0c0,0,0,0,0,0c0,0,0,0,0,0c0,0,0,0,0,0c0,0,0,0,0,0s0,0,0,0c0,0,0,0,0,0s0,0,0,0c0,0,0,0,0,0c0,0,0,0,0,0
	c0,0,0,0,0,0c0,0,0,0,0,0l0,0c0,0,0,0,0,0c0,0,0,0,0,0c0,0,0,0,0,0s0,0,0,0c0,0,0,0,0,0c0,0,0,0,0,0c0.1,0,0.1-0.1,0.1-0.1l0,0
	c0,0,0,0,0,0h0c1-0.5,2-1.1,3-1.6c1.4-0.8,1.9-2.7,1.1-4.1C244.5,293.6,244.4,293.4,244.2,293.2L244.2,293.2z M280.4,263.6
	c0,0-0.1-0.1-0.1-0.1c-1.2-1.1-3.1-1-4.2,0.3c-1.9,2.2-4,4.3-6,6.4c-3.4,3.4-6.9,6.6-10.5,9.5c-1.3,1-1.5,2.9-0.4,4.2
	c0.1,0.1,0.1,0.2,0.2,0.2c1.1,1.1,2.8,1.2,4,0.2c2-1.6,4-3.4,5.9-5.1l0,0c0,0,0,0,0,0l0,0c0,0,0,0,0,0l0,0c0,0,0,0,0,0l0,0
	c0,0,0,0,0,0h0c0,0,0,0,0,0l0,0c0,0,0,0,0,0l0,0c0,0,0,0,0,0l0,0c0,0,0,0,0,0c0,0,0,0,0,0s0,0,0,0c0,0,0,0,0,0s0,0,0,0c0,0,0,0,0,0
	s0,0,0,0c0,0,0,0,0,0s0,0,0,0l0,0c0,0,0,0,0,0c0,0,0,0,0,0s0,0,0,0l0,0c0,0,0,0,0,0l0,0c0,0,0,0,0,0l0,0c0,0,0,0,0,0l0,0
	c0,0,0,0,0,0l0,0c0,0,0,0,0,0l0,0c0,0,0,0,0,0l0,0c0,0,0,0,0,0l0,0c0,0,0,0,0,0l0,0c0,0,0,0,0,0l0,0c0,0,0,0,0,0l0,0c0,0,0,0,0,0
	l0,0c0,0,0,0,0,0l0,0c0,0,0,0,0,0l0,0c0,0,0,0,0,0c0,0,0,0,0,0c0,0,0,0,0,0c0,0,0,0,0,0c0,0,0,0,0,0s0,0,0,0c0,0,0,0,0,0s0,0,0,0
	c0,0,0,0,0,0s0,0,0,0c0,0,0,0,0,0c0,0,0,0,0,0c0,0,0,0,0,0c0,0,0,0,0,0c0,0,0,0,0,0c0,0,0,0,0,0c0,0,0,0,0,0s0,0,0,0c0,0,0,0,0,0
	s0,0,0,0c0,0,0,0,0,0s0,0,0,0c0,0,0,0,0,0s0,0,0,0c0,0,0,0,0,0c0,0,0,0,0,0c0,0,0,0,0,0c0,0,0,0,0,0c0,0,0,0,0,0c0,0,0,0,0,0
	c0,0,0,0,0,0c0,0,0,0,0,0c0,0,0,0,0,0c0,0,0,0,0,0c0,0,0,0,0,0c0,0,0,0,0,0c0,0,0,0,0,0c0,0,0,0,0,0c0,0,0,0,0,0c0,0,0,0,0,0
	c0,0,0,0,0,0c0,0,0,0,0,0c0,0,0,0,0,0c0,0,0,0,0,0c0,0,0,0,0,0c0,0,0,0,0,0c0,0,0,0,0,0c0,0,0,0,0,0c0,0,0,0,0,0c0,0,0,0,0,0
	c0,0,0,0,0,0c0,0,0,0,0,0c0,0,0,0,0,0c0,0,0,0,0,0c0,0,0,0,0,0c0,0,0,0,0,0c0,0,0,0,0,0c0,0,0,0,0,0c0,0,0,0,0,0c0,0,0,0,0,0
	c0,0,0,0,0,0c0,0,0,0,0,0c0,0,0,0,0,0c0,0,0,0,0,0c0,0,0,0,0,0c0,0,0,0,0,0c0,0,0,0,0,0c0,0,0,0,0,0c0,0,0,0,0,0c0,0,0,0,0,0
	c0,0,0,0,0,0c0,0,0,0,0,0c0,0,0,0,0,0c0,0,0,0,0,0c0,0,0,0,0,0c0,0,0,0,0,0c0,0,0,0,0,0c0,0,0,0,0,0c0,0,0,0,0,0c0,0,0,0,0,0
	c0,0,0,0,0,0c0,0,0,0,0,0c0,0,0,0,0,0c0,0,0,0,0,0c0,0,0,0,0,0c0,0,0,0,0,0c0,0,0,0,0,0c0,0,0,0,0,0c0,0,0,0,0,0c0,0,0,0,0,0
	c0,0,0,0,0,0c0,0,0,0,0,0c0,0,0,0,0,0c0,0,0,0,0,0c0,0,0,0,0,0c0,0,0,0,0,0c0,0,0,0,0,0c0,0,0,0,0,0c0,0,0,0,0,0c0,0,0,0,0,0
	c0,0,0,0,0,0l0,0c0,0,0,0,0,0c0,0,0,0,0,0c0,0,0,0,0,0c0,0,0,0,0,0c0,0,0,0,0,0c0,0,0,0,0,0c0,0,0,0,0,0c0,0,0,0,0,0c0,0,0,0,0,0
	c0,0,0,0,0,0c0,0,0,0,0,0c0,0,0,0,0,0c0,0,0,0,0,0c0,0,0,0,0,0c0,0,0,0,0,0c0,0,0,0,0,0c0,0,0,0,0,0c0,0,0,0,0,0c0,0,0,0,0,0
	c0,0,0,0,0,0c0,0,0,0,0,0c0,0,0,0,0,0c0,0,0,0,0,0c0,0,0,0,0,0c0,0,0,0,0,0c0,0,0,0,0,0c0,0,0,0,0,0c0,0,0,0,0,0c0,0,0,0,0,0
	c0,0,0,0,0,0c0,0,0,0,0,0c0,0,0,0,0,0c0,0,0,0,0,0c0,0,0,0,0,0c0,0,0,0,0,0c0,0,0,0,0,0c0,0,0,0,0,0c0,0,0,0,0,0c0,0,0,0,0,0
	c0,0,0,0,0,0c0,0,0,0,0,0c0,0,0,0,0,0c0,0,0,0,0,0c0,0,0,0,0,0c0,0,0,0,0,0c0,0,0,0,0,0c0,0,0,0,0,0c0,0,0,0,0,0c0,0,0,0,0,0
	c0,0,0,0,0,0c0,0,0,0,0,0c0,0,0,0,0,0c0,0,0,0,0,0c0,0,0,0,0,0s0,0,0,0c0,0,0,0,0,0c0,0,0,0,0,0c0,0,0,0,0,0c0,0,0,0,0,0
	c0,0,0,0,0,0l0,0c0,0,0,0,0,0s0,0,0,0c0,0,0,0,0,0c0,0,0,0,0,0c0,0,0,0,0,0c0,0,0,0,0,0c0,0,0,0,0,0c0,0,0,0,0,0c0,0,0,0,0,0
	s0,0,0,0c0,0,0,0,0,0c0,0,0,0,0,0c0,0,0,0,0,0l0,0c0,0,0,0,0,0l0,0c0,0,0,0,0,0l0,0c0,0,0,0,0,0c0,0,0,0,0.1-0.1l0,0c0,0,0,0,0,0
	l0,0c0,0,0,0,0,0s0,0,0,0c0,0,0,0,0,0c0,0,0,0,0,0c0,0,0,0,0,0l0,0c0,0,0,0,0,0l0,0c0,0,0,0,0,0c0,0,0,0,0,0c0,0,0,0,0,0s0,0,0,0
	c0,0,0,0,0,0s0,0,0,0c0,0,0,0,0,0l0,0c0,0,0,0,0,0l0,0c0,0,0,0,0,0c0,0,0,0,0,0c0,0,0,0,0,0c0,0,0,0,0,0c0,0,0,0,0,0l0,0
	c0,0,0,0,0,0c0,0,0,0,0,0s0,0,0,0l0,0c0,0,0,0,0,0l0,0c0,0,0,0,0,0l0,0c0,0,0.1-0.1,0.1-0.1c0,0,0,0,0,0c0,0,0,0,0,0l0,0
	c0,0,0,0,0,0c0,0,0,0,0,0c0,0,0.1-0.1,0.1-0.1l0,0c0,0,0,0,0,0l0,0c0,0,0,0,0,0c0,0,0,0,0,0c0,0,0.1-0.1,0.1-0.1l0,0c0,0,0,0,0,0
	l0,0c0,0,0,0,0,0l0,0c0,0,0.1-0.1,0.1-0.1l0,0c0,0,0,0,0,0l0,0c1.6-1.6,3.1-3.3,4.6-4.9C281.6,266.5,281.5,264.7,280.4,263.6
	L280.4,263.6z M305.2,223.9c-0.3-0.3-0.6-0.5-1-0.6c-1.5-0.6-3.3,0.1-3.9,1.6c-2.9,7.1-6.5,13.9-10.5,20.4c-0.8,1.2-0.5,2.7,0.4,3.7
	c0.2,0.2,0.3,0.3,0.5,0.4c1.4,0.9,3.2,0.4,4.1-0.9c1.2-2,2.4-4,3.6-6l0,0c0-0.1,0.1-0.1,0.1-0.2l0,0c0,0,0,0,0,0l0,0
	c0-0.1,0.1-0.2,0.1-0.2l0,0c0,0,0,0,0,0l0,0c0,0,0,0,0-0.1l0,0c0,0,0-0.1,0-0.1l0,0c0,0,0,0,0,0c0,0,0,0,0,0c0,0,0,0,0,0
	c0,0,0,0,0,0c0,0,0,0,0-0.1l0,0c0,0,0-0.1,0-0.1c0,0,0,0,0,0c0,0,0,0,0,0c0,0,0,0,0,0c0,0,0,0,0,0c0,0,0,0,0,0c0,0,0,0,0,0v0
	c0,0,0-0.1,0-0.1c0,0,0,0,0,0c0,0,0,0,0,0v0c0,0,0,0,0,0c0,0,0,0,0,0c0,0,0,0,0,0l0,0c0,0,0-0.1,0-0.1l0,0c0,0,0,0,0-0.1
	c0,0,0,0,0,0c0,0,0,0,0,0c0,0,0,0,0,0c0,0,0,0,0,0c0,0,0,0,0,0c0,0,0-0.1,0-0.1c0,0,0,0,0,0c0,0,0,0,0,0c0,0,0,0,0,0c0,0,0,0,0,0
	c0,0,0,0,0,0c0,0,0,0,0,0c0,0,0,0,0,0c0,0,0,0,0,0c0,0,0,0,0,0c0,0,0,0,0-0.1c0,0,0,0,0,0c0,0,0,0,0,0c0,0,0,0,0,0c0,0,0,0,0,0
	c0,0,0,0,0,0c0,0,0,0,0,0c0,0,0,0,0,0c0,0,0,0,0,0c0,0,0,0,0,0c0,0,0,0,0-0.1c0,0,0,0,0,0c0,0,0,0,0,0c0,0,0,0,0,0c0,0,0,0,0,0
	c0,0,0,0,0,0c0,0,0,0,0,0s0,0,0,0c0,0,0,0,0,0s0,0,0,0c0,0,0,0,0,0l0,0c0,0,0,0,0,0c0,0,0,0,0,0c0,0,0,0,0,0s0,0,0,0c0,0,0,0,0,0
	c0,0,0,0,0,0c0,0,0,0,0,0c0,0,0,0,0,0c0,0,0,0,0,0c0,0,0,0,0,0c0,0,0,0,0,0c0,0,0,0,0,0c0,0,0,0,0,0c0,0,0,0,0,0c0,0,0,0,0,0
	c0,0,0,0,0,0c0,0,0,0,0,0c0,0,0,0,0,0c0,0,0,0,0,0c0,0,0,0,0,0c0,0,0,0,0,0s0,0,0,0l0,0c0,0,0,0,0,0c0,0,0,0,0,0c0,0,0,0,0,0
	c0,0,0,0,0,0c0,0,0,0,0,0c0,0,0,0,0,0c0,0,0,0,0,0c0,0,0,0,0,0s0,0,0,0c0,0,0,0,0,0c0,0,0,0,0,0c0,0,0,0,0,0c0,0,0,0,0,0
	c0,0,0,0,0,0c0,0,0,0,0,0c0,0,0,0,0,0c0,0,0,0,0,0s0,0,0,0s0,0,0,0l0,0c0,0,0,0,0,0s0,0,0,0c0,0,0,0,0,0s0,0,0,0c0,0,0,0,0,0l0,0
	c0,0,0,0,0,0c0,0,0,0,0,0c0,0,0,0,0,0l0,0c0,0,0,0,0,0c0,0,0,0,0,0c0,0,0,0,0,0c0,0,0,0,0,0c0,0,0,0,0,0l0,0c0,0,0,0,0,0
	c0,0,0,0,0,0c0,0,0,0,0,0c0,0,0,0,0,0c0,0,0,0,0,0c0,0,0,0,0,0c0,0,0,0,0,0c0,0,0,0,0,0c0,0,0,0,0,0l0,0c0,0,0,0,0,0c0,0,0,0,0,0
	c0,0,0,0,0,0c0,0,0,0,0,0c0,0,0,0,0,0c0,0,0,0,0,0c0,0,0,0,0,0c0,0,0,0,0,0c0,0,0,0,0,0c0,0,0,0,0,0s0,0,0,0c0,0,0,0,0,0v0
	c0,0,0,0,0,0c0,0,0,0,0,0c0,0,0,0,0,0c0,0,0,0,0,0c0,0,0,0,0,0c0,0,0,0,0,0c0,0,0,0,0,0c0,0,0,0,0,0l0,0c0,0,0,0,0,0c0,0,0,0,0,0
	c0,0,0,0,0,0c0,0,0,0,0,0c0,0,0,0,0,0c0,0,0,0,0,0c0,0,0,0,0,0s0,0,0,0c0,0,0,0,0,0c0,0,0,0,0,0c0,0,0-0.1,0-0.1l0,0c0,0,0,0,0,0
	s0,0,0,0c0,0,0,0,0,0c0,0,0,0,0,0c0,0,0,0,0,0l0,0c0,0,0,0,0,0c0,0,0,0,0,0c0,0,0,0,0,0l0,0c0,0,0,0,0,0s0,0,0,0c0,0,0,0,0,0
	s0,0,0,0c0,0,0,0,0,0c0,0,0,0,0,0c0,0,0,0,0,0s0,0,0,0c0,0,0,0,0-0.1c0,0,0,0,0,0c0,0,0,0,0,0s0,0,0,0c0,0,0,0,0,0c0,0,0,0,0,0
	c0,0,0,0,0,0l0,0c0,0,0,0,0,0c0,0,0,0,0,0c0,0,0,0,0-0.1l0,0c0,0,0,0,0,0c0,0,0,0,0,0c0,0,0,0,0,0s0,0,0,0c0,0,0,0,0,0c0,0,0,0,0,0
	c0,0,0,0,0,0c0,0,0,0,0,0c0,0,0,0,0-0.1c0,0,0,0,0,0c0,0,0,0,0,0c0,0,0,0,0,0c0,0,0,0,0,0s0,0,0,0c0,0,0,0,0,0c0,0,0,0,0,0
	c0,0,0,0,0,0l0,0c0,0,0,0,0-0.1c0,0,0,0,0,0c0,0,0,0,0,0c0,0,0,0,0,0c0,0,0,0,0,0s0,0,0,0c0,0,0,0,0,0s0,0,0,0c0,0,0,0,0,0l0,0
	c0,0,0-0.1,0-0.1c0,0,0,0,0,0c0,0,0,0,0,0s0,0,0,0c0,0,0,0,0,0s0,0,0,0s0,0,0,0l0,0c0,0,0,0,0,0c0,0,0,0,0,0s0,0,0,0c0,0,0,0,0,0
	s0,0,0,0c0,0,0,0,0,0c0,0,0,0,0,0c0,0,0,0,0,0c0,0,0,0,0,0c0,0,0,0,0,0c0,0,0,0,0,0c0,0,0,0,0,0c0,0,0,0,0,0c0,0,0,0,0,0s0,0,0,0
	c0,0,0,0,0,0s0,0,0,0c0,0,0,0,0,0c0,0,0,0,0,0c0,0,0,0,0,0c0,0,0,0,0,0c0,0,0,0,0,0c0,0,0,0,0,0s0,0,0,0c0,0,0,0,0,0c0,0,0,0,0,0
	c0,0,0,0,0,0c0,0,0,0,0,0c0,0,0,0,0,0c0,0,0,0,0,0s0,0,0,0c0,0,0,0,0,0c0,0,0,0,0,0c0,0,0,0,0,0s0,0,0,0c0,0,0,0,0,0s0,0,0,0
	c0,0,0,0,0,0s0,0,0,0c0,0,0,0,0,0s0,0,0,0c0,0,0-0.1,0-0.1c0,0,0,0,0,0c0,0,0,0,0,0s0,0,0,0c0,0,0,0,0,0c0,0,0,0,0,0c0,0,0,0,0,0
	s0,0,0,0c0,0,0,0,0,0s0,0,0,0c0,0,0,0,0,0c0,0,0,0,0,0c0,0,0,0,0,0s0,0,0,0c0,0,0,0,0,0c0,0,0,0,0,0c0,0,0,0,0,0s0,0,0,0
	c0,0,0,0,0,0c0,0,0,0,0,0c0,0,0,0,0-0.1c0,0,0,0,0,0c0,0,0,0,0,0s0,0,0,0c0,0,0,0,0,0s0,0,0,0c0,0,0,0,0,0c0,0,0,0,0,0c0,0,0,0,0,0
	c0,0,0,0,0,0c0,0,0,0,0-0.1v0c0,0,0,0,0,0c0,0,0,0,0,0c0,0,0,0,0,0c0,0,0,0,0,0c0,0,0,0,0,0s0,0,0,0c0,0,0,0,0,0v0c0,0,0,0,0-0.1
	c0,0,0,0,0,0c0,0,0,0,0,0c0,0,0,0,0,0c0,0,0,0,0,0s0,0,0,0c0,0,0,0,0,0s0,0,0,0c0,0,0,0,0,0c0,0,0,0,0,0c0,0,0-0.1,0-0.1
	c0,0,0,0,0,0c0,0,0,0,0,0c0,0,0,0,0,0c0,0,0,0,0,0s0,0,0,0c0,0,0,0,0,0c0,0,0,0,0,0c0,0,0,0,0,0v0c0,0,0,0,0,0c0,0,0,0,0,0
	c0,0,0,0,0,0c0,0,0,0,0,0c0,0,0,0,0,0c0,0,0,0,0,0c0,0,0,0,0,0s0,0,0,0c0,0,0,0,0,0c0,0,0,0,0,0c0,0,0,0,0-0.1c0,0,0,0,0,0
	c0,0,0,0,0,0c0,0,0,0,0,0c0,0,0,0,0,0s0,0,0,0c0,0,0,0,0,0c0,0,0,0,0,0c0,0,0,0,0,0l0,0c0,0,0,0,0-0.1v0c0,0,0,0,0,0c0,0,0,0,0,0
	c0,0,0,0,0,0c0,0,0,0,0,0c0,0,0,0,0,0c0,0,0,0,0,0c0,0,0,0,0,0l0,0c0,0,0,0,0-0.1c0,0,0,0,0,0c0,0,0,0,0,0c0,0,0,0,0,0c0,0,0,0,0,0
	c0,0,0,0,0,0c0,0,0,0,0,0v0c0,0,0,0,0,0c0,0,0,0,0,0c0,0,0,0,0-0.1l0,0c0,0,0,0,0-0.1v0c0,0,0,0,0,0c0,0,0,0,0,0c0,0,0,0,0,0
	s0,0,0,0c0,0,0,0,0,0c0,0,0,0,0,0c0,0,0-0.1,0-0.1c0,0,0,0,0,0c0,0,0,0,0,0c0,0,0,0,0,0c0,0,0,0,0,0c0,0,0,0,0,0c0,0,0,0,0,0
	c0,0,0,0,0,0c0,0,0-0.1,0-0.1c0,0,0,0,0,0c0,0,0,0,0,0c0,0,0,0,0,0c0,0,0,0,0,0s0,0,0,0c0,0,0,0,0,0c0,0,0,0,0,0c0,0,0-0.1,0-0.1v0
	c0,0,0,0,0,0c0,0,0,0,0,0c0,0,0,0,0,0s0,0,0,0c0,0,0,0,0,0s0,0,0,0c0,0,0,0,0,0c0,0,0,0,0,0c0,0,0,0,0-0.1c0,0,0,0,0,0c0,0,0,0,0,0
	c0,0,0,0,0,0c0,0,0,0,0,0s0,0,0,0c0,0,0,0,0,0c0,0,0,0,0,0c0,0,0,0,0,0l0,0c0,0,0,0,0-0.1v0c0,0,0,0,0,0c0,0,0,0,0,0c0,0,0,0,0,0
	c0,0,0,0,0,0c0,0,0,0,0,0c0,0,0,0,0,0c0,0,0,0,0,0l0,0c0,0,0,0,0-0.1c0,0,0,0,0,0c0,0,0,0,0,0v0c0,0,0,0,0,0c0,0,0,0,0,0
	c0,0,0,0,0,0c0,0,0,0,0,0c0,0,0,0,0,0c0,0,0,0,0,0c0,0,0-0.1,0-0.1v0c0,0,0,0,0,0c0,0,0,0,0,0c0,0,0,0,0,0v0c0,0,0,0,0-0.1l0,0
	c0,0,0-0.1,0-0.1l0,0c0,0,0,0,0-0.1v0c0,0,0,0,0,0v0c0,0,0,0,0,0c0,0,0,0,0,0c0,0,0-0.1,0-0.1c0,0,0,0,0,0c0,0,0,0,0,0v0
	c0,0,0,0,0,0c0,0,0,0,0,0c0,0,0,0,0,0v0c0,0,0,0,0,0c0,0,0,0,0,0c0,0,0,0,0-0.1v0c0,0,0,0,0,0c0,0,0,0,0,0c0,0,0,0,0,0c0,0,0,0,0,0
	c0,0,0,0,0,0v0c0,0,0-0.1,0-0.1l0,0c0,0,0,0,0,0v0c0,0,0,0,0,0c0,0,0,0,0,0c0,0,0,0,0,0v0c0-0.1,0-0.1,0.1-0.1v0c0,0,0,0,0,0v0
	c0,0,0,0,0,0v0c0,0,0,0,0-0.1l0,0c0,0,0,0,0-0.1c0,0,0,0,0,0c0,0,0,0,0,0v0c0,0,0,0,0,0v0c0,0,0,0,0,0v0c0,0,0,0,0,0v0
	c0,0,0-0.1,0-0.1v0c0,0,0,0,0,0c0,0,0,0,0,0c0,0,0,0,0,0c0,0,0,0,0,0c0,0,0,0,0,0v0c0,0,0,0,0-0.1l0,0c0,0,0,0,0-0.1c0,0,0,0,0,0
	c0,0,0,0,0,0s0,0,0,0c0,0,0,0,0,0s0,0,0,0c0,0,0,0,0,0s0,0,0,0c0,0,0-0.1,0-0.1c0,0,0,0,0,0c0,0,0,0,0,0s0,0,0,0c0,0,0,0,0,0
	c0,0,0,0,0,0c0,0,0,0,0,0v0c0,0,0,0,0-0.1l0,0c0,0,0,0,0-0.1v0c0,0,0,0,0,0c0,0,0,0,0,0c0,0,0,0,0,0s0,0,0,0c0,0,0,0,0,0s0,0,0,0
	c0,0,0,0,0,0l0,0c0,0,0,0,0-0.1v0c0,0,0,0,0,0c0,0,0,0,0,0c0,0,0,0,0,0c0,0,0,0,0,0c0,0,0,0,0,0
	C306.4,226.1,306.1,224.8,305.2,223.9L305.2,223.9z M315.8,178.4c-0.5-0.5-1.2-0.8-1.9-0.9c-1.6-0.1-3.1,1.1-3.2,2.8
	c-0.5,7.6-1.6,15.3-3.3,22.8c-0.2,1.1,0.1,2.1,0.8,2.8c0.4,0.4,0.9,0.7,1.4,0.8c1.6,0.4,3.2-0.6,3.6-2.2c0,0,0,0,0,0c0,0,0,0,0,0
	c0,0,0-0.1,0-0.1c0,0,0,0,0,0c0,0,0-0.1,0-0.1c0,0,0,0,0,0c0,0,0,0,0-0.1c0,0,0,0,0,0c0,0,0-0.1,0-0.1c0,0,0,0,0,0c0,0,0,0,0-0.1
	c0,0,0,0,0,0s0,0,0,0c0,0,0,0,0-0.1c0,0,0,0,0,0s0,0,0,0c0,0,0,0,0-0.1c0,0,0,0,0,0c0,0,0,0,0-0.1c0,0,0,0,0-0.1c0,0,0,0,0,0
	c0,0,0,0,0-0.1c0,0,0,0,0,0c0,0,0,0,0,0c0,0,0,0,0-0.1c0,0,0,0,0,0s0,0,0,0c0,0,0,0,0-0.1c0,0,0,0,0,0c0,0,0,0,0-0.1c0,0,0,0,0,0
	c0,0,0,0,0-0.1c0,0,0,0,0,0c0,0,0,0,0-0.1c0,0,0,0,0,0c0,0,0,0,0-0.1c0,0,0,0,0,0c0,0,0,0,0-0.1c0,0,0,0,0,0c0,0,0,0,0-0.1
	c0,0,0,0,0,0c0,0,0-0.1,0-0.1c0,0,0,0,0,0c0,0,0,0,0-0.1c0,0,0,0,0,0c0,0,0,0,0-0.1c0,0,0,0,0,0c0,0,0-0.1,0-0.1c0,0,0,0,0,0
	c0,0,0-0.1,0-0.1c0,0,0,0,0,0c0,0,0,0,0-0.1c0,0,0,0,0,0c0,0,0,0,0-0.1c0,0,0,0,0,0c0,0,0-0.1,0-0.1c0,0,0,0,0,0c0,0,0-0.1,0-0.1
	c0,0,0,0,0,0c0,0,0,0,0-0.1c0,0,0,0,0,0c0,0,0-0.1,0-0.1c0,0,0,0,0,0c0,0,0-0.1,0-0.1c0,0,0,0,0,0c0,0,0,0,0-0.1v0c0,0,0-0.1,0-0.1
	v0c0,0,0-0.1,0-0.1v0c0,0,0-0.1,0-0.1v0c0,0,0-0.1,0-0.1c0,0,0,0,0,0c0,0,0-0.1,0-0.1c0,0,0,0,0,0c0,0,0-0.1,0-0.1c0,0,0,0,0,0
	c0,0,0-0.1,0-0.1v0c0,0,0-0.1,0-0.1c0,0,0,0,0,0c0,0,0-0.1,0-0.1c0,0,0,0,0,0c0,0,0-0.1,0-0.1c0,0,0,0,0,0c0,0,0-0.1,0-0.1
	c0,0,0,0,0,0c0,0,0-0.1,0-0.1c0,0,0,0,0,0c0,0,0-0.1,0-0.1c0,0,0,0,0,0c0,0,0-0.1,0-0.1l0,0c0,0,0-0.1,0-0.1c0,0,0,0,0,0
	c0,0,0-0.1,0-0.1v0c0,0,0-0.1,0-0.1l0,0c0,0,0-0.1,0-0.1v0c0,0,0-0.1,0-0.1v0c0,0,0-0.1,0-0.1v0c0,0,0-0.1,0-0.1l0,0
	c0,0,0-0.1,0-0.1v0c0,0,0-0.1,0-0.1v0c0-0.1,0-0.1,0-0.2v0c0,0,0-0.1,0-0.1v0c0,0,0-0.1,0-0.1c0,0,0,0,0,0c0,0,0-0.1,0-0.1l0,0
	c0,0,0-0.1,0-0.1v0c0,0,0-0.1,0-0.1v0c0,0,0-0.1,0-0.1l0,0c0,0,0-0.1,0-0.1v0c0,0,0-0.1,0-0.1v0c0,0,0-0.1,0-0.1c0,0,0,0,0,0
	c0,0,0-0.1,0-0.1c0,0,0,0,0,0c0,0,0-0.1,0-0.1v0c0,0,0-0.1,0-0.1v0c0-0.1,0-0.1,0-0.2v0c0,0,0-0.1,0-0.1v0c0,0,0-0.1,0-0.1
	c0,0,0,0,0,0c0,0,0-0.1,0-0.1l0,0c0,0,0-0.1,0-0.1v0c0,0,0-0.1,0-0.1v0c0,0,0-0.1,0-0.1l0,0c0,0,0-0.1,0-0.1v0c0,0,0-0.1,0-0.1
	c0,0,0,0,0,0c0,0,0-0.1,0-0.1c0,0,0,0,0,0c0,0,0-0.1,0-0.1c0,0,0,0,0,0c0,0,0-0.1,0-0.1v0c0,0,0-0.1,0-0.1v0c0-0.1,0-0.1,0-0.2v0
	c0,0,0-0.1,0-0.1v0c0,0,0-0.1,0-0.1c0,0,0,0,0,0c0,0,0-0.1,0-0.1v0c0,0,0-0.1,0-0.1v0c0,0,0-0.1,0-0.1v0c0,0,0-0.1,0-0.1l0,0
	c0,0,0-0.1,0-0.1v0c0,0,0-0.1,0-0.1v0c0,0,0-0.1,0-0.1c0,0,0,0,0,0c0,0,0-0.1,0-0.1v0c0,0,0-0.1,0-0.1c0,0,0,0,0,0c0,0,0-0.1,0-0.1
	v0c0,0,0-0.1,0-0.1l0,0c0,0,0-0.1,0-0.1c0,0,0,0,0,0c0,0,0-0.1,0-0.1v0c0,0,0-0.1,0-0.1c0,0,0,0,0,0c0,0,0-0.1,0-0.1v0
	c0,0,0-0.1,0-0.1c0,0,0,0,0,0c0,0,0-0.1,0-0.1v0c0,0,0-0.1,0-0.1c0,0,0,0,0,0c0,0,0-0.1,0-0.1c0,0,0,0,0,0c0,0,0-0.1,0-0.1
	c0,0,0,0,0,0c0,0,0-0.1,0-0.1c0,0,0,0,0,0c0,0,0-0.1,0-0.1v0c0,0,0-0.1,0-0.1c0,0,0,0,0,0c0,0,0-0.1,0-0.1c0,0,0,0,0,0
	c0,0,0-0.1,0-0.1c0,0,0,0,0,0c0,0,0-0.1,0-0.1c0,0,0,0,0,0c0,0,0-0.1,0-0.1c0,0,0,0,0,0c0,0,0-0.1,0-0.1v0c0,0,0-0.1,0-0.1v0
	c0,0,0-0.1,0-0.1c0,0,0,0,0,0c0,0,0-0.1,0-0.1c0,0,0,0,0,0c0,0,0-0.1,0-0.1v0c0,0,0-0.1,0-0.1c0,0,0,0,0,0c0,0,0-0.1,0-0.1
	c0,0,0,0,0,0c0,0,0-0.1,0-0.1c0,0,0,0,0,0c0,0,0-0.1,0-0.1c0,0,0,0,0,0c0,0,0-0.1,0-0.1c0,0,0,0,0,0c0,0,0-0.1,0-0.1c0,0,0,0,0,0
	c0,0,0-0.1,0-0.1v0c0,0,0-0.1,0-0.1v0c0,0,0-0.1,0-0.1c0,0,0,0,0,0c0,0,0-0.1,0-0.1v0c0,0,0-0.1,0-0.1c0,0,0,0,0,0c0,0,0-0.1,0-0.1
	c0,0,0,0,0,0c0,0,0-0.1,0-0.1v0c0,0,0-0.1,0-0.1v0c0,0,0-0.1,0-0.1v0c0,0,0-0.1,0-0.1v0c0,0,0-0.1,0-0.1c0,0,0,0,0,0
	c0,0,0-0.1,0-0.1v0c0,0,0-0.1,0-0.1c0,0,0,0,0,0c0,0,0-0.1,0-0.1c0,0,0,0,0,0c0,0,0-0.1,0-0.1c0,0,0,0,0,0c0,0,0-0.1,0-0.1
	c0,0,0,0,0,0c0,0,0-0.1,0-0.1v0c0,0,0,0,0-0.1c0,0,0,0,0,0c0,0,0,0,0-0.1v0c0,0,0-0.1,0-0.1c0,0,0,0,0,0c0,0,0-0.1,0-0.1
	c0,0,0,0,0,0c0,0,0,0,0-0.1c0,0,0,0,0,0c0,0,0-0.1,0-0.1c0,0,0,0,0,0c0,0,0-0.1,0-0.1v0c0,0,0-0.1,0-0.1c0,0,0,0,0,0
	c0,0,0-0.1,0-0.1v0c0,0,0-0.1,0-0.1c0,0,0,0,0,0c0,0,0-0.1,0-0.1c0,0,0,0,0,0c0,0,0,0,0-0.1c0,0,0,0,0,0c0,0,0-0.1,0-0.1
	c0,0,0,0,0,0c0,0,0-0.1,0-0.1c0,0,0,0,0,0c0,0,0,0,0-0.1c0,0,0,0,0,0c0,0,0,0,0-0.1c0,0,0,0,0,0c0,0,0-0.1,0-0.1c0,0,0,0,0,0
	c0,0,0,0,0-0.1c0,0,0,0,0,0c0,0,0,0,0-0.1c0,0,0,0,0,0c0,0,0-0.1,0-0.1c0,0,0,0,0,0c0,0,0-0.1,0-0.1c0,0,0,0,0,0c0,0,0,0,0-0.1
	c0,0,0,0,0,0c0,0,0,0,0-0.1c0,0,0,0,0,0c0,0,0-0.1,0-0.1c0,0,0,0,0,0c0,0,0,0,0-0.1c0,0,0,0,0,0c0,0,0,0,0-0.1c0,0,0,0,0,0
	c0,0,0-0.1,0-0.1c0,0,0,0,0,0c0,0,0-0.1,0-0.1c0,0,0,0,0,0c0,0,0,0,0-0.1c0,0,0,0,0,0c0,0,0,0,0-0.1c0,0,0,0,0,0c0,0,0-0.1,0-0.1
	c0,0,0,0,0,0c0,0,0,0,0-0.1c0,0,0,0,0,0c0,0,0,0,0-0.1c0,0,0,0,0,0c0,0,0,0,0-0.1c0,0,0,0,0,0c0,0,0-0.1,0-0.1c0,0,0,0,0,0
	c0,0,0,0,0-0.1c0,0,0,0,0,0c0,0,0,0,0-0.1c0,0,0,0,0,0c0,0,0-0.1,0-0.1c0,0,0,0,0,0c0,0,0,0,0-0.1c0,0,0,0,0,0c0,0,0,0,0-0.1
	c0,0,0,0,0,0c0,0,0-0.1,0-0.1c0,0,0,0,0,0c0,0,0,0,0-0.1c0,0,0,0,0,0c0,0,0,0,0-0.1c0,0,0,0,0,0c0,0,0,0,0-0.1c0,0,0,0,0,0
	c0,0,0-0.1,0-0.1c0,0,0,0,0,0c0,0,0,0,0-0.1c0,0,0,0,0,0c0,0,0,0,0-0.1c0,0,0,0,0,0c0,0,0,0,0-0.1c0,0,0,0,0,0c0,0,0,0,0-0.1
	c0,0,0,0,0,0c0,0,0,0,0-0.1c0,0,0,0,0,0c0,0,0,0,0-0.1c0,0,0,0,0,0c0,0,0,0,0-0.1c0,0,0,0,0,0c0,0,0,0,0-0.1c0,0,0,0,0,0
	c0,0,0,0,0-0.1c0,0,0,0,0,0c0,0,0,0,0-0.1c0,0,0,0,0,0c0,0,0-0.1,0-0.1c0,0,0,0,0,0c0,0,0,0,0-0.1c0,0,0,0,0,0c0,0,0,0,0-0.1
	c0,0,0,0,0,0c0,0,0-0.1,0-0.1c0,0,0,0,0,0c0,0,0,0,0-0.1c0,0,0,0,0,0c0,0,0,0,0-0.1c0,0,0,0,0,0c0,0,0-0.1,0-0.1c0,0,0,0,0,0
	c0,0,0-0.1,0-0.1c0,0,0,0,0,0c0,0,0,0,0-0.1c0,0,0,0,0,0c0,0,0-0.1,0-0.1c0,0,0,0,0,0c0,0,0-0.1,0-0.1c0,0,0,0,0,0c0,0,0,0,0-0.1
	c0,0,0,0,0,0c0,0,0,0,0-0.1c0,0,0,0,0,0c0,0,0-0.1,0-0.1c0,0,0,0,0,0c0,0,0-0.1,0-0.1c0,0,0,0,0,0c0,0,0,0,0-0.1c0,0,0,0,0,0
	c0,0,0-0.1,0-0.1c0,0,0,0,0,0c0,0,0-0.1,0-0.1c0,0,0,0,0,0c0,0,0,0,0-0.1c0,0,0,0,0,0c0,0,0,0,0-0.1c0,0,0,0,0,0c0,0,0-0.1,0-0.1
	c0,0,0,0,0,0c0,0,0-0.1,0-0.1c0,0,0,0,0,0c0,0,0,0,0-0.1c0,0,0,0,0,0c0,0,0-0.1,0-0.1c0,0,0,0,0,0c0,0,0-0.1,0-0.1c0,0,0,0,0,0
	c0,0,0,0,0-0.1c0,0,0,0,0,0c0,0,0,0,0-0.1c0,0,0,0,0,0c0,0,0-0.1,0-0.1c0,0,0,0,0,0c0,0,0-0.1,0-0.1c0,0,0,0,0,0c0,0,0,0,0-0.1
	c0,0,0,0,0,0c0,0,0-0.1,0-0.1c0,0,0,0,0,0c0,0,0-0.1,0-0.1c0,0,0,0,0,0c0,0,0,0,0-0.1c0,0,0,0,0,0c0,0,0,0,0-0.1c0,0,0,0,0,0
	c0,0,0-0.1,0-0.1c0,0,0,0,0,0c0,0,0-0.1,0-0.1c0,0,0,0,0,0c0,0,0,0,0-0.1c0,0,0,0,0,0c0,0,0-0.1,0-0.1c0,0,0,0,0,0c0,0,0-0.1,0-0.1
	c0,0,0,0,0,0c0,0,0,0,0-0.1v0c0,0,0-0.1,0-0.1v0c0,0,0-0.1,0-0.1c0,0,0,0,0,0c0,0,0-0.1,0-0.1v0c0,0,0-0.1,0-0.1c0,0,0,0,0,0
	c0,0,0-0.1,0-0.1c0,0,0,0,0,0c0,0,0-0.1,0-0.1c0,0,0,0,0,0c0,0,0-0.1,0-0.1v0c0,0,0-0.1,0-0.1c0,0,0,0,0,0c0,0,0-0.1,0-0.1
	c0,0,0,0,0,0c0,0,0-0.1,0-0.1v0c0,0,0-0.1,0-0.1c0,0,0,0,0,0c0,0,0-0.1,0-0.1c0,0,0,0,0,0c0,0,0-0.1,0-0.1c0,0,0,0,0,0
	c0,0,0-0.1,0-0.1v0c0,0,0-0.1,0-0.1c0,0,0,0,0,0c0,0,0-0.1,0-0.1c0,0,0,0,0,0c0,0,0-0.1,0-0.1c0,0,0,0,0,0c0,0,0-0.1,0-0.1v0
	C316.7,179.8,316.4,178.9,315.8,178.4L315.8,178.4z M311.1,131.8c-0.7-0.7-1.8-1.1-2.9-0.8c-1.6,0.4-2.5,2.1-2.1,3.7
	c2,7.4,3.4,15,4.2,22.6c0.1,0.7,0.4,1.4,0.9,1.8c0.6,0.6,1.5,1,2.4,0.9c1.6-0.2,2.9-1.6,2.7-3.3c0,0,0,0,0,0v0c0,0,0,0,0,0s0,0,0,0
	s0,0,0,0s0,0,0,0c0,0,0,0,0,0s0,0,0,0c0,0,0,0,0,0s0,0,0,0s0,0,0,0c0,0,0,0,0-0.1c0,0,0,0,0,0c0,0,0,0,0,0c0,0,0,0,0,0c0,0,0,0,0,0
	s0,0,0,0c0,0,0,0,0,0s0,0,0,0c0,0,0,0,0,0s0,0,0,0c0,0,0,0,0,0v0c0,0,0-0.1,0-0.1v0c0,0,0,0,0-0.1c0,0,0,0,0,0s0,0,0,0v0
	c0,0,0,0,0,0c0,0,0,0,0,0c0-0.1,0-0.1,0-0.2c0,0,0,0,0,0c0,0,0,0,0-0.1l0,0c0,0,0,0,0-0.1l0,0c-0.7-6.4-1.8-12.8-3.4-19l0,0
	c0,0,0,0,0-0.1l0,0c0-0.1,0-0.1,0-0.2c0,0,0,0,0,0c0,0,0,0,0-0.1c0,0,0,0,0,0c0,0,0,0,0-0.1l0,0c0-0.1,0-0.1,0-0.2c0,0,0,0,0,0
	c0,0,0,0,0,0v0c0,0,0,0,0,0c0,0,0,0,0,0c0,0,0,0,0,0v0c0-0.1,0-0.1,0-0.1v0c0,0,0,0,0,0s0,0,0,0c0,0,0,0,0,0s0,0,0,0c0,0,0,0,0,0v0
	c0,0,0,0,0,0v0c0,0,0,0,0-0.1v0c0,0,0,0,0,0c0,0,0,0,0,0c0,0,0,0,0,0s0,0,0,0c0,0,0,0,0,0c0,0,0,0,0,0c0,0,0,0,0,0c0,0,0,0,0,0
	c0,0,0,0,0,0c0,0,0,0,0,0s0,0,0,0c0,0,0,0,0,0c0,0,0,0,0,0c0,0,0,0,0,0c0,0,0,0,0,0c0,0,0,0,0,0c0,0,0,0,0,0c0,0,0,0,0,0
	c0,0,0,0,0,0c0,0,0,0,0,0v0c0,0,0-0.1,0-0.1v0c0,0,0,0,0,0c0,0,0,0,0,0c0,0,0,0,0,0c0,0,0,0,0,0c0,0,0,0,0,0c0,0,0,0,0,0
	c0,0,0,0,0,0c0,0,0,0,0,0c0,0,0,0,0,0c0,0,0,0,0,0c0,0,0-0.1,0-0.1v0c0,0,0,0,0,0v0c0,0,0,0,0,0v0c0,0,0,0,0,0v0c0,0,0,0,0,0
	c0,0,0,0,0,0c0-0.1,0-0.1,0-0.2c0,0,0,0,0,0s0,0,0,0v0c0,0,0,0,0,0c0,0,0,0,0,0c-0.1-0.3-0.1-0.5-0.2-0.8
	C311.7,132.6,311.5,132.1,311.1,131.8L311.1,131.8z M291.6,89.2c-1-1-2.6-1.2-3.8-0.4c-1.4,0.9-1.7,2.8-0.8,4.2
	c4.3,6.3,8.1,13.1,11.3,20c0.1,0.3,0.4,0.6,0.6,0.9c0.9,0.9,2.2,1.1,3.4,0.6c1.5-0.7,2.2-2.5,1.5-4c-2.3-5-4.9-9.9-7.8-14.7l0,0
	c0-0.1-0.1-0.1-0.1-0.2l0,0c0,0,0,0,0,0l0,0c0-0.1-0.1-0.1-0.1-0.2l0,0c0,0,0,0,0,0v0c0,0,0,0,0,0l0,0c0-0.1-0.1-0.1-0.1-0.1
	c0,0,0,0,0,0c0,0,0,0,0,0l0,0c0,0,0,0,0,0c0,0,0,0,0,0c0,0,0-0.1-0.1-0.1l0,0c0,0,0,0,0,0c0,0,0,0,0,0c0,0,0,0,0,0c0,0,0,0,0,0
	c0,0,0,0,0,0c0,0,0,0,0,0c0,0,0,0,0,0l0,0c0,0,0,0,0,0l0,0c0,0,0,0,0,0c0,0,0,0,0,0c0,0,0,0,0,0c0,0,0,0,0,0c0,0,0,0,0,0
	c0,0,0,0,0,0l0,0c0,0,0,0,0,0s0,0,0,0c0,0,0,0,0,0c0,0,0,0,0,0c0,0,0,0,0,0c0,0,0,0,0,0c0,0,0,0,0,0c0,0,0,0,0,0c0,0,0,0,0,0v0
	c0,0,0-0.1-0.1-0.1l0,0c0,0,0,0,0,0v0c0,0,0,0,0,0l0,0c0-0.1-0.1-0.1-0.1-0.2l0,0c-0.9-1.4-1.8-2.9-2.8-4.3
	C291.9,89.5,291.7,89.4,291.6,89.2L291.6,89.2z M274.3,68.3C274.3,68.3,274.3,68.3,274.3,68.3L274.3,68.3
	C274.2,68.3,274.2,68.2,274.3,68.3L274.3,68.3c-0.1-0.1-0.1-0.1-0.1-0.1l0,0c0,0,0,0,0,0l0,0c0,0,0,0,0,0l0,0c0,0,0,0,0,0l0,0
	c0,0,0,0,0,0l0,0c0,0,0,0,0,0l0,0c0,0,0,0,0,0l0,0c0,0,0,0,0,0l0,0c0,0,0,0,0,0l0,0c0,0,0,0,0,0l0,0c0,0,0,0,0,0l0,0c0,0,0,0,0,0
	l0,0c0,0,0,0,0,0l0,0c0,0,0,0,0,0l0,0c0,0,0,0,0,0l0,0c0,0,0,0,0,0l0,0c0,0,0,0,0,0l0,0c0,0,0,0,0,0l0,0c0,0,0,0,0,0l0,0
	c0,0,0,0,0,0l0,0c0,0,0,0,0,0l0,0c0,0,0,0,0,0l0,0c0,0,0,0,0,0l0,0c0,0,0,0,0,0c0,0,0,0,0,0s0,0,0,0l0,0c0,0,0,0,0,0l0,0
	c0,0,0,0,0,0l0,0c0,0,0,0,0,0l0,0c0,0,0,0,0,0l0,0c0,0,0,0,0,0l0,0c0,0,0,0,0,0l0,0c0,0,0-0.1-0.1-0.1l0,0c0,0,0,0,0,0l0,0
	c0,0,0,0,0,0c0,0,0,0,0,0c0,0,0-0.1-0.1-0.1l0,0c0,0,0,0,0,0l0,0c0,0,0,0,0,0l0,0c0,0,0,0,0,0l0,0c0,0,0,0,0,0c0,0,0,0,0,0s0,0,0,0
	l0,0c0,0,0,0,0,0l0,0c0,0,0,0,0,0c0,0,0,0,0,0s0,0,0,0l0,0c0,0,0,0,0,0l0,0c0,0,0,0,0,0l0,0c0,0,0,0,0,0c0,0,0,0,0,0
	c0,0,0-0.1-0.1-0.1c0,0,0,0,0,0s0,0,0,0l0,0c0,0,0,0,0,0l0,0c0,0,0-0.1-0.1-0.1l0,0c0,0,0,0,0,0l0,0c0,0,0,0,0,0c0,0,0,0,0,0
	c0,0,0-0.1-0.1-0.1c0,0,0,0,0,0s0,0,0,0l0,0c0,0,0,0,0,0l0,0c0,0,0,0,0,0l0,0c0,0,0,0,0,0c0,0,0,0,0,0s0,0,0,0l0,0c0,0,0,0,0,0l0,0
	c0,0,0,0,0,0c0,0,0,0,0,0c0,0,0-0.1-0.1-0.1c0,0,0,0,0,0s0,0,0,0l0,0c0,0,0,0,0,0l0,0c0,0,0-0.1-0.1-0.1c0,0,0,0,0,0s0,0,0,0
	c0,0,0,0,0,0c0,0,0,0,0,0c0,0,0,0,0,0c0,0,0-0.1-0.1-0.1l0,0c0,0,0,0,0,0c0,0,0,0,0,0s0,0,0,0c0,0,0,0,0,0s0,0,0,0l0,0c0,0,0,0,0,0
	l0,0c0,0,0,0,0,0c0,0,0,0,0,0c0,0,0,0,0,0c0,0,0,0,0,0c0,0-0.1-0.1-0.1-0.1l0,0c0,0,0,0,0,0c0,0,0,0,0,0s0,0,0,0l0,0
	c0,0-0.1-0.1-0.1-0.1l0,0c0,0,0,0,0,0l0,0c0,0,0,0,0,0l0,0c0,0-0.1-0.1-0.1-0.1l0,0c0,0,0,0,0,0l0,0c0,0-0.1-0.1-0.1-0.1l0,0
	c0,0,0,0,0,0l0,0c-0.1-0.1-0.1-0.1-0.2-0.2l0,0c-0.1-0.1-0.1-0.1-0.2-0.2l0,0c-0.1,0-0.1-0.1-0.2-0.2l0,0c-0.1-0.1-0.2-0.2-0.3-0.3
	l0,0c-0.1-0.1-0.1-0.1-0.2-0.2l0,0c-4.2-3.8-8.5-7.3-13-10.5c-1.4-1-3.2-0.7-4.2,0.7c-0.9,1.2-0.7,2.8,0.3,3.9
	c0.1,0.1,0.2,0.2,0.4,0.3c6.2,4.4,12.1,9.5,17.5,14.9l0,0c0.9,0.8,1.7,1.7,2.5,2.6c0,0,0,0,0,0.1c1.1,1.2,3,1.2,4.2,0.1
	c1.2-1.1,1.2-3,0.1-4.2c-0.8-0.8-1.6-1.7-2.5-2.5c0,0,0,0,0,0s0,0,0,0c0,0,0,0,0,0C274.4,68.4,274.3,68.4,274.3,68.3L274.3,68.3
	L274.3,68.3z"/>
<path class="st1" d="M73.1,161.7"/>
<path class="st2" d="M187.5,257.2h-32.9V131.5h32.9V257.2z M160.6,251.2h20.9V137.5h-20.9V251.2z M171.1,120.6
	c-5.7,0-10.2-1.7-13.4-5c-3.2-3.3-4.8-7.4-4.8-12.3c0-4.9,1.6-9.1,4.7-12.4c3.2-3.4,7.7-5.1,13.4-5.1c5.7,0,10.2,1.7,13.4,5
	c3.2,3.3,4.8,7.5,4.8,12.4c0,4.9-1.6,9-4.8,12.3C181.3,119,176.8,120.6,171.1,120.6z M171.1,91.9c-4.1,0-7,1-9,3.2
	c-2.1,2.2-3.1,4.9-3.1,8.3c0,3.3,1,6,3.1,8.1c2,2.1,5,3.2,9.1,3.2c4.1,0,7-1,9.1-3.2c2.1-2.2,3.1-4.8,3.1-8.1c0-3.4-1-6.1-3.1-8.3
	C178.2,92.9,175.2,91.9,171.1,91.9z"/>
</svg>
