<?xml version="1.0" encoding="UTF-8"?>
<svg width="122px" height="33px" viewBox="0 0 122 33" version="1.1" xmlns="http://www.w3.org/2000/svg" xmlns:xlink="http://www.w3.org/1999/xlink">
    <!-- Generator: Sketch 42 (36781) - http://www.bohemiancoding.com/sketch -->
    <title>logo</title>
    <desc>Created with Sketch.</desc>
    <defs></defs>
    <g id="Style-Guide" stroke="none" stroke-width="1" fill="none" fill-rule="evenodd">
        <g id="Page-1---Intro-Page-" transform="translate(-121.000000, -136.000000)">
            <g id="Group" transform="translate(121.000000, 136.000000)">
                <g id="logo">
                    <path d="M56.7229,19.3049 L46.6409,19.3049 C46.6409,19.3049 43.1689,19.2809 43.1689,22.6579 L43.1689,28.7349 C43.1689,28.7349 42.9999,32.1599 46.6179,32.1599 L56.6989,32.1599 L56.6989,28.7349 L47.6789,28.7349 C47.6789,28.7349 46.6409,28.7829 46.6409,27.6019 L46.6409,23.6699 C46.6409,23.6699 46.5939,22.6579 47.7029,22.6579 L56.7229,22.6579 L56.7229,19.3049 Z" id="Fill-1" fill="#003876"></path>
                    <path d="M71.8206,19.3049 L61.0166,19.3049 C61.0166,19.3049 57.5676,19.2809 57.5676,22.6579 L57.5676,28.7349 C57.5676,28.7349 57.3736,32.1599 61.0166,32.1599 L71.7966,32.1599 L71.7966,28.7349 L62.0526,28.7349 C62.0526,28.7349 61.0166,28.7829 61.0166,27.6019 L61.0166,23.6699 C61.0166,23.6699 60.9676,22.6579 62.0766,22.6579 L71.8206,22.6579 L71.8206,19.3049 Z" id="Fill-3" fill="#003876"></path>
                    <polygon id="Fill-6" fill="#003876" points="63 26.725 71.417 26.725 71.417 24 63 24"></polygon>
                    <path d="M104.255772,19.0000047 L93.4507724,19.0000047 C93.4507724,19.0000047 90.0017724,18.9760047 90.0017724,22.3530047 L90.0017724,28.4300047 C90.0017724,28.4300047 89.8087724,31.8550047 93.4507724,31.8550047 L104.255772,31.8550047 L104.255772,28.4300047 L94.5117724,28.4300047 C94.5117724,28.4300047 93.4507724,28.4780047 93.4507724,27.2970047 L93.4507724,23.3650047 C93.4507724,23.3650047 93.4267724,22.3530047 94.5117724,22.3530047 L104.255772,22.3530047 L104.255772,19.0000047 Z" id="Fill-7" fill="#003876"></path>
                    <polygon id="Fill-9" fill="#003876" points="96 26.725 104.393 26.725 104.393 24 96 24"></polygon>
                    <path d="M85.927,19 L73,19 L73,31.855 L76.424,31.855 L76.424,22.401 L79.463,22.401 L79.463,31.855 L82.888,31.855 L82.888,22.401 L85.927,22.401 L85.927,31.855 L89.327,31.855 L89.327,22.328 C89.327,22.328 89.521,19 85.927,19" id="Fill-10" fill="#003876"></path>
                    <polygon id="Fill-12" fill="#003876" points="121.448 19 117.807 19 117.807 20.833 113.223 23.414 108.642 20.833 108.642 19 105 19 105 22.328 109.823 25.415 105 28.527 105 31.855 108.642 31.855 108.642 30.022 113.223 27.441 117.807 30.022 117.807 31.855 121.448 31.855 121.448 28.527 116.625 25.415 121.448 22.328"></polygon>
                    <polygon id="Fill-13" fill="#EE3D42" points="26.796 0 0 31.812 11.626 31.812 38.445 0"></polygon>
                    <polygon id="Fill-14" fill="#003876" points="44.795 0 18 31.812 29.625 31.812 56.42 0"></polygon>
                </g>
            </g>
        </g>
    </g>
</svg>