<svg id="Layer_1" data-name="Layer 1" xmlns="http://www.w3.org/2000/svg" viewBox="0 0 316.2 267.51">
  <defs>
    <style>
      .cls-1 {
        fill: #fff;
      }
    </style>
  </defs>
  <title>ltr-icon-white</title>
  <g>
    <g>
      <path class="cls-1" d="M153.92,107.22H135.19V149H111.67V34.87h42.41q20.22,0,31.2,9t11,25.47q0,11.68-5.06,19.48t-15.32,12.42l24.69,46.64V149H175.32Zm-18.73-19h19q8.86,0,13.72-4.51t4.86-12.42q0-8.07-4.59-12.7t-14.07-4.62H135.19Z" transform="translate(-12.8 -34.87)"/>
      <path class="cls-1" d="M47.74,130.1H97.67V149H24.23V34.87H47.74Z" transform="translate(-12.8 -34.87)"/>
    </g>
    <path class="cls-1" d="M24.24,235.39H273.6l-41.54,41.54a11,11,0,0,0,0,15.51l6.74,6.74a11,11,0,0,0,15.51,0L325.8,227.7a11,11,0,0,0,.11-15.39,10.86,10.86,0,0,0-1.79-2.38l-71.48-71.48a11,11,0,0,0-15.51,0l-6.74,6.74a11,11,0,0,0,0,15.51l43.21,43.21H24.24A11.48,11.48,0,0,0,12.8,215.36v8.58A11.48,11.48,0,0,0,24.24,235.39Z" transform="translate(-12.8 -34.87)"/>
  </g>
</svg>
