<?xml version="1.0" encoding="utf-8"?>
<!-- Generator: Adobe Illustrator 21.1.0, SVG Export Plug-In . SVG Version: 6.00 Build 0)  -->
<svg version="1.0" id="Layer_1" xmlns="http://www.w3.org/2000/svg" xmlns:xlink="http://www.w3.org/1999/xlink" x="0px" y="0px"
	 viewBox="0 0 342 342" style="enable-background:new 0 0 342 342;" xml:space="preserve">
<style type="text/css">
	.st0{fill:#2C98D4;}
</style>
<path class="st0" d="M133.4,173.8c-0.8,0-1.5-0.3-2.1-0.9L24.3,66c-1.2-1.2-1.2-3.1,0-4.2c1.2-1.2,3.1-1.2,4.2,0l107,107
	c1.2,1.2,1.2,3.1,0,4.2C134.9,173.5,134.2,173.8,133.4,173.8z"/>
<path class="st0" d="M115,115.4c-0.8,0-1.5-0.3-2.1-0.9L44.3,46c-1.2-1.2-1.2-3.1,0-4.2c1.2-1.2,3.1-1.2,4.2,0l68.6,68.6
	c1.2,1.2,1.2,3.1,0,4.2C116.6,115.1,115.8,115.4,115,115.4z"/>
<path class="st0" d="M26.4,283.8c-0.8,0-1.5-0.3-2.1-0.9c-1.2-1.2-1.2-3.1,0-4.2l107-107c1.2-1.2,3.1-1.2,4.2,0
	c1.2,1.2,1.2,3.1,0,4.2l-107,107C28,283.5,27.2,283.8,26.4,283.8z"/>
<path class="st0" d="M46.4,303.8c-0.8,0-1.5-0.3-2.1-0.9c-1.2-1.2-1.2-3.1,0-4.2l107-107c1.2-1.2,3.1-1.2,4.2,0
	c1.2,1.2,1.2,3.1,0,4.2l-107,107C48,303.5,47.2,303.8,46.4,303.8z"/>
<path class="st0" d="M318.8,195.2H154.3c-1.7,0-3-1.3-3-3s1.3-3,3-3h164.5c1.7,0,3,1.3,3,3S320.5,195.2,318.8,195.2z"/>
<path class="st0" d="M318.3,163.2H212.2c-1.7,0-3-1.3-3-3s1.3-3,3-3h106.1c1.7,0,3,1.3,3,3S320,163.2,318.3,163.2z"/>
<path class="st0" d="M171.5,167.9c-0.8,0-1.5-0.3-2.1-0.8c-1.6-1.6-39.6-38.5-39.6-60.8c0-23,18.7-41.7,41.7-41.7
	c23,0,41.7,18.7,41.7,41.7c0,22.4-38,59.3-39.6,60.8C173.1,167.6,172.3,167.9,171.5,167.9z M171.5,70.6c-19.7,0-35.7,16-35.7,35.7
	c0,15.5,24,42.8,35.7,54.5c11.6-11.7,35.7-39,35.7-54.5C207.2,86.6,191.2,70.6,171.5,70.6z"/>
<path class="st0" d="M171.5,116c-7.6,0-13.7-6.2-13.7-13.7s6.2-13.7,13.7-13.7s13.7,6.2,13.7,13.7S179.1,116,171.5,116z M171.5,94.5
	c-4.3,0-7.7,3.5-7.7,7.7c0,4.3,3.5,7.7,7.7,7.7s7.7-3.5,7.7-7.7C179.3,98,175.8,94.5,171.5,94.5z"/>
</svg>
