<?xml version="1.0" encoding="utf-8"?>
<!-- Generator: Adobe Illustrator 21.1.0, SVG Export Plug-In . SVG Version: 6.00 Build 0)  -->
<svg version="1.0" id="Layer_1" xmlns="http://www.w3.org/2000/svg" xmlns:xlink="http://www.w3.org/1999/xlink" x="0px" y="0px"
	 viewBox="0 0 277 217.4" style="enable-background:new 0 0 277 217.4;" xml:space="preserve">
<style type="text/css">
	.st0{fill:#FFFFFF;}
</style>
<title>maps-icon-white</title>
<g>
	<path class="st0" d="M139.7,0c-39.8,0-72,32.2-72,72c0,38.6,65.6,102.4,68.4,105.1c2,1.9,5.2,1.9,7.2,0
		c2.8-2.7,68.4-66.4,68.4-105.1l0,0C211.7,32.3,179.5,0,139.7,0z M139.7,88.9c-13.1,0-23.7-10.6-23.7-23.7s10.6-23.7,23.7-23.7
		c13.1,0,23.7,10.6,23.7,23.7v0C163.4,78.2,152.8,88.8,139.7,88.9L139.7,88.9z"/>
	<path class="st0" d="M162.1,213.4V186c0-2.2,1.8-4,4-4h106.9c2.2,0,4,1.8,4,4v27.4c0,2.2-1.8,4-4,4H166.1
		C163.9,217.4,162.1,215.6,162.1,213.4z"/>
	<path class="st0" d="M0,213.4V186c0-2.2,1.8-4,4-4h106.9c2.2,0,4,1.8,4,4v27.4c0,2.2-1.8,4-4,4H4C1.8,217.4,0,215.6,0,213.4z"/>
</g>
</svg>
