<svg id="Layer_1" data-name="Layer 1" xmlns="http://www.w3.org/2000/svg" viewBox="0 0 181.23 342.6">
  <defs>
    <style>
      .cls-1 {
        fill: #2c98d4;
      }
    </style>
  </defs>
  <title>mobile-icon</title>
  <g>
    <path class="cls-1" d="M248.51-.6h-156A12.64,12.64,0,0,0,79.89,12V329.39A12.64,12.64,0,0,0,92.49,342h156a12.64,12.64,0,0,0,12.61-12.61V12A12.64,12.64,0,0,0,248.51-.6ZM202,318.52A5.53,5.53,0,0,1,196.5,324h-52a5.53,5.53,0,0,1-5.52-5.52h0A5.53,5.53,0,0,1,144.5,313h52a5.53,5.53,0,0,1,5.52,5.52Zm51.22-33.88a12.64,12.64,0,0,1-12.61,12.61H101.11a12.64,12.64,0,0,1-12.61-12.61V27.51A12.64,12.64,0,0,1,101.11,14.9H240.63a12.64,12.64,0,0,1,12.61,12.61Z" transform="translate(-79.89 0.6)"/>
    <rect class="cls-1" x="21.27" y="39.4" width="138.68" height="33.09" rx="12.61" ry="12.61"/>
    <rect class="cls-1" x="21.27" y="91.4" width="138.68" height="33.09" rx="12.61" ry="12.61"/>
    <rect class="cls-1" x="21.27" y="142.62" width="138.68" height="33.09" rx="12.61" ry="12.61"/>
  </g>
</svg>
