<svg id="Layer_1" data-name="Layer 1" xmlns="http://www.w3.org/2000/svg" viewBox="0 0 115 217.4">
  <defs>
    <style>
      .cls-1 {
        fill: #fff;
      }
    </style>
  </defs>
  <title>mobile-icon-white</title>
  <g>
    <path class="cls-1" d="M188,0H89a8,8,0,0,0-8,8V209.4a8,8,0,0,0,8,8h99a8,8,0,0,0,8-8V8A8,8,0,0,0,188,0ZM158.5,202.5A3.51,3.51,0,0,1,155,206H122a3.51,3.51,0,0,1-3.5-3.5h0A3.51,3.51,0,0,1,122,199h33a3.51,3.51,0,0,1,3.5,3.5ZM191,181a8,8,0,0,1-8,8H94.47a8,8,0,0,1-8-8V17.84a8,8,0,0,1,8-8H183a8,8,0,0,1,8,8Z" transform="translate(-81 0)"/>
    <rect class="cls-1" x="13.5" y="25" width="88" height="21" rx="8" ry="8"/>
    <rect class="cls-1" x="13.5" y="58" width="88" height="21" rx="8" ry="8"/>
    <rect class="cls-1" x="13.5" y="90.5" width="88" height="21" rx="8" ry="8"/>
  </g>
</svg>
