<?xml version="1.0" encoding="utf-8"?>
<!-- Generator: Adobe Illustrator 21.1.0, SVG Export Plug-In . SVG Version: 6.00 Build 0)  -->
<svg version="1.0" id="Layer_1" xmlns="http://www.w3.org/2000/svg" xmlns:xlink="http://www.w3.org/1999/xlink" x="0px" y="0px"
	 viewBox="0 0 281.7 250.5" style="enable-background:new 0 0 281.7 250.5;" xml:space="preserve">
<style type="text/css">
	.st0{fill:#FFFFFF;}
</style>
<title>modals-icon-white</title>
<path class="st0" d="M274.7,0H7C3.1,0,0,3.1,0,7v236.5c0,3.9,3.1,7,7,7h267.7c3.9,0,7-3.1,7-7V7C281.7,3.1,278.5,0,274.7,0z
	 M275.5,207.2H6V50.3h269.7L275.5,207.2z M257,30.4c1.2,1.2,1.2,3.1,0,4.2c-1.2,1.2-3.1,1.2-4.2,0l-4.7-4.7l-4.7,4.7
	c-1.2,1.2-3.1,1.2-4.3,0s-1.2-3.1,0-4.3l4.7-4.7L239,21c-1.2-1.1-1.3-3-0.2-4.2c1.1-1.2,3-1.3,4.2-0.2l0.1,0.2l4.8,4.7l4.7-4.7
	c1.1-1.2,3-1.3,4.2-0.2c1.2,1.1,1.3,3,0.1,4.2L257,21l-4.7,4.7L257,30.4z M6,243.5v-30.3h132.2v31.3H7C6.4,244.5,6,244.1,6,243.5z"
	/>
<path class="st0" d="M199.7,75H25.9c-2.2,0-4,1.8-4,4v18.2c0,2.2,1.8,4,4,4h173.8c2.2,0,4-1.8,4-4V79C203.7,76.8,201.9,75,199.7,75z
	"/>
<path class="st0" d="M154.1,114.3H25.4c-1.9,0-3.5,1.5-3.5,3.5V137c0,1.9,1.5,3.5,3.5,3.5h128.7c1.9,0,3.5-1.5,3.5-3.5v-19.3
	C157.6,115.8,156,114.3,154.1,114.3z"/>
<path class="st0" d="M224.8,153.6H26.2c-2.4,0-4.3,1.9-4.3,4.3v17.7c0,2.4,1.9,4.3,4.3,4.3h198.6c2.4,0,4.3-1.9,4.3-4.3v-17.7
	C229.1,155.5,227.2,153.6,224.8,153.6z"/>
</svg>
