<?xml version="1.0" encoding="utf-8"?>
<!-- Generator: Adobe Illustrator 21.1.0, SVG Export Plug-In . SVG Version: 6.00 Build 0)  -->
<svg version="1.0" id="Layer_1" xmlns="http://www.w3.org/2000/svg" xmlns:xlink="http://www.w3.org/1999/xlink" x="0px" y="0px"
	 viewBox="0 0 342 342" style="enable-background:new 0 0 342 342;" xml:space="preserve">
<style type="text/css">
	.st0{fill:#2C98D4;}
	.st1{fill:#4197D3;}
</style>
<g id="modals">
	<path class="st0" d="M284.4,67.4l4.7-4.7c1.2-1.2,1.2-3.1,0-4.2c-1.2-1.2-3.1-1.2-4.2,0l-4.7,4.7l-4.7-4.7c-1.2-1.2-3.1-1.2-4.2,0
		c-1.2,1.2-1.2,3.1,0,4.2l4.7,4.7l-4.7,4.7c-1.2,1.2-1.2,3.1,0,4.2c0.6,0.6,1.4,0.9,2.1,0.9s1.5-0.3,2.1-0.9l4.7-4.7l4.7,4.7
		c0.6,0.6,1.4,0.9,2.1,0.9s1.5-0.3,2.1-0.9c1.2-1.2,1.2-3.1,0-4.2L284.4,67.4z"/>
	<path class="st0" d="M304.8,45.7H37.2c-3.9,0-7,3.1-7,7v236.5c0,3.9,3.1,7,7,7h267.7c3.9,0,7-3.1,7-7V52.7
		C311.8,48.9,308.7,45.7,304.8,45.7z M37.2,51.7h267.7c0.5,0,1,0.5,1,1V82H36.2V52.7C36.2,52.2,36.6,51.7,37.2,51.7z M36.2,289.3
		V259h132.2v31.3H37.2C36.6,290.3,36.2,289.8,36.2,289.3z M304.8,290.3H174.4V259h131.3v-6H36.2V88h269.7v201.3
		C305.8,289.8,305.4,290.3,304.8,290.3z"/>
	<path class="st0" d="M204.5,282.2c-0.8,0-1.5-0.3-2.1-0.9c-1.2-1.2-1.2-3.1,0-4.2l9.5-9.5c1.2-1.2,3.1-1.2,4.2,0
		c1.2,1.2,1.2,3.1,0,4.2l-9.5,9.5C206,281.9,205.3,282.2,204.5,282.2z"/>
	<path class="st0" d="M189.7,282.2c-0.8,0-1.5-0.3-2.1-0.9c-1.2-1.2-1.2-3.1,0-4.2l9.5-9.5c1.2-1.2,3.1-1.2,4.2,0
		c1.2,1.2,1.2,3.1,0,4.2l-9.5,9.5C191.2,281.9,190.4,282.2,189.7,282.2z"/>
	<path class="st0" d="M219.3,282.2c-0.8,0-1.5-0.3-2.1-0.9c-1.2-1.2-1.2-3.1,0-4.2l9.5-9.5c1.2-1.2,3.1-1.2,4.2,0
		c1.2,1.2,1.2,3.1,0,4.2l-9.5,9.5C220.9,281.9,220.1,282.2,219.3,282.2z"/>
	<path class="st0" d="M248.5,283.2c-0.8,0-1.5-0.3-2.1-0.9c-1.2-1.2-1.2-3.1,0-4.2l9.5-9.5c1.2-1.2,3.1-1.2,4.2,0
		c1.2,1.2,1.2,3.1,0,4.2l-9.5,9.5C250,282.9,249.3,283.2,248.5,283.2z"/>
	<path class="st0" d="M233.7,283.2c-0.8,0-1.5-0.3-2.1-0.9c-1.2-1.2-1.2-3.1,0-4.2l9.5-9.5c1.2-1.2,3.1-1.2,4.2,0
		c1.2,1.2,1.2,3.1,0,4.2l-9.5,9.5C235.2,282.9,234.4,283.2,233.7,283.2z"/>
	<path class="st0" d="M263.3,283.2c-0.8,0-1.5-0.3-2.1-0.9c-1.2-1.2-1.2-3.1,0-4.2l9.5-9.5c1.2-1.2,3.1-1.2,4.2,0
		c1.2,1.2,1.2,3.1,0,4.2l-9.5,9.5C264.9,282.9,264.1,283.2,263.3,283.2z"/>
	<path class="st0" d="M277.5,283.2c-0.8,0-1.5-0.3-2.1-0.9c-1.2-1.2-1.2-3.1,0-4.2l9.5-9.5c1.2-1.2,3.1-1.2,4.2,0
		c1.2,1.2,1.2,3.1,0,4.2l-9.5,9.5C279,282.9,278.3,283.2,277.5,283.2z"/>
	<path class="st1" d="M69.8,192.3c-0.8,0-1.5-0.3-2.1-0.9L48.3,172c-0.6-0.6-0.9-1.3-0.9-2.1v-0.6c0-0.8,0.3-1.6,0.9-2.1l19.4-19.4
		c1.2-1.2,3.1-1.2,4.2,0c1.2,1.2,1.2,3.1,0,4.2l-17.6,17.6l17.6,17.6c1.2,1.2,1.2,3.1,0,4.2C71.3,192,70.5,192.3,69.8,192.3z"/>
	<path class="st1" d="M275.3,172.6H70.8c-1.7,0-3-1.3-3-3s1.3-3,3-3h204.5c1.7,0,3,1.3,3,3S277,172.6,275.3,172.6z"/>
	<path class="st1" d="M276.4,192.3c-0.8,0-1.5-0.3-2.1-0.9c-1.2-1.2-1.2-3.1,0-4.2l17.6-17.6L274.3,152c-1.2-1.2-1.2-3.1,0-4.2
		c1.2-1.2,3.1-1.2,4.2,0l19.4,19.4c0.6,0.6,0.9,1.3,0.9,2.1v0.6c0,0.8-0.3,1.6-0.9,2.1l-19.4,19.4
		C277.9,192,277.2,192.3,276.4,192.3z"/>
</g>
</svg>
