<svg id="Layer_1" data-name="Layer 1" xmlns="http://www.w3.org/2000/svg" viewBox="0 0 52 52">
  <defs>
    <style>
      .cls-1 {
        fill: #001c3b;
      }
    </style>
  </defs>
  <title>mute-volume-icon</title>
  <g>
    <path class="cls-1" d="M26.7,0h-.24a3.52,3.52,0,0,0-1.84.59S11.19,12.41,10.6,13H3.22A3.24,3.24,0,0,0,0,16.25V36.16a3.24,3.24,0,0,0,3.22,3.25H10.6c.59.59,14,12,14,12a3.48,3.48,0,0,0,1.84.6h.24A2.76,2.76,0,0,0,29,49.81V2.2A2.76,2.76,0,0,0,26.7,0ZM12.88,37.11a3.18,3.18,0,0,0-2.27-.95H3.22V16.25H10.6a3.3,3.3,0,0,0,2.25-.92c.59-.56,7.87-7,12.93-11.44V48.14C20.75,43.87,13.47,37.66,12.88,37.11Z"/>
    <path class="cls-1" d="M45.81,26l5.61-5.61a2,2,0,0,0-2.8-2.81L43,23.19l-5.62-5.61a2,2,0,0,0-2.8,2.81L40.19,26l-5.61,5.62a2,2,0,1,0,2.8,2.8L43,28.81l5.61,5.61a2,2,0,1,0,2.8-2.8Z"/>
  </g>
</svg>
