<?xml version="1.0" encoding="utf-8"?>
<!-- Generator: Adobe Illustrator 21.1.0, SVG Export Plug-In . SVG Version: 6.00 Build 0)  -->
<svg version="1.0" id="Layer_1" xmlns="http://www.w3.org/2000/svg" xmlns:xlink="http://www.w3.org/1999/xlink" x="0px" y="0px"
	 viewBox="0 0 269.2 176" style="enable-background:new 0 0 269.2 176;" xml:space="preserve">
<style type="text/css">
	.st0{fill:#2C98D4;}
</style>
<title>navigation-icon</title>
<path class="st0" d="M263.2,6v23.8H149.4V6H263.2 M265.2,0H147.4c-2.2,0-4,1.8-4,4v27.8c0,2.2,1.8,4,4,4h117.8c2.2,0,4-1.8,4-4V4
	C269.2,1.8,267.4,0,265.2,0z"/>
<path class="st0" d="M128.2,6v23.8H14.5V6H128.2 M130.2,0H12.5c-2.2,0-4,1.8-4,4v27.8c0,2.2,1.8,4,4,4h117.8c2.2,0,4-1.8,4-4V4
	C134.2,1.8,132.4,0,130.2,0z"/>
<path class="st0" d="M263.2,52.8v23.8H149.4V52.8H263.2 M265.2,46.8H147.4c-2.2,0-4,1.8-4,4v27.8c0,2.2,1.8,4,4,4h117.8
	c2.2,0,4-1.8,4-4V50.8C269.2,48.5,267.4,46.8,265.2,46.8z"/>
<path class="st0" d="M263.2,99.5v23.8H149.4V99.5H263.2 M265.2,93.5H147.4c-2.2,0-4,1.8-4,4v27.8c0,2.2,1.8,4,4,4h117.8
	c2.2,0,4-1.8,4-4V97.5C269.2,95.3,267.4,93.5,265.2,93.5z"/>
<path class="st0" d="M263.2,146.2V170H149.4v-23.8H263.2 M265.2,140.2H147.4c-2.2,0-4,1.8-4,4V172c0,2.2,1.8,4,4,4h117.8
	c2.2,0,4-1.8,4-4v-27.8C269.2,142,267.4,140.2,265.2,140.2z"/>
<path class="st0" d="M78.4,170.5h-0.1c-1-0.1-1.9-0.8-2.1-1.8l-10.6-52.9l-63.3-1c-1.3,0-2.3-1.1-2.2-2.3c0-1,0.6-1.8,1.6-2.1
	l104-34.7c1.2-0.4,2.5,0.3,2.9,1.5c0.2,0.5,0.2,0.9,0,1.4l-27.9,90.5C80.2,169.9,79.4,170.5,78.4,170.5z M15.7,110.4l51.8,0.9
	c1.1,0,2,0.8,2.2,1.8l9.1,45.8l24-77.6L15.7,110.4z"/>
</svg>
