<?xml version="1.0" encoding="utf-8"?>
<!-- Generator: Adobe Illustrator 21.1.0, SVG Export Plug-In . SVG Version: 6.00 Build 0)  -->
<svg version="1.1" id="Layer_1" xmlns="http://www.w3.org/2000/svg" xmlns:xlink="http://www.w3.org/1999/xlink" x="0px" y="0px"
	 viewBox="0 0 246.5 156.6" style="enable-background:new 0 0 246.5 156.6;" xml:space="preserve">
<style type="text/css">
	.st0{fill:#FFFFFF;}
</style>
<title>cards-icon-white</title>
<path class="st0" d="M118.1,0H13.7c-3,0-5.4,2.4-5.4,5.3c0,0,0,0,0,0v27.8c0,3,2.4,5.4,5.4,5.4h104.5c3,0,5.4-2.4,5.4-5.4
	c0,0,0,0,0,0V5.4C123.5,2.4,121.1,0,118.1,0C118.1,0,118.1,0,118.1,0z"/>
<path class="st0" d="M241.1,0H136.7c-3,0-5.4,2.4-5.4,5.4v27.8c0,3,2.4,5.4,5.4,5.4h104.4c3,0,5.4-2.4,5.4-5.4c0,0,0,0,0,0V5.4
	C246.5,2.4,244.1,0,241.1,0C241.1,0,241.1,0,241.1,0z"/>
<path class="st0" d="M241.1,47.8H136.7c-3,0-5.4,2.4-5.4,5.4c0,0,0,0,0,0v27.9c0,3,2.4,5.4,5.4,5.4h104.4c3,0,5.4-2.4,5.4-5.4V53.2
	C246.5,50.2,244.1,47.8,241.1,47.8C241.1,47.8,241.1,47.8,241.1,47.8z"/>
<path class="st0" d="M241.1,95.6H136.7c-3,0-5.4,2.4-5.4,5.4v27.9c0,3,2.4,5.4,5.4,5.4h104.4c3,0,5.4-2.4,5.4-5.4V101
	C246.5,98,244.1,95.6,241.1,95.6z"/>
<polygon class="st0" points="0,96.3 54.8,103.1 69.2,156.6 99.2,58.3 "/>
</svg>
