<svg id="Layer_1" data-name="Layer 1" xmlns="http://www.w3.org/2000/svg" viewBox="0 0 321.5 69">
  <defs>
    <style>
      .cls-1 {
        fill: #2c98d4;
      }
    </style>
  </defs>
  <title>progressbar-icon</title>
  <path class="cls-1" d="M313.5,108H8a8,8,0,0,0-8,8v53a8,8,0,0,0,8,8H313.5a8,8,0,0,0,8-8V116A8,8,0,0,0,313.5,108ZM91,112h9.65L39.25,173H29.6ZM24.45,173H14.8l61.43-61h9.65Zm81.38-61h9.65L54.05,173H44.4Zm14.8,0h9.65L68.85,173H59.2Zm14.8,0h9.65L83.65,173H74Zm14.8,0h9.65L98.45,173H88.8Zm14.8,0h9.65l-61.43,61H103.6Zm14.8,0h9.65l-61.43,61H118.4Zm14.8,0h9.65l-61.43,61H133.2ZM4,125l13.51-13H23L4,130.63Zm0,10.69L28.15,112l0,0H34.3L4,141.92ZM4,147l35.46-35h6.83L4,153.89Zm0,12,47.43-47,0,0h7.25L4,166.24Zm4-47h3.75L4,119.47V116A4,4,0,0,1,8,112ZM4.35,170.61l.19.2L63.8,112h7.27L9.65,173H8A4,4,0,0,1,4.35,170.61ZM317.5,169a4,4,0,0,1-4,4H148l61.43-61H313.5a4,4,0,0,1,4,4Z" transform="translate(0 -108)"/>
</svg>
