<?xml version="1.0" encoding="utf-8"?>
<!-- Generator: Adobe Illustrator 21.1.0, SVG Export Plug-In . SVG Version: 6.00 Build 0)  -->
<svg version="1.1" id="Layer_1" xmlns="http://www.w3.org/2000/svg" xmlns:xlink="http://www.w3.org/1999/xlink" x="0px" y="0px"
	 viewBox="0 0 341.8 340.2" style="enable-background:new 0 0 341.8 340.2;" xml:space="preserve">
<style type="text/css">
	.st0{fill:#FFFFFF;}
</style>
<g>
	<g>
		<path class="st0" d="M178.9,107.2h-18.7V149h-23.5V34.9h42.4c13.5,0,23.9,3,31.2,9c7.3,6,11,14.5,11,25.5c0,7.8-1.7,14.3-5.1,19.5
			c-3.4,5.2-8.5,9.3-15.3,12.4l24.7,46.6v1.1h-25.2L178.9,107.2z M160.2,88.2h19c5.9,0,10.5-1.5,13.7-4.5c3.2-3,4.9-7.1,4.9-12.4
			c0-5.4-1.5-9.6-4.6-12.7c-3.1-3.1-7.7-4.6-14.1-4.6h-18.9V88.2z"/>
		<path class="st0" d="M261.1,130.1H311V149h-73.4V34.9h23.5V130.1z"/>
	</g>
	<path class="st0" d="M317.6,202.2H68.2l41.5-41.5c4.3-4.3,4.3-11.2,0-15.5l-6.7-6.7c-4.3-4.3-11.2-4.3-15.5,0L16,209.9
		c-4.2,4.2-4.3,11.1-0.1,15.4c0.5,0.9,1.1,1.7,1.8,2.4l71.5,71.5c4.3,4.3,11.2,4.3,15.5,0l6.7-6.7c4.3-4.3,4.3-11.2,0-15.5
		l-43.2-43.2h249.4c6.3,0,11.4-5.2,11.4-11.4v-8.6C329,207.4,323.8,202.2,317.6,202.2z"/>
</g>
</svg>
