<svg id="Layer_1" data-name="Layer 1" xmlns="http://www.w3.org/2000/svg" viewBox="0 0 316.2 267.51">
  <defs>
    <style>
      .cls-1 {
        fill: #fff;
      }
    </style>
  </defs>
  <title>rtl-icon-white</title>
  <g>
    <g>
      <path class="cls-1" d="M178.92,107.22H160.19V149H136.67V34.87h42.41q20.22,0,31.2,9t11,25.47q0,11.68-5.06,19.48t-15.32,12.42l24.69,46.64V149H200.32Zm-18.73-19h19q8.86,0,13.72-4.51t4.86-12.42q0-8.07-4.59-12.7t-14.07-4.62H160.19Z" transform="translate(-12.8 -34.87)"/>
      <path class="cls-1" d="M261.07,130.1H311V149H237.55V34.87h23.52Z" transform="translate(-12.8 -34.87)"/>
    </g>
    <path class="cls-1" d="M317.56,202.24H68.2l41.54-41.54a11,11,0,0,0,0-15.51L103,138.45a11,11,0,0,0-15.51,0L16,209.94a11,11,0,0,0-.11,15.39,10.86,10.86,0,0,0,1.79,2.38l71.48,71.48a11,11,0,0,0,15.51,0l6.74-6.74a11,11,0,0,0,0-15.51L68.2,233.72H317.56A11.48,11.48,0,0,0,329,222.27v-8.58A11.48,11.48,0,0,0,317.56,202.24Z" transform="translate(-12.8 -34.87)"/>
  </g>
</svg>
