<?xml version="1.0" encoding="utf-8"?>
<!-- Generator: Adobe Illustrator 21.1.0, SVG Export Plug-In . SVG Version: 6.00 Build 0)  -->
<svg version="1.1" id="Layer_1" xmlns="http://www.w3.org/2000/svg" xmlns:xlink="http://www.w3.org/1999/xlink" x="0px" y="0px"
	 viewBox="0 0 148.3 141" style="enable-background:new 0 0 148.3 141;" xml:space="preserve">
<style type="text/css">
	.st0{fill:#FFFFFF;}
</style>
<path id="home-start-icon" class="st0" d="M145.2,63.7c-0.2-0.2-0.3-0.3-0.5-0.5l-62.2-60c-4.7-4.4-12-4.4-16.8,0L47.3,21.1v-5.8
	c0-1.3-1-2.3-2.3-2.3H27.4c-1.3,0-2.3,1-2.3,2.3v25.7c0,0.4,0.1,0.9,0.4,1.2L3.6,63.3c-4.7,4.5-4.8,11.9-0.3,16.6
	c4.5,4.7,11.9,4.8,16.6,0.3l2.2-2.1v46c0,9.4,7.6,17,17,17h69.8c9.4,0,17-7.6,17-17V77.6l2.7,2.6c4.5,4.6,12,4.7,16.6,0.2
	C149.7,75.8,149.8,68.4,145.2,63.7z M108.8,130.5H88.7V96.4c0-4.4-3.6-8-8-8h-13c-4.4,0-8,3.6-8,8v34.1H39c-3.6,0-6.4-2.9-6.4-6.5
	V67.9l7-6.7l10.9-10.5l23.7-22.9l23.7,22.9l10.9,10.5l6.5,6.2c0,0.1,0,0.1,0,0.2l0,56.4C115.3,127.6,112.4,130.5,108.8,130.5z"/>
</svg>
