<svg id="Layer_1" data-name="Layer 1" xmlns="http://www.w3.org/2000/svg" viewBox="0 0 341.53 236.64">
  <defs>
    <style>
      .cls-1 {
        fill: #fff;
      }
    </style>
  </defs>
  <title>tables-icon-white</title>
  <g id="tables_icon" data-name="tables icon">
    <path class="cls-1" d="M69.2,35.49H7a7,7,0,0,1-7-7V7A7,7,0,0,1,7,0H69.2a7,7,0,0,1,7,7V28.48a7,7,0,0,1-7,7Z" transform="translate(0)"/>
    <path class="cls-1" d="M69.2,85.77H7a7,7,0,0,1-7-7V57.29a7,7,0,0,1,7-7H69.2a7,7,0,0,1,7,7V78.77A7,7,0,0,1,69.2,85.77Z" transform="translate(0)"/>
    <path class="cls-1" d="M69.2,136.06H7a7,7,0,0,1-7-7V107.58a7,7,0,0,1,7-7H69.2a7,7,0,0,1,7,7v21.48a7,7,0,0,1-7,7Z" transform="translate(0)"/>
    <path class="cls-1" d="M69.2,186.4H7a7,7,0,0,1-7-7V157.87a7,7,0,0,1,7-7H69.2a7,7,0,0,1,7,7V179.4A7,7,0,0,1,69.2,186.4Z" transform="translate(0)"/>
    <path class="cls-1" d="M69.2,236.64H7a7,7,0,0,1-7-7V208.16a7,7,0,0,1,7-7H69.2a7,7,0,0,1,7,7v21.48A7,7,0,0,1,69.2,236.64Z" transform="translate(0)"/>
    <path class="cls-1" d="M157.61,85.77H95.46a7,7,0,0,1-7-7V57.29a7,7,0,0,1,7-7h62.15a7,7,0,0,1,7,7V78.77A7,7,0,0,1,157.61,85.77Z" transform="translate(0)"/>
    <path class="cls-1" d="M158.12,136.06H96a7,7,0,0,1-7-7V107.58a7,7,0,0,1,7-7h62.15a7,7,0,0,1,7,7v21.48a7,7,0,0,1-7,7Z" transform="translate(0)"/>
    <path class="cls-1" d="M158.6,186.4H96.45a7,7,0,0,1-7-7V157.87a7,7,0,0,1,7-7H158.6a7,7,0,0,1,7,7V179.4A7,7,0,0,1,158.6,186.4Z" transform="translate(0)"/>
    <path class="cls-1" d="M246.07,85.77H183.92a7,7,0,0,1-7-7V57.29a7,7,0,0,1,7-7h62.15a7,7,0,0,1,7,7V78.77A7,7,0,0,1,246.07,85.77Z" transform="translate(0)"/>
    <path class="cls-1" d="M334.53,85.77H272.38a7,7,0,0,1-7-7V57.29a7,7,0,0,1,7-7h62.15a7,7,0,0,1,7,7V78.77A7,7,0,0,1,334.53,85.77Z" transform="translate(0)"/>
    <path class="cls-1" d="M247.1,136.06H185a7,7,0,0,1-7-7V107.58a7,7,0,0,1,7-7H247.1a7,7,0,0,1,7,7v21.48a7,7,0,0,1-7,7Z" transform="translate(0)"/>
    <path class="cls-1" d="M157.61,35.49H95.46a7,7,0,0,1-7-7V7a7,7,0,0,1,7-7h62.15a7,7,0,0,1,7,7V28.48a7,7,0,0,1-7,7Z" transform="translate(0)"/>
    <path class="cls-1" d="M246.07,35.49H183.92a7,7,0,0,1-7-7V7a7,7,0,0,1,7-7h62.15a7,7,0,0,1,7,7V28.48a7,7,0,0,1-7,7Z" transform="translate(0)"/>
    <path class="cls-1" d="M334.53,35.49H272.38a7,7,0,0,1-7-7V7a7,7,0,0,1,7-7h62.15a7,7,0,0,1,7,7V28.48a7,7,0,0,1-7,7Z" transform="translate(0)"/>
  </g>
</svg>
