<?xml version="1.0" encoding="utf-8"?>
<!-- Generator: Adobe Illustrator 21.1.0, SVG Export Plug-In . SVG Version: 6.00 Build 0)  -->
<svg version="1.0" id="Layer_1" xmlns="http://www.w3.org/2000/svg" xmlns:xlink="http://www.w3.org/1999/xlink" x="0px" y="0px"
	 viewBox="0 0 342 342" style="enable-background:new 0 0 342 342;" xml:space="preserve">
<style type="text/css">
	.st0{fill:#2C98D4;}
</style>
<g id="tables_x5F_icon">
	<path class="st0" d="M69,86.1H6.8c-3.9,0-7-3.1-7-7V57.6c0-3.9,3.1-7,7-7H69c3.9,0,7,3.1,7,7v21.5C76,82.9,72.8,86.1,69,86.1z
		 M6.8,56.6c-0.5,0-1,0.5-1,1v21.5c0,0.5,0.5,1,1,1H69c0.5,0,1-0.5,1-1V57.6c0-0.5-0.5-1-1-1H6.8z"/>
	<path class="st0" d="M69,136.4H6.8c-3.9,0-7-3.1-7-7v-21.5c0-3.9,3.1-7,7-7H69c3.9,0,7,3.1,7,7v21.5C76,133.2,72.8,136.4,69,136.4z
		 M6.8,106.9c-0.5,0-1,0.5-1,1v21.5c0,0.5,0.5,1,1,1H69c0.5,0,1-0.5,1-1v-21.5c0-0.5-0.5-1-1-1H6.8z"/>
	<path class="st0" d="M69,186.7H6.8c-3.9,0-7-3.1-7-7v-21.5c0-3.9,3.1-7,7-7H69c3.9,0,7,3.1,7,7v21.5C76,183.5,72.8,186.7,69,186.7z
		 M6.8,157.2c-0.5,0-1,0.5-1,1v21.5c0,0.5,0.5,1,1,1H69c0.5,0,1-0.5,1-1v-21.5c0-0.5-0.5-1-1-1H6.8z"/>
	<path class="st0" d="M69,237H6.8c-3.9,0-7-3.1-7-7v-21.5c0-3.9,3.1-7,7-7H69c3.9,0,7,3.1,7,7V230C76,233.8,72.8,237,69,237z
		 M6.8,207.5c-0.5,0-1,0.5-1,1V230c0,0.5,0.5,1,1,1H69c0.5,0,1-0.5,1-1v-21.5c0-0.5-0.5-1-1-1H6.8z"/>
	<path class="st0" d="M69,287.2H6.8c-3.9,0-7-3.1-7-7v-21.5c0-3.9,3.1-7,7-7H69c3.9,0,7,3.1,7,7v21.5C76,284.1,72.8,287.2,69,287.2z
		 M6.8,257.8c-0.5,0-1,0.5-1,1v21.5c0,0.5,0.5,1,1,1H69c0.5,0,1-0.5,1-1v-21.5c0-0.5-0.5-1-1-1H6.8z"/>
	<path class="st0" d="M157.4,136.4H95.3c-3.9,0-7-3.1-7-7v-21.5c0-3.9,3.1-7,7-7h62.2c3.9,0,7,3.1,7,7v21.5
		C164.4,133.2,161.3,136.4,157.4,136.4z M95.3,106.9c-0.5,0-1,0.5-1,1v21.5c0,0.5,0.5,1,1,1h62.2c0.5,0,1-0.5,1-1v-21.5
		c0-0.5-0.5-1-1-1H95.3z"/>
	<path class="st0" d="M157.9,186.7H95.8c-3.9,0-7-3.1-7-7v-21.5c0-3.9,3.1-7,7-7h62.1c3.9,0,7,3.1,7,7v21.5
		C164.9,183.5,161.8,186.7,157.9,186.7z M95.8,157.2c-0.5,0-1,0.5-1,1v21.5c0,0.5,0.5,1,1,1h62.1c0.5,0,1-0.5,1-1v-21.5
		c0-0.5-0.5-1-1-1H95.8z"/>
	<path class="st0" d="M158.4,237H96.2c-3.9,0-7-3.1-7-7v-21.5c0-3.9,3.1-7,7-7h62.1c3.9,0,7,3.1,7,7V230
		C165.4,233.8,162.3,237,158.4,237z M96.2,207.5c-0.5,0-1,0.5-1,1V230c0,0.5,0.5,1,1,1h62.1c0.5,0,1-0.5,1-1v-21.5c0-0.5-0.5-1-1-1
		H96.2z"/>
	<path class="st0" d="M245.9,136.4h-62.2c-3.9,0-7-3.1-7-7v-21.5c0-3.9,3.1-7,7-7h62.2c3.9,0,7,3.1,7,7v21.5
		C252.9,133.2,249.7,136.4,245.9,136.4z M183.7,106.9c-0.5,0-1,0.5-1,1v21.5c0,0.5,0.5,1,1,1h62.2c0.5,0,1-0.5,1-1v-21.5
		c0-0.5-0.5-1-1-1H183.7z"/>
	<path class="st0" d="M334.3,136.4h-62.2c-3.9,0-7-3.1-7-7v-21.5c0-3.9,3.1-7,7-7h62.2c3.9,0,7,3.1,7,7v21.5
		C341.3,133.2,338.2,136.4,334.3,136.4z M272.2,106.9c-0.5,0-1,0.5-1,1v21.5c0,0.5,0.5,1,1,1h62.2c0.5,0,1-0.5,1-1v-21.5
		c0-0.5-0.5-1-1-1H272.2z"/>
	<path class="st0" d="M246.9,186.7h-62.2c-3.9,0-7-3.1-7-7v-21.5c0-3.9,3.1-7,7-7h62.2c3.9,0,7,3.1,7,7v21.5
		C253.9,183.5,250.8,186.7,246.9,186.7z M184.8,157.2c-0.5,0-1,0.5-1,1v21.5c0,0.5,0.5,1,1,1h62.2c0.5,0,1-0.5,1-1v-21.5
		c0-0.5-0.5-1-1-1H184.8z"/>
	<path class="st0" d="M157.4,86.1H95.3c-3.9,0-7-3.1-7-7V57.6c0-3.9,3.1-7,7-7h62.2c3.9,0,7,3.1,7,7v21.5
		C164.4,82.9,161.3,86.1,157.4,86.1z M95.3,56.6c-0.5,0-1,0.5-1,1v21.5c0,0.5,0.5,1,1,1h62.2c0.5,0,1-0.5,1-1V57.6c0-0.5-0.5-1-1-1
		H95.3z"/>
	<path class="st0" d="M245.9,86.1h-62.2c-3.9,0-7-3.1-7-7V57.6c0-3.9,3.1-7,7-7h62.2c3.9,0,7,3.1,7,7v21.5
		C252.9,82.9,249.7,86.1,245.9,86.1z M183.7,56.6c-0.5,0-1,0.5-1,1v21.5c0,0.5,0.5,1,1,1h62.2c0.5,0,1-0.5,1-1V57.6c0-0.5-0.5-1-1-1
		H183.7z"/>
	<path class="st0" d="M334.3,86.1h-62.2c-3.9,0-7-3.1-7-7V57.6c0-3.9,3.1-7,7-7h62.2c3.9,0,7,3.1,7,7v21.5
		C341.3,82.9,338.2,86.1,334.3,86.1z M272.2,56.6c-0.5,0-1,0.5-1,1v21.5c0,0.5,0.5,1,1,1h62.2c0.5,0,1-0.5,1-1V57.6c0-0.5-0.5-1-1-1
		H272.2z"/>
</g>
</svg>
