<svg id="Layer_1" data-name="Layer 1" xmlns="http://www.w3.org/2000/svg" viewBox="0 0 56 56">
  <defs>
    <style>
      .cls-1 {
        fill: #001c3b;
      }
    </style>
  </defs>
  <title>target-icon</title>
  <g>
    <path class="cls-1" d="M32,16.9a1.31,1.31,0,0,0-.73-1.7,17,17,0,1,0,9.55,9.55,1.31,1.31,0,1,0-2.44,1,14.38,14.38,0,1,1-8.08-8.08A1.31,1.31,0,0,0,32,16.9Z" transform="translate(0 0)"/>
    <path class="cls-1" d="M47.41,23.2a1.32,1.32,0,0,0-.9,1.63A22.34,22.34,0,1,1,31.18,9.5,1.32,1.32,0,1,0,31.9,7,25,25,0,1,0,49,24.11,1.32,1.32,0,0,0,47.41,23.2Z" transform="translate(0 0)"/>
    <path class="cls-1" d="M25,24.58l.58,0A1.29,1.29,0,0,0,25.81,22c-.26,0-.54,0-.81,0a9,9,0,1,0,9,9c0-.26,0-.53,0-.79a1.29,1.29,0,0,0-2.56.23c0,.18,0,.37,0,.56A6.43,6.43,0,1,1,25,24.58Z" transform="translate(0 0)"/>
    <path class="cls-1" d="M55.8,9a2.66,2.66,0,0,0-2.46-1.64H48.69V2.67A2.66,2.66,0,0,0,44.14.78L36.38,8.54a4,4,0,0,0-1.17,2.82V18.9L24.39,29.73a1.33,1.33,0,1,0,1.88,1.88L37.1,20.79h7.54a4,4,0,0,0,2.82-1.17l7.76-7.76A2.65,2.65,0,0,0,55.8,9ZM37.88,11.37h0a1.32,1.32,0,0,1,.39-.94L46,2.67V8.09l-8.15,8.15Zm7.7,6.37a1.34,1.34,0,0,1-.94.39H39.76L47.91,10h5.42Z" transform="translate(0 0)"/>
  </g>
</svg>
